SplineFontDB: 3.2
FontName: NunitoPOJ-Bold
FullName: NunitoPOJ Bold
FamilyName: NunitoPOJ
Weight: Bold
Copyright: Copyright 2014 The Nunito Project Authors (https://github.com/googlefonts/NunitoFont)
Version: 3.504
ItalicAngle: 0
UnderlinePosition: -100
UnderlineWidth: 50
Ascent: 800
Descent: 200
InvalidEm: 0
sfntRevision: 0x00038106
LayerCount: 2
Layer: 0 1 "Back" 1
Layer: 1 1 "Fore" 0
XUID: [1021 170 1143396767 11735]
StyleMap: 0x0020
FSType: 0
OS2Version: 4
OS2_WeightWidthSlopeOnly: 0
OS2_UseTypoMetrics: 1
CreationTime: 1532507533
ModificationTime: 1595330705
PfmFamily: 81
TTFWeight: 700
TTFWidth: 5
LineGap: 0
VLineGap: 0
Panose: 0 0 8 0 0 0 0 0 0 0
OS2TypoAscent: 1011
OS2TypoAOffset: 0
OS2TypoDescent: -353
OS2TypoDOffset: 0
OS2TypoLinegap: 0
OS2WinAscent: 1092
OS2WinAOffset: 0
OS2WinDescent: 281
OS2WinDOffset: 0
HheadAscent: 1011
HheadAOffset: 0
HheadDescent: -353
HheadDOffset: 0
OS2SubXSize: 650
OS2SubYSize: 600
OS2SubXOff: 0
OS2SubYOff: 75
OS2SupXSize: 650
OS2SupYSize: 600
OS2SupXOff: 0
OS2SupYOff: 350
OS2StrikeYSize: 50
OS2StrikeYPos: 293
OS2CapHeight: 705
OS2XHeight: 489
OS2Vendor: 'NeWT'
OS2CodePages: 20000197.00000000
OS2UnicodeRanges: 2000020f.00000003.00000000.00000000
Lookup: 4 0 1 "'liga' Pehoeji Ligatures lookup 34" { "'liga' Pehoeji Ligatures lookup 34-1"  } ['liga' ('DFLT' <'dflt' > 'cyrl' <'BSH ' 'CHU ' 'dflt' > 'grek' <'dflt' > 'latn' <'AZE ' 'CAT ' 'CRT ' 'KAZ ' 'MOL ' 'NLD ' 'ROM ' 'TAT ' 'TRK ' 'dflt' > ) ]
Lookup: 1 0 0 "'aalt' Access All Alternates lookup 0" { "'aalt' Access All Alternates lookup 0 subtable"  } ['aalt' ('DFLT' <'dflt' > 'cyrl' <'dflt' > 'latn' <'AZE ' 'CAT ' 'CRT ' 'KAZ ' 'MOL ' 'NLD ' 'ROM ' 'TAT ' 'TRK ' 'dflt' > ) ]
Lookup: 3 0 0 "'aalt' Access All Alternates lookup 1" { "'aalt' Access All Alternates lookup 1 subtable"  } ['aalt' ('DFLT' <'dflt' > 'cyrl' <'dflt' > 'latn' <'AZE ' 'CAT ' 'CRT ' 'KAZ ' 'MOL ' 'NLD ' 'ROM ' 'TAT ' 'TRK ' 'dflt' > ) ]

StartChar: .notdef
Encoding: 925 -1 0
Width: 443
Flags: W
LayerCount: 2
Fore
SplineSet
363 -180 m 1,0,-1
 82 -180 l 1,1,-1
 82 705 l 1,2,-1
 363 705 l 1,3,-1
 363 -180 l 1,0,-1
149 646 m 1,4,-1
 149 617 l 1,5,-1
 206 617 l 1,6,-1
 206 584 l 1,7,-1
 148 584 l 1,8,-1
 148 555 l 1,9,-1
 295 555 l 1,10,-1
 295 584 l 1,11,-1
 236 584 l 1,12,-1
 236 617 l 1,13,-1
 295 617 l 1,14,-1
 295 646 l 1,15,-1
 149 646 l 1,4,-1
148 532 m 1,16,-1
 148 440 l 1,17,-1
 295 440 l 1,18,-1
 295 470 l 1,19,-1
 236 470 l 1,20,-1
 236 532 l 1,21,-1
 148 532 l 1,16,-1
206 470 m 1,22,-1
 177 470 l 1,23,-1
 177 501 l 1,24,-1
 206 501 l 1,25,-1
 206 470 l 1,22,-1
148 416 m 1,26,-1
 148 386 l 1,27,-1
 206 386 l 1,28,-1
 206 354 l 1,29,-1
 148 354 l 1,30,-1
 148 324 l 1,31,-1
 236 324 l 1,32,-1
 236 386 l 1,33,-1
 295 386 l 1,34,-1
 295 416 l 1,35,-1
 148 416 l 1,26,-1
266 363 m 1,36,-1
 266 304 l 1,37,-1
 148 304 l 1,38,-1
 148 274 l 1,39,-1
 295 274 l 1,40,-1
 295 363 l 1,41,-1
 266 363 l 1,36,-1
206 255 m 1,42,-1
 206 205 l 1,43,-1
 236 205 l 1,44,-1
 236 225 l 1,45,-1
 266 225 l 1,46,-1
 266 184 l 1,47,-1
 177 184 l 1,48,-1
 177 255 l 1,49,-1
 148 255 l 1,50,-1
 148 155 l 1,51,-1
 295 155 l 1,52,-1
 295 255 l 1,53,-1
 206 255 l 1,42,-1
148 101 m 1,54,-1
 148 1 l 1,55,-1
 295 1 l 1,56,-1
 295 101 l 1,57,-1
 148 101 l 1,54,-1
266 31 m 1,58,-1
 177 31 l 1,59,-1
 177 72 l 1,60,-1
 266 72 l 1,61,-1
 266 31 l 1,58,-1
148 -19 m 1,62,-1
 148 -48 l 1,63,-1
 210 -48 l 1,64,-1
 148 -90 l 1,65,-1
 148 -119 l 1,66,-1
 295 -119 l 1,67,-1
 295 -90 l 1,68,-1
 204 -90 l 1,69,-1
 266 -48 l 1,70,-1
 295 -48 l 1,71,-1
 295 -19 l 1,72,-1
 148 -19 l 1,62,-1
EndSplineSet
EndChar

StartChar: A
Encoding: 35 65 4
Width: 742
GlyphClass: 2
Flags: W
AnchorPoint: "Anchor-10" 371 705 basechar 0
AnchorPoint: "Anchor-9" 699 10 basechar 0
AnchorPoint: "Anchor-8" 372 0 basechar 0
LayerCount: 2
Fore
SplineSet
721 51 m 0,1,2
 721 28 721 28 702.5 12 c 128,-1,3
 684 -4 684 -4 660 -4 c 0,4,5
 644 -4 644 -4 630 4.5 c 128,-1,6
 616 13 616 13 608 31 c 2,7,-1
 548 165 l 1,8,-1
 196 165 l 1,9,-1
 136 31 l 2,10,11
 128 13 128 13 114 4.5 c 128,-1,12
 100 -4 100 -4 83 -4 c 0,13,14
 60 -4 60 -4 41 12 c 128,-1,15
 22 28 22 28 22 51 c 0,16,17
 22 64 22 64 28 77 c 2,18,-1
 304 670 l 2,19,20
 313 690 313 690 331.5 700.5 c 128,-1,21
 350 711 350 711 371 711 c 256,22,23
 392 711 392 711 410.5 700.5 c 128,-1,24
 429 690 429 690 438 670 c 2,25,-1
 715 77 l 2,26,0
 721 64 721 64 721 51 c 0,1,2
240 265 m 1,27,-1
 504 265 l 1,28,-1
 372 562 l 1,29,-1
 240 265 l 1,27,-1
EndSplineSet
Substitution2: "Single Substitution lookup 33 subtable" ordfeminine
Substitution2: "'aalt' Access All Alternates lookup 0 subtable" ordfeminine
EndChar

StartChar: Aogonek
Encoding: 197 260 25
Width: 742
Flags: W
LayerCount: 2
Fore
SplineSet
739 -115 m 0,1,2
 750 -115 750 -115 756.5 -124 c 128,-1,3
 763 -133 763 -133 763 -145 c 0,4,5
 763 -166 763 -166 746 -174 c 0,6,7
 710 -195 710 -195 663 -195 c 0,8,9
 610 -195 610 -195 575 -164 c 128,-1,10
 540 -133 540 -133 540 -85 c 0,11,12
 540 -51 540 -51 558 -22.5 c 128,-1,13
 576 6 576 6 611 24 c 1,14,-1
 608 31 l 1,15,-1
 548 165 l 1,16,-1
 196 165 l 1,17,-1
 136 31 l 2,18,19
 128 13 128 13 114 4.5 c 128,-1,20
 100 -4 100 -4 83 -4 c 0,21,22
 60 -4 60 -4 41 12 c 128,-1,23
 22 28 22 28 22 51 c 0,24,25
 22 64 22 64 28 77 c 2,26,-1
 304 670 l 2,27,28
 313 690 313 690 331.5 700.5 c 128,-1,29
 350 711 350 711 371 711 c 256,30,31
 392 711 392 711 410.5 700.5 c 128,-1,32
 429 690 429 690 438 670 c 2,33,-1
 715 77 l 2,34,35
 721 64 721 64 721 52 c 0,36,37
 721 35 721 35 711.5 21.5 c 128,-1,38
 702 8 702 8 687 2 c 0,39,40
 624 -20 624 -20 624 -69 c 0,41,42
 624 -96 624 -96 640 -111 c 128,-1,43
 656 -126 656 -126 681 -126 c 0,44,45
 705 -126 705 -126 729 -117 c 0,46,0
 737 -115 737 -115 739 -115 c 0,1,2
240 265 m 1,47,-1
 504 265 l 1,48,-1
 372 562 l 1,49,-1
 240 265 l 1,47,-1
EndSplineSet
EndChar

StartChar: Aring
Encoding: 134 197 26
Width: 742
Flags: W
LayerCount: 2
Fore
SplineSet
721 51 m 0,1,2
 721 27 721 27 703 11.5 c 128,-1,3
 685 -4 685 -4 661 -4 c 0,4,5
 644 -4 644 -4 630 4.5 c 128,-1,6
 616 13 616 13 608 31 c 2,7,-1
 548 165 l 1,8,-1
 196 165 l 1,9,-1
 136 31 l 2,10,11
 128 13 128 13 114 4.5 c 128,-1,12
 100 -4 100 -4 83 -4 c 0,13,14
 59 -4 59 -4 40.5 11.5 c 128,-1,15
 22 27 22 27 22 50 c 0,16,17
 22 64 22 64 28 77 c 2,18,-1
 313 689 l 1,19,20
 291 703 291 703 278 726 c 128,-1,21
 265 749 265 749 265 776 c 0,22,23
 265 820 265 820 296 850 c 128,-1,24
 327 880 327 880 372 880 c 0,25,26
 416 880 416 880 447 850 c 128,-1,27
 478 820 478 820 478 776 c 0,28,29
 478 749 478 749 465 726 c 128,-1,30
 452 703 452 703 430 689 c 1,31,-1
 715 77 l 2,32,0
 721 64 721 64 721 51 c 0,1,2
339 809.5 m 128,-1,34
 326 796 326 796 326 776 c 256,35,36
 326 756 326 756 339 742.5 c 128,-1,37
 352 729 352 729 372 729 c 0,38,39
 391 729 391 729 404 742.5 c 128,-1,40
 417 756 417 756 417 776 c 256,41,42
 417 796 417 796 404 809.5 c 128,-1,43
 391 823 391 823 372 823 c 0,44,33
 352 823 352 823 339 809.5 c 128,-1,34
240 265 m 1,45,-1
 504 265 l 1,46,-1
 372 562 l 1,47,-1
 240 265 l 1,45,-1
EndSplineSet
EndChar

StartChar: Aringacute
Encoding: 342 506 27
Width: 742
Flags: W
LayerCount: 2
Fore
SplineSet
721 51 m 0,1,2
 721 27 721 27 703 11.5 c 128,-1,3
 685 -4 685 -4 661 -4 c 0,4,5
 644 -4 644 -4 630 4.5 c 128,-1,6
 616 13 616 13 608 31 c 2,7,-1
 548 165 l 1,8,-1
 196 165 l 1,9,-1
 136 31 l 2,10,11
 128 13 128 13 114 4.5 c 128,-1,12
 100 -4 100 -4 83 -4 c 0,13,14
 59 -4 59 -4 40.5 11.5 c 128,-1,15
 22 27 22 27 22 50 c 0,16,17
 22 64 22 64 28 77 c 2,18,-1
 313 689 l 1,19,20
 291 703 291 703 278 726 c 128,-1,21
 265 749 265 749 265 776 c 0,22,23
 265 820 265 820 296 850 c 128,-1,24
 327 880 327 880 372 880 c 0,25,26
 400 880 400 880 424 867 c 1,27,-1
 518 935 l 2,28,29
 538 949 538 949 556 949 c 0,30,31
 577 949 577 949 591 934 c 128,-1,32
 605 919 605 919 605 900 c 0,33,34
 605 885 605 885 595 871.5 c 128,-1,35
 585 858 585 858 564 851 c 2,36,-1
 470 817 l 1,37,38
 478 798 478 798 478 776 c 0,39,40
 478 749 478 749 465 726 c 128,-1,41
 452 703 452 703 430 689 c 1,42,-1
 715 77 l 2,43,0
 721 64 721 64 721 51 c 0,1,2
339 809.5 m 128,-1,45
 326 796 326 796 326 776 c 256,46,47
 326 756 326 756 339 742.5 c 128,-1,48
 352 729 352 729 372 729 c 0,49,50
 391 729 391 729 404 742.5 c 128,-1,51
 417 756 417 756 417 776 c 256,52,53
 417 796 417 796 404 809.5 c 128,-1,54
 391 823 391 823 372 823 c 0,55,44
 352 823 352 823 339 809.5 c 128,-1,45
240 265 m 1,56,-1
 504 265 l 1,57,-1
 372 562 l 1,58,-1
 240 265 l 1,56,-1
EndSplineSet
EndChar

StartChar: AE
Encoding: 135 198 29
Width: 997
GlyphClass: 2
Flags: W
AnchorPoint: "Anchor-10" 502 705 basechar 0
AnchorPoint: "Anchor-8" 503 0 basechar 0
LayerCount: 2
Fore
SplineSet
952 88.5 m 128,-1,1
 968 75 968 75 968 50 c 256,2,3
 968 25 968 25 952 12.5 c 128,-1,4
 936 0 936 0 907 0 c 2,5,-1
 617 0 l 2,6,7
 594 0 594 0 578.5 11 c 128,-1,8
 563 22 563 22 558 40 c 2,9,-1
 531 165 l 1,10,-1
 206 165 l 1,11,-1
 124 31 l 2,12,13
 113 12 113 12 96.5 3 c 128,-1,14
 80 -6 80 -6 62 -6 c 0,15,16
 39 -6 39 -6 23 7.5 c 128,-1,17
 7 21 7 21 7 42 c 0,18,19
 7 59 7 59 18 77 c 2,20,-1
 395 670 l 2,21,22
 406 687 406 687 425 696 c 128,-1,23
 444 705 444 705 468 705 c 2,24,-1
 907 705 l 2,25,26
 936 705 936 705 952 692.5 c 128,-1,27
 968 680 968 680 968 655 c 256,28,29
 968 630 968 630 952 616.5 c 128,-1,30
 936 603 936 603 907 603 c 2,31,-1
 552 603 l 1,32,-1
 595 409 l 1,33,-1
 887 409 l 2,34,35
 916 409 916 409 932 396 c 128,-1,36
 948 383 948 383 948 358 c 256,37,38
 948 333 948 333 932 320.5 c 128,-1,39
 916 308 916 308 887 308 c 2,40,-1
 618 308 l 1,41,-1
 663 102 l 1,42,-1
 907 102 l 2,43,0
 936 102 936 102 952 88.5 c 128,-1,1
268 265 m 1,44,-1
 509 265 l 1,45,-1
 447 555 l 1,46,-1
 268 265 l 1,44,-1
EndSplineSet
EndChar

StartChar: B
Encoding: 36 66 31
Width: 683
GlyphClass: 2
Flags: W
AnchorPoint: "Anchor-10" 345 705 basechar 0
AnchorPoint: "Anchor-8" 346 0 basechar 0
LayerCount: 2
Fore
SplineSet
604.5 302 m 128,-1,1
 638 257 638 257 638 192 c 0,2,3
 638 102 638 102 573.5 51 c 128,-1,4
 509 0 509 0 396 0 c 2,5,-1
 138 0 l 2,6,7
 109 0 109 0 92.5 16 c 128,-1,8
 76 32 76 32 76 61 c 2,9,-1
 76 644 l 2,10,11
 76 673 76 673 92.5 689 c 128,-1,12
 109 705 109 705 138 705 c 2,13,-1
 386 705 l 2,14,15
 496 705 496 705 558.5 656.5 c 128,-1,16
 621 608 621 608 621 521 c 0,17,18
 621 465 621 465 591.5 424 c 128,-1,19
 562 383 562 383 510 364 c 1,20,0
 571 347 571 347 604.5 302 c 128,-1,1
202 408 m 1,21,-1
 365 408 l 2,22,23
 498 408 498 408 498 507 c 0,24,25
 498 557 498 557 465 581 c 128,-1,26
 432 605 432 605 365 605 c 2,27,-1
 202 605 l 1,28,-1
 202 408 l 1,21,-1
484 125 m 128,-1,30
 516 150 516 150 516 203 c 256,31,32
 516 256 516 256 483.5 282 c 128,-1,33
 451 308 451 308 382 308 c 2,34,-1
 202 308 l 1,35,-1
 202 100 l 1,36,-1
 382 100 l 2,37,29
 452 100 452 100 484 125 c 128,-1,30
EndSplineSet
EndChar

StartChar: C
Encoding: 37 67 32
Width: 678
GlyphClass: 2
Flags: W
AnchorPoint: "Anchor-10" 391 705 basechar 0
AnchorPoint: "Anchor-8" 391 0 basechar 0
LayerCount: 2
Fore
SplineSet
212.5 35 m 128,-1,1
 136 79 136 79 95 161 c 128,-1,2
 54 243 54 243 54 353 c 256,3,4
 54 463 54 463 95 544.5 c 128,-1,5
 136 626 136 626 212.5 670 c 128,-1,6
 289 714 289 714 391 714 c 0,7,8
 457 714 457 714 515 694.5 c 128,-1,9
 573 675 573 675 618 638 c 0,10,11
 631 628 631 628 636 617 c 128,-1,12
 641 606 641 606 641 590 c 0,13,14
 641 568 641 568 629 553 c 128,-1,15
 617 538 617 538 600 538 c 0,16,17
 580 538 580 538 559 552 c 0,18,19
 516 584 516 584 479 596.5 c 128,-1,20
 442 609 442 609 397 609 c 0,21,22
 293 609 293 609 239.5 544 c 128,-1,23
 186 479 186 479 186 353 c 0,24,25
 186 226 186 226 239.5 161 c 128,-1,26
 293 96 293 96 397 96 c 0,27,28
 440 96 440 96 476.5 109 c 128,-1,29
 513 122 513 122 559 153 c 0,30,31
 569 159 569 159 579 163 c 128,-1,32
 589 167 589 167 600 167 c 0,33,34
 617 167 617 167 629 152 c 128,-1,35
 641 137 641 137 641 115 c 0,36,37
 641 100 641 100 636 88.5 c 128,-1,38
 631 77 631 77 618 67 c 0,39,40
 573 30 573 30 515 10.5 c 128,-1,41
 457 -9 457 -9 391 -9 c 0,42,0
 289 -9 289 -9 212.5 35 c 128,-1,1
EndSplineSet
EndChar

StartChar: Ccedilla
Encoding: 136 199 35
Width: 678
GlyphClass: 2
Flags: W
AnchorPoint: "Anchor-10" 391 705 basechar 0
AnchorPoint: "Anchor-8" 391 0 basechar 0
LayerCount: 2
Fore
SplineSet
629 152 m 128,-1,1
 641 137 641 137 641 115 c 0,2,3
 641 100 641 100 636 88.5 c 128,-1,4
 631 77 631 77 618 67 c 0,5,6
 533 -2 533 -2 416 -8 c 1,7,-1
 412 -42 l 1,8,9
 428 -40 428 -40 435 -40 c 0,10,11
 466 -40 466 -40 487.5 -58.5 c 128,-1,12
 509 -77 509 -77 509 -109 c 0,13,14
 509 -147 509 -147 475.5 -171 c 128,-1,15
 442 -195 442 -195 381 -195 c 0,16,17
 339 -195 339 -195 311 -185 c 0,18,19
 302 -181 302 -181 297 -174 c 128,-1,20
 292 -167 292 -167 292 -158 c 0,21,22
 292 -144 292 -144 300.5 -135.5 c 128,-1,23
 309 -127 309 -127 323 -131 c 0,24,25
 357 -139 357 -139 379 -139 c 0,26,27
 429 -139 429 -139 429 -109 c 0,28,29
 429 -99 429 -99 422 -93 c 128,-1,30
 415 -87 415 -87 402 -87 c 0,31,32
 392 -87 392 -87 376 -90.5 c 128,-1,33
 360 -94 360 -94 356 -94 c 0,34,35
 347 -94 347 -94 341.5 -88.5 c 128,-1,36
 336 -83 336 -83 337 -74 c 2,37,-1
 345 -7 l 1,38,39
 256 3 256 3 190.5 49.5 c 128,-1,40
 125 96 125 96 89.5 173.5 c 128,-1,41
 54 251 54 251 54 353 c 0,42,43
 54 463 54 463 95 544.5 c 128,-1,44
 136 626 136 626 212.5 670 c 128,-1,45
 289 714 289 714 391 714 c 0,46,47
 457 714 457 714 515 694.5 c 128,-1,48
 573 675 573 675 618 638 c 0,49,50
 631 628 631 628 636 617 c 128,-1,51
 641 606 641 606 641 590 c 0,52,53
 641 568 641 568 629 553 c 128,-1,54
 617 538 617 538 600 538 c 0,55,56
 580 538 580 538 559 552 c 0,57,58
 516 584 516 584 479 596.5 c 128,-1,59
 442 609 442 609 397 609 c 0,60,61
 293 609 293 609 239.5 544 c 128,-1,62
 186 479 186 479 186 353 c 0,63,64
 186 226 186 226 239.5 161 c 128,-1,65
 293 96 293 96 397 96 c 0,66,67
 440 96 440 96 476.5 109 c 128,-1,68
 513 122 513 122 559 153 c 0,69,70
 569 159 569 159 579 163 c 128,-1,71
 589 167 589 167 600 167 c 0,72,0
 617 167 617 167 629 152 c 128,-1,1
EndSplineSet
EndChar

StartChar: uni1E08
Encoding: 672 7688 36
Width: 678
GlyphClass: 2
Flags: W
AnchorPoint: "Anchor-10" 391 865 basechar 0
AnchorPoint: "Anchor-8" 391 0 basechar 0
LayerCount: 2
Fore
SplineSet
391 760 m 0,1,2
 378 760 378 760 369 768.5 c 128,-1,3
 360 777 360 777 360 788 c 256,4,5
 360 799 360 799 371 810 c 2,6,-1
 462 904 l 2,7,8
 481 924 481 924 505 924 c 0,9,10
 525 924 525 924 539.5 909.5 c 128,-1,11
 554 895 554 895 554 876 c 0,12,13
 554 863 554 863 545.5 851 c 128,-1,14
 537 839 537 839 520 830 c 2,15,-1
 407 764 l 2,16,0
 399 760 399 760 391 760 c 0,1,2
629 152 m 128,-1,18
 641 137 641 137 641 115 c 0,19,20
 641 100 641 100 636 88.5 c 128,-1,21
 631 77 631 77 618 67 c 0,22,23
 533 -2 533 -2 416 -8 c 1,24,-1
 412 -42 l 1,25,26
 428 -40 428 -40 435 -40 c 0,27,28
 466 -40 466 -40 487.5 -58.5 c 128,-1,29
 509 -77 509 -77 509 -109 c 0,30,31
 509 -147 509 -147 475.5 -171 c 128,-1,32
 442 -195 442 -195 381 -195 c 0,33,34
 339 -195 339 -195 311 -185 c 0,35,36
 302 -181 302 -181 297 -174 c 128,-1,37
 292 -167 292 -167 292 -158 c 0,38,39
 292 -144 292 -144 300.5 -135.5 c 128,-1,40
 309 -127 309 -127 323 -131 c 0,41,42
 357 -139 357 -139 379 -139 c 0,43,44
 429 -139 429 -139 429 -109 c 0,45,46
 429 -99 429 -99 422 -93 c 128,-1,47
 415 -87 415 -87 402 -87 c 0,48,49
 392 -87 392 -87 376 -90.5 c 128,-1,50
 360 -94 360 -94 356 -94 c 0,51,52
 347 -94 347 -94 341.5 -88.5 c 128,-1,53
 336 -83 336 -83 337 -74 c 2,54,-1
 345 -7 l 1,55,56
 256 3 256 3 190.5 49.5 c 128,-1,57
 125 96 125 96 89.5 173.5 c 128,-1,58
 54 251 54 251 54 353 c 0,59,60
 54 463 54 463 95 544.5 c 128,-1,61
 136 626 136 626 212.5 670 c 128,-1,62
 289 714 289 714 391 714 c 0,63,64
 457 714 457 714 515 694.5 c 128,-1,65
 573 675 573 675 618 638 c 0,66,67
 631 628 631 628 636 617 c 128,-1,68
 641 606 641 606 641 590 c 0,69,70
 641 568 641 568 629 553 c 128,-1,71
 617 538 617 538 600 538 c 0,72,73
 580 538 580 538 559 552 c 0,74,75
 516 584 516 584 479 596.5 c 128,-1,76
 442 609 442 609 397 609 c 0,77,78
 293 609 293 609 239.5 544 c 128,-1,79
 186 479 186 479 186 353 c 0,80,81
 186 226 186 226 239.5 161 c 128,-1,82
 293 96 293 96 397 96 c 0,83,84
 440 96 440 96 476.5 109 c 128,-1,85
 513 122 513 122 559 153 c 0,86,87
 569 159 569 159 579 163 c 128,-1,88
 589 167 589 167 600 167 c 0,89,17
 617 167 617 167 629 152 c 128,-1,18
EndSplineSet
EndChar

StartChar: D
Encoding: 38 68 39
Width: 754
GlyphClass: 2
Flags: W
AnchorPoint: "Anchor-11" 377 353 basechar 0
AnchorPoint: "Anchor-10" 377 705 basechar 0
AnchorPoint: "Anchor-8" 377 0 basechar 0
LayerCount: 2
Fore
SplineSet
92.5 16 m 128,-1,1
 76 32 76 32 76 61 c 2,2,-1
 76 644 l 2,3,4
 76 673 76 673 92.5 689 c 128,-1,5
 109 705 109 705 138 705 c 2,6,-1
 336 705 l 2,7,8
 509 705 509 705 604.5 612.5 c 128,-1,9
 700 520 700 520 700 353 c 0,10,11
 700 185 700 185 604.5 92.5 c 128,-1,12
 509 0 509 0 336 0 c 2,13,-1
 138 0 l 2,14,0
 109 0 109 0 92.5 16 c 128,-1,1
571 353 m 0,16,17
 571 600 571 600 328 600 c 2,18,-1
 205 600 l 1,19,-1
 205 105 l 1,20,-1
 328 105 l 2,21,15
 571 105 571 105 571 353 c 0,16,17
EndSplineSet
EndChar

StartChar: Eth
Encoding: 145 208 41
Width: 778
Flags: W
LayerCount: 2
Fore
SplineSet
628 612.5 m 128,-1,1
 724 520 724 520 724 353 c 0,2,3
 724 185 724 185 628.5 92.5 c 128,-1,4
 533 0 533 0 360 0 c 2,5,-1
 161 0 l 2,6,7
 133 0 133 0 116.5 16.5 c 128,-1,8
 100 33 100 33 100 61 c 2,9,-1
 100 307 l 1,10,-1
 58 307 l 2,11,12
 30 307 30 307 15 320 c 128,-1,13
 0 333 0 333 0 357 c 0,14,15
 0 380 0 380 15 393 c 128,-1,16
 30 406 30 406 58 406 c 2,17,-1
 100 406 l 1,18,-1
 100 644 l 2,19,20
 100 673 100 673 116 689 c 128,-1,21
 132 705 132 705 161 705 c 2,22,-1
 360 705 l 2,23,0
 532 705 532 705 628 612.5 c 128,-1,1
595 353 m 0,25,26
 595 600 595 600 352 600 c 2,27,-1
 228 600 l 1,28,-1
 228 406 l 1,29,-1
 371 406 l 2,30,31
 399 406 399 406 413.5 393 c 128,-1,32
 428 380 428 380 428 357 c 0,33,34
 428 333 428 333 413.5 320 c 128,-1,35
 399 307 399 307 371 307 c 2,36,-1
 228 307 l 1,37,-1
 228 105 l 1,38,-1
 352 105 l 2,39,24
 595 105 595 105 595 353 c 0,25,26
EndSplineSet
EndChar

StartChar: E
Encoding: 39 69 47
Width: 589
GlyphClass: 2
Flags: W
AnchorPoint: "Anchor-10" 328 705 basechar 0
AnchorPoint: "Anchor-9" 527 10 basechar 0
AnchorPoint: "Anchor-8" 328 0 basechar 0
LayerCount: 2
Fore
SplineSet
92.5 16 m 128,-1,1
 76 32 76 32 76 61 c 2,2,-1
 76 644 l 2,3,4
 76 673 76 673 92.5 689 c 128,-1,5
 109 705 109 705 138 705 c 2,6,-1
 499 705 l 2,7,8
 528 705 528 705 544 692 c 128,-1,9
 560 679 560 679 560 655 c 0,10,11
 560 630 560 630 544 616.5 c 128,-1,12
 528 603 528 603 499 603 c 2,13,-1
 202 603 l 1,14,-1
 202 409 l 1,15,-1
 479 409 l 2,16,17
 508 409 508 409 524 396 c 128,-1,18
 540 383 540 383 540 358 c 0,19,20
 540 334 540 334 524 321 c 128,-1,21
 508 308 508 308 479 308 c 2,22,-1
 202 308 l 1,23,-1
 202 102 l 1,24,-1
 499 102 l 2,25,26
 528 102 528 102 544 88.5 c 128,-1,27
 560 75 560 75 560 50 c 0,28,29
 560 26 560 26 544 13 c 128,-1,30
 528 0 528 0 499 0 c 2,31,-1
 138 0 l 2,32,0
 109 0 109 0 92.5 16 c 128,-1,1
EndSplineSet
EndChar

StartChar: uni0228
Encoding: 378 552 51
Width: 589
GlyphClass: 2
Flags: W
AnchorPoint: "Anchor-10" 328 705 basechar 0
AnchorPoint: "Anchor-9" 527 10 basechar 0
AnchorPoint: "Anchor-8" 328 0 basechar 0
LayerCount: 2
Fore
SplineSet
544 88.5 m 128,-1,1
 560 75 560 75 560 50 c 0,2,3
 560 26 560 26 544 13 c 128,-1,4
 528 0 528 0 499 0 c 2,5,-1
 354 0 l 1,6,-1
 349 -42 l 1,7,8
 365 -40 365 -40 372 -40 c 0,9,10
 403 -40 403 -40 424.5 -58.5 c 128,-1,11
 446 -77 446 -77 446 -109 c 0,12,13
 446 -147 446 -147 412.5 -171 c 128,-1,14
 379 -195 379 -195 318 -195 c 0,15,16
 276 -195 276 -195 248 -185 c 0,17,18
 239 -181 239 -181 234 -174 c 128,-1,19
 229 -167 229 -167 229 -158 c 0,20,21
 229 -144 229 -144 237.5 -135.5 c 128,-1,22
 246 -127 246 -127 260 -131 c 0,23,24
 294 -139 294 -139 316 -139 c 0,25,26
 366 -139 366 -139 366 -109 c 0,27,28
 366 -99 366 -99 359 -93 c 128,-1,29
 352 -87 352 -87 339 -87 c 0,30,31
 329 -87 329 -87 313 -90.5 c 128,-1,32
 297 -94 297 -94 293 -94 c 0,33,34
 284 -94 284 -94 278.5 -88.5 c 128,-1,35
 273 -83 273 -83 274 -74 c 2,36,-1
 283 0 l 1,37,-1
 138 0 l 2,38,39
 109 0 109 0 92.5 16 c 128,-1,40
 76 32 76 32 76 61 c 2,41,-1
 76 644 l 2,42,43
 76 673 76 673 92.5 689 c 128,-1,44
 109 705 109 705 138 705 c 2,45,-1
 499 705 l 2,46,47
 528 705 528 705 544 692 c 128,-1,48
 560 679 560 679 560 655 c 0,49,50
 560 630 560 630 544 616.5 c 128,-1,51
 528 603 528 603 499 603 c 2,52,-1
 202 603 l 1,53,-1
 202 409 l 1,54,-1
 479 409 l 2,55,56
 508 409 508 409 524 396 c 128,-1,57
 540 383 540 383 540 358 c 0,58,59
 540 334 540 334 524 321 c 128,-1,60
 508 308 508 308 479 308 c 2,61,-1
 202 308 l 1,62,-1
 202 102 l 1,63,-1
 499 102 l 2,64,0
 528 102 528 102 544 88.5 c 128,-1,1
EndSplineSet
EndChar

StartChar: uni1E1C
Encoding: 682 7708 52
Width: 589
GlyphClass: 2
Flags: W
AnchorPoint: "Anchor-10" 328 865 basechar 0
AnchorPoint: "Anchor-9" 527 10 basechar 0
AnchorPoint: "Anchor-8" 328 0 basechar 0
LayerCount: 2
Fore
SplineSet
229 796 m 128,-1,1
 186 817 186 817 166 854 c 0,2,3
 160 866 160 866 160 877 c 0,4,5
 160 892 160 892 170 901 c 128,-1,6
 180 910 180 910 195 910 c 0,7,8
 213 910 213 910 229 894 c 0,9,10
 263 853 263 853 328 853 c 256,11,12
 393 853 393 853 427 894 c 0,13,14
 443 910 443 910 462 910 c 0,15,16
 477 910 477 910 486.5 901 c 128,-1,17
 496 892 496 892 496 877 c 0,18,19
 496 866 496 866 490 854 c 0,20,21
 470 817 470 817 427 796 c 128,-1,22
 384 775 384 775 328 775 c 256,23,0
 272 775 272 775 229 796 c 128,-1,1
544 88.5 m 128,-1,25
 560 75 560 75 560 50 c 0,26,27
 560 26 560 26 544 13 c 128,-1,28
 528 0 528 0 499 0 c 2,29,-1
 354 0 l 1,30,-1
 349 -42 l 1,31,32
 365 -40 365 -40 372 -40 c 0,33,34
 403 -40 403 -40 424.5 -58.5 c 128,-1,35
 446 -77 446 -77 446 -109 c 0,36,37
 446 -147 446 -147 412.5 -171 c 128,-1,38
 379 -195 379 -195 318 -195 c 0,39,40
 276 -195 276 -195 248 -185 c 0,41,42
 239 -181 239 -181 234 -174 c 128,-1,43
 229 -167 229 -167 229 -158 c 0,44,45
 229 -144 229 -144 237.5 -135.5 c 128,-1,46
 246 -127 246 -127 260 -131 c 0,47,48
 294 -139 294 -139 316 -139 c 0,49,50
 366 -139 366 -139 366 -109 c 0,51,52
 366 -99 366 -99 359 -93 c 128,-1,53
 352 -87 352 -87 339 -87 c 0,54,55
 329 -87 329 -87 313 -90.5 c 128,-1,56
 297 -94 297 -94 293 -94 c 0,57,58
 284 -94 284 -94 278.5 -88.5 c 128,-1,59
 273 -83 273 -83 274 -74 c 2,60,-1
 283 0 l 1,61,-1
 138 0 l 2,62,63
 109 0 109 0 92.5 16 c 128,-1,64
 76 32 76 32 76 61 c 2,65,-1
 76 644 l 2,66,67
 76 673 76 673 92.5 689 c 128,-1,68
 109 705 109 705 138 705 c 2,69,-1
 499 705 l 2,70,71
 528 705 528 705 544 692 c 128,-1,72
 560 679 560 679 560 655 c 0,73,74
 560 630 560 630 544 616.5 c 128,-1,75
 528 603 528 603 499 603 c 2,76,-1
 202 603 l 1,77,-1
 202 409 l 1,78,-1
 479 409 l 2,79,80
 508 409 508 409 524 396 c 128,-1,81
 540 383 540 383 540 358 c 0,82,83
 540 334 540 334 524 321 c 128,-1,84
 508 308 508 308 479 308 c 2,85,-1
 202 308 l 1,86,-1
 202 102 l 1,87,-1
 499 102 l 2,88,24
 528 102 528 102 544 88.5 c 128,-1,25
EndSplineSet
EndChar

StartChar: Eogonek
Encoding: 217 280 69
Width: 589
GlyphClass: 2
Flags: W
AnchorPoint: "Anchor-10" 328 705 basechar 0
LayerCount: 2
Fore
SplineSet
565 -115 m 0,1,2
 576 -115 576 -115 583 -124 c 128,-1,3
 590 -133 590 -133 590 -145 c 0,4,5
 590 -166 590 -166 573 -174 c 0,6,7
 538 -195 538 -195 490 -195 c 0,8,9
 435 -195 435 -195 400.5 -164.5 c 128,-1,10
 366 -134 366 -134 366 -87 c 0,11,12
 366 -35 366 -35 405 0 c 1,13,-1
 138 0 l 2,14,15
 109 0 109 0 92.5 16 c 128,-1,16
 76 32 76 32 76 61 c 2,17,-1
 76 644 l 2,18,19
 76 673 76 673 92.5 689 c 128,-1,20
 109 705 109 705 138 705 c 2,21,-1
 499 705 l 2,22,23
 528 705 528 705 544 692 c 128,-1,24
 560 679 560 679 560 655 c 0,25,26
 560 630 560 630 544 616.5 c 128,-1,27
 528 603 528 603 499 603 c 2,28,-1
 202 603 l 1,29,-1
 202 409 l 1,30,-1
 479 409 l 2,31,32
 508 409 508 409 524 396 c 128,-1,33
 540 383 540 383 540 358 c 0,34,35
 540 334 540 334 524 321 c 128,-1,36
 508 308 508 308 479 308 c 2,37,-1
 202 308 l 1,38,-1
 202 102 l 1,39,-1
 499 102 l 2,40,41
 528 102 528 102 544 88.5 c 128,-1,42
 560 75 560 75 560 50 c 0,43,44
 560 29 560 29 549 17 c 128,-1,45
 538 5 538 5 514 0 c 0,46,47
 483 -5 483 -5 467 -23 c 128,-1,48
 451 -41 451 -41 451 -69 c 0,49,50
 451 -96 451 -96 466.5 -111 c 128,-1,51
 482 -126 482 -126 507 -126 c 0,52,53
 527 -126 527 -126 555 -117 c 0,54,0
 563 -115 563 -115 565 -115 c 0,1,2
EndSplineSet
EndChar

StartChar: F
Encoding: 40 70 71
Width: 566
GlyphClass: 2
Flags: W
AnchorPoint: "Anchor-10" 287 705 basechar 0
AnchorPoint: "Anchor-8" 313 0 basechar 0
LayerCount: 2
Fore
SplineSet
93.5 12 m 128,-1,1
 76 30 76 30 76 59 c 2,2,-1
 76 644 l 2,3,4
 76 673 76 673 92.5 689 c 128,-1,5
 109 705 109 705 138 705 c 2,6,-1
 489 705 l 2,7,8
 550 705 550 705 550 653 c 0,9,10
 550 602 550 602 489 602 c 2,11,-1
 203 602 l 1,12,-1
 203 410 l 1,13,-1
 469 410 l 2,14,15
 530 410 530 410 530 358 c 0,16,17
 530 307 530 307 469 307 c 2,18,-1
 203 307 l 1,19,-1
 203 59 l 2,20,21
 203 30 203 30 186 12 c 128,-1,22
 169 -6 169 -6 140 -6 c 256,23,0
 111 -6 111 -6 93.5 12 c 128,-1,1
EndSplineSet
EndChar

StartChar: G
Encoding: 41 71 72
Width: 733
GlyphClass: 2
Flags: W
AnchorPoint: "Anchor-10" 401 705 basechar 0
AnchorPoint: "Anchor-8" 408 0 basechar 0
LayerCount: 2
Fore
SplineSet
650 367.5 m 128,-1,1
 664 354 664 354 664 332 c 2,2,-1
 664 117 l 2,3,4
 664 71 664 71 652 52 c 128,-1,5
 640 33 640 33 603 21 c 0,6,7
 563 7 563 7 510 -1 c 128,-1,8
 457 -9 457 -9 408 -9 c 0,9,10
 299 -9 299 -9 219 34 c 128,-1,11
 139 77 139 77 96.5 158.5 c 128,-1,12
 54 240 54 240 54 353 c 0,13,14
 54 464 54 464 96.5 545.5 c 128,-1,15
 139 627 139 627 217 670.5 c 128,-1,16
 295 714 295 714 401 714 c 0,17,18
 542 714 542 714 632 638 c 0,19,20
 644 627 644 627 649.5 616 c 128,-1,21
 655 605 655 605 655 590 c 0,22,23
 655 568 655 568 643 553 c 128,-1,24
 631 538 631 538 614 538 c 0,25,26
 603 538 603 538 594 541.5 c 128,-1,27
 585 545 585 545 573 553 c 0,28,29
 529 584 529 584 491 596.5 c 128,-1,30
 453 609 453 609 405 609 c 0,31,32
 296 609 296 609 240.5 544.5 c 128,-1,33
 185 480 185 480 185 353 c 0,34,35
 185 93 185 93 413 93 c 0,36,37
 481 93 481 93 549 112 c 1,38,-1
 549 289 l 1,39,-1
 436 289 l 2,40,41
 412 289 412 289 398.5 301 c 128,-1,42
 385 313 385 313 385 335 c 256,43,44
 385 357 385 357 398.5 369 c 128,-1,45
 412 381 412 381 436 381 c 2,46,-1
 613 381 l 2,47,0
 636 381 636 381 650 367.5 c 128,-1,1
EndSplineSet
EndChar

StartChar: H
Encoding: 42 72 79
Width: 766
GlyphClass: 2
Flags: W
AnchorPoint: "Anchor-11" 383 358 basechar 0
AnchorPoint: "Anchor-10" 383 705 basechar 0
AnchorPoint: "Anchor-8" 383 0 basechar 0
LayerCount: 2
Fore
SplineSet
673 692.5 m 128,-1,1
 690 675 690 675 690 646 c 2,2,-1
 690 59 l 2,3,4
 690 30 690 30 672.5 12 c 128,-1,5
 655 -6 655 -6 627 -6 c 0,6,7
 598 -6 598 -6 581 12 c 128,-1,8
 564 30 564 30 564 59 c 2,9,-1
 564 306 l 1,10,-1
 203 306 l 1,11,-1
 203 59 l 2,12,13
 203 30 203 30 185.5 12 c 128,-1,14
 168 -6 168 -6 139 -6 c 0,15,16
 111 -6 111 -6 93.5 12 c 128,-1,17
 76 30 76 30 76 59 c 2,18,-1
 76 646 l 2,19,20
 76 675 76 675 93 692.5 c 128,-1,21
 110 710 110 710 139 710 c 256,22,23
 168 710 168 710 185.5 692.5 c 128,-1,24
 203 675 203 675 203 646 c 2,25,-1
 203 410 l 1,26,-1
 564 410 l 1,27,-1
 564 646 l 2,28,29
 564 675 564 675 581 692.5 c 128,-1,30
 598 710 598 710 627 710 c 256,31,0
 656 710 656 710 673 692.5 c 128,-1,1
EndSplineSet
EndChar

StartChar: Hbar
Encoding: 231 294 80
Width: 814
Flags: W
LayerCount: 2
Fore
SplineSet
799 594 m 128,-1,1
 814 581 814 581 814 559 c 256,2,3
 814 537 814 537 799 524 c 128,-1,4
 784 511 784 511 757 511 c 2,5,-1
 714 511 l 1,6,-1
 714 59 l 2,7,8
 714 28 714 28 696 11 c 128,-1,9
 678 -6 678 -6 650 -6 c 0,10,11
 623 -6 623 -6 605 11 c 128,-1,12
 587 28 587 28 587 59 c 2,13,-1
 587 306 l 1,14,-1
 226 306 l 1,15,-1
 226 59 l 2,16,17
 226 28 226 28 208 11 c 128,-1,18
 190 -6 190 -6 163 -6 c 256,19,20
 136 -6 136 -6 118 11 c 128,-1,21
 100 28 100 28 100 59 c 2,22,-1
 100 511 l 1,23,-1
 58 511 l 2,24,25
 30 511 30 511 15 524 c 128,-1,26
 0 537 0 537 0 559 c 256,27,28
 0 581 0 581 15 594 c 128,-1,29
 30 607 30 607 58 607 c 2,30,-1
 100 607 l 1,31,-1
 100 646 l 2,32,33
 100 676 100 676 118 693 c 128,-1,34
 136 710 136 710 163 710 c 256,35,36
 190 710 190 710 208 693 c 128,-1,37
 226 676 226 676 226 646 c 2,38,-1
 226 607 l 1,39,-1
 587 607 l 1,40,-1
 587 646 l 2,41,42
 587 676 587 676 605 693 c 128,-1,43
 623 710 623 710 650 710 c 0,44,45
 678 710 678 710 696 693 c 128,-1,46
 714 676 714 676 714 646 c 2,47,-1
 714 607 l 1,48,-1
 757 607 l 2,49,0
 784 607 784 607 799 594 c 128,-1,1
587 410 m 1,50,-1
 587 511 l 1,51,-1
 226 511 l 1,52,-1
 226 410 l 1,53,-1
 587 410 l 1,50,-1
EndSplineSet
EndChar

StartChar: I
Encoding: 43 73 84
Width: 281
GlyphClass: 2
Flags: W
AnchorPoint: "Anchor-10" 140 705 basechar 0
AnchorPoint: "Anchor-9" 183 10 basechar 0
AnchorPoint: "Anchor-8" 140 0 basechar 0
LayerCount: 2
Fore
SplineSet
93.5 12 m 128,-1,1
 76 30 76 30 76 59 c 2,2,-1
 76 646 l 2,3,4
 76 675 76 675 93.5 692.5 c 128,-1,5
 111 710 111 710 140 710 c 0,6,7
 170 710 170 710 187.5 692.5 c 128,-1,8
 205 675 205 675 205 646 c 2,9,-1
 205 59 l 2,10,11
 205 30 205 30 187.5 12 c 128,-1,12
 170 -6 170 -6 140 -6 c 0,13,0
 111 -6 111 -6 93.5 12 c 128,-1,1
EndSplineSet
EndChar

StartChar: Iogonek
Encoding: 239 302 97
Width: 281
Flags: W
LayerCount: 2
Fore
SplineSet
226 -115 m 0,1,2
 237 -115 237 -115 243.5 -123.5 c 128,-1,3
 250 -132 250 -132 250 -144 c 0,4,5
 250 -166 250 -166 233 -174 c 0,6,7
 198 -195 198 -195 150 -195 c 0,8,9
 95 -195 95 -195 61 -164.5 c 128,-1,10
 27 -134 27 -134 27 -85 c 0,11,12
 27 -53 27 -53 43 -26.5 c 128,-1,13
 59 0 59 0 89 18 c 1,14,15
 76 34 76 34 76 59 c 2,16,-1
 76 646 l 2,17,18
 76 675 76 675 93.5 692.5 c 128,-1,19
 111 710 111 710 140 710 c 0,20,21
 170 710 170 710 187.5 692.5 c 128,-1,22
 205 675 205 675 205 646 c 2,23,-1
 205 59 l 2,24,25
 205 39 205 39 196.5 24 c 128,-1,26
 188 9 188 9 174 4 c 0,27,28
 143 -7 143 -7 127 -26 c 128,-1,29
 111 -45 111 -45 111 -69 c 0,30,31
 111 -96 111 -96 126.5 -111 c 128,-1,32
 142 -126 142 -126 168 -126 c 0,33,34
 190 -126 190 -126 216 -117 c 0,35,0
 224 -115 224 -115 226 -115 c 0,1,2
EndSplineSet
EndChar

StartChar: J
Encoding: 44 74 99
Width: 358
GlyphClass: 2
Flags: W
AnchorPoint: "Anchor-10" 217 705 basechar 0
AnchorPoint: "Anchor-8" 217 0 basechar 0
LayerCount: 2
Fore
SplineSet
-14 47 m 0,1,2
 -14 71 -14 71 -1.5 83.5 c 128,-1,3
 11 96 11 96 38 98 c 2,4,-1
 70 100 l 2,5,6
 111 102 111 102 132 126 c 128,-1,7
 153 150 153 150 153 199 c 2,8,-1
 153 646 l 2,9,10
 153 675 153 675 170.5 692.5 c 128,-1,11
 188 710 188 710 217 710 c 0,12,13
 247 710 247 710 264.5 692.5 c 128,-1,14
 282 675 282 675 282 646 c 2,15,-1
 282 199 l 2,16,17
 282 10 282 10 95 -4 c 2,18,-1
 63 -6 l 2,19,0
 -14 -9 -14 -9 -14 47 c 0,1,2
EndSplineSet
EndChar

StartChar: K
Encoding: 45 75 101
Width: 660
GlyphClass: 2
Flags: W
AnchorPoint: "Anchor-10" 331 705 basechar 0
AnchorPoint: "Anchor-8" 332 0 basechar 0
LayerCount: 2
Fore
SplineSet
643 54 m 0,1,2
 643 31 643 31 625.5 13.5 c 128,-1,3
 608 -4 608 -4 584 -4 c 0,4,5
 559 -4 559 -4 538 17 c 2,6,-1
 205 329 l 1,7,-1
 205 59 l 2,8,9
 205 30 205 30 187.5 12 c 128,-1,10
 170 -6 170 -6 140 -6 c 0,11,12
 111 -6 111 -6 93.5 12 c 128,-1,13
 76 30 76 30 76 59 c 2,14,-1
 76 646 l 2,15,16
 76 675 76 675 93.5 692.5 c 128,-1,17
 111 710 111 710 140 710 c 0,18,19
 170 710 170 710 187.5 692.5 c 128,-1,20
 205 675 205 675 205 646 c 2,21,-1
 205 389 l 1,22,-1
 527 691 l 2,23,24
 545 709 545 709 568 709 c 256,25,26
 591 709 591 709 608.5 691.5 c 128,-1,27
 626 674 626 674 626 651 c 256,28,29
 626 628 626 628 606 609 c 2,30,-1
 337 363 l 1,31,-1
 623 97 l 2,32,0
 643 78 643 78 643 54 c 0,1,2
EndSplineSet
EndChar

StartChar: L
Encoding: 46 76 103
Width: 555
GlyphClass: 2
Flags: W
AnchorPoint: "Anchor-12" 295 705 basechar 0
AnchorPoint: "Anchor-11" 376 353 basechar 0
AnchorPoint: "Anchor-10" 140 705 basechar 0
AnchorPoint: "Anchor-8" 311 0 basechar 0
LayerCount: 2
Fore
SplineSet
92 16 m 128,-1,1
 76 32 76 32 76 60 c 2,2,-1
 76 646 l 2,3,4
 76 675 76 675 93.5 692.5 c 128,-1,5
 111 710 111 710 140 710 c 0,6,7
 170 710 170 710 187.5 692.5 c 128,-1,8
 205 675 205 675 205 646 c 2,9,-1
 205 106 l 1,10,-1
 486 106 l 2,11,12
 546 106 546 106 546 53 c 256,13,14
 546 0 546 0 486 0 c 2,15,-1
 137 0 l 2,16,0
 108 0 108 0 92 16 c 128,-1,1
EndSplineSet
EndChar

StartChar: uni01C7
Encoding: 327 455 104
Width: 914
Flags: W
LayerCount: 2
Fore
SplineSet
92 16 m 128,-1,1
 76 32 76 32 76 60 c 2,2,-1
 76 646 l 2,3,4
 76 675 76 675 93.5 692.5 c 128,-1,5
 111 710 111 710 140 710 c 0,6,7
 170 710 170 710 187.5 692.5 c 128,-1,8
 205 675 205 675 205 646 c 2,9,-1
 205 106 l 1,10,-1
 456 106 l 2,11,12
 516 106 516 106 516 53 c 256,13,14
 516 0 516 0 456 0 c 2,15,-1
 137 0 l 2,16,0
 108 0 108 0 92 16 c 128,-1,1
562 5.5 m 128,-1,18
 542 19 542 19 542 47 c 0,19,20
 542 71 542 71 554.5 83.5 c 128,-1,21
 567 96 567 96 594 98 c 2,22,-1
 626 100 l 2,23,24
 668 102 668 102 688.5 126 c 128,-1,25
 709 150 709 150 709 199 c 2,26,-1
 709 646 l 2,27,28
 709 675 709 675 726.5 692.5 c 128,-1,29
 744 710 744 710 773 710 c 0,30,31
 803 710 803 710 820.5 692.5 c 128,-1,32
 838 675 838 675 838 646 c 2,33,-1
 838 199 l 2,34,35
 838 8 838 8 651 -4 c 2,36,-1
 619 -6 l 2,37,17
 582 -8 582 -8 562 5.5 c 128,-1,18
EndSplineSet
EndChar

StartChar: Lslash
Encoding: 256 321 112
Width: 578
Flags: W
LayerCount: 2
Fore
SplineSet
569 53 m 256,1,2
 569 0 569 0 509 0 c 2,3,-1
 161 0 l 2,4,5
 132 0 132 0 116 16 c 128,-1,6
 100 32 100 32 100 60 c 2,7,-1
 100 263 l 1,8,-1
 77 250 l 2,9,10
 62 241 62 241 47 241 c 0,11,12
 27 241 27 241 13.5 255.5 c 128,-1,13
 0 270 0 270 0 289 c 0,14,15
 0 319 0 319 29 334 c 2,16,-1
 100 375 l 1,17,-1
 100 646 l 2,18,19
 100 675 100 675 117.5 692.5 c 128,-1,20
 135 710 135 710 164 710 c 0,21,22
 194 710 194 710 211 692.5 c 128,-1,23
 228 675 228 675 228 646 c 2,24,-1
 228 449 l 1,25,-1
 345 516 l 2,26,27
 360 525 360 525 375 525 c 0,28,29
 395 525 395 525 408.5 510.5 c 128,-1,30
 422 496 422 496 422 477 c 0,31,32
 422 450 422 450 394 433 c 2,33,-1
 228 337 l 1,34,-1
 228 106 l 1,35,-1
 509 106 l 2,36,0
 569 106 569 106 569 53 c 256,1,2
EndSplineSet
EndChar

StartChar: M
Encoding: 47 77 113
Width: 841
GlyphClass: 2
Flags: W
AnchorPoint: "Anchor-10" 421 705 basechar 0
AnchorPoint: "Anchor-8" 421 0 basechar 0
LayerCount: 2
Fore
SplineSet
747 692.5 m 128,-1,1
 764 675 764 675 764 646 c 2,2,-1
 764 54 l 2,3,4
 764 26 764 26 748 10 c 128,-1,5
 732 -6 732 -6 706 -6 c 256,6,7
 680 -6 680 -6 665 10 c 128,-1,8
 650 26 650 26 650 54 c 2,9,-1
 650 466 l 1,10,-1
 480 144 l 2,11,12
 468 122 468 122 454 111.5 c 128,-1,13
 440 101 440 101 421 101 c 256,14,15
 402 101 402 101 388 111 c 128,-1,16
 374 121 374 121 362 144 c 2,17,-1
 191 461 l 1,18,-1
 191 54 l 2,19,20
 191 27 191 27 175.5 10.5 c 128,-1,21
 160 -6 160 -6 134 -6 c 256,22,23
 108 -6 108 -6 93 10 c 128,-1,24
 78 26 78 26 78 54 c 2,25,-1
 78 646 l 2,26,27
 78 675 78 675 94.5 692.5 c 128,-1,28
 111 710 111 710 139 710 c 0,29,30
 178 710 178 710 200 667 c 2,31,-1
 422 244 l 1,32,-1
 643 667 l 2,33,34
 665 710 665 710 702 710 c 0,35,0
 730 710 730 710 747 692.5 c 128,-1,1
EndSplineSet
EndChar

StartChar: N
Encoding: 48 78 115
Width: 747
GlyphClass: 2
Flags: W
AnchorPoint: "Anchor-10" 373 705 basechar 0
AnchorPoint: "Anchor-8" 374 0 basechar 0
LayerCount: 2
Fore
SplineSet
654.5 692.5 m 128,-1,1
 671 675 671 675 671 646 c 2,2,-1
 671 59 l 2,3,4
 671 30 671 30 654 12 c 128,-1,5
 637 -6 637 -6 610 -6 c 0,6,7
 578 -6 578 -6 561 17 c 2,8,-1
 196 492 l 1,9,-1
 196 59 l 2,10,11
 196 30 196 30 180 12 c 128,-1,12
 164 -6 164 -6 136 -6 c 256,13,14
 108 -6 108 -6 92 12 c 128,-1,15
 76 30 76 30 76 59 c 2,16,-1
 76 646 l 2,17,18
 76 675 76 675 93 692.5 c 128,-1,19
 110 710 110 710 138 710 c 0,20,21
 169 710 169 710 186 687 c 2,22,-1
 550 214 l 1,23,-1
 550 646 l 2,24,25
 550 675 550 675 566.5 692.5 c 128,-1,26
 583 710 583 710 610 710 c 0,27,0
 638 710 638 710 654.5 692.5 c 128,-1,1
EndSplineSet
EndChar

StartChar: Eng
Encoding: 265 330 122
Width: 747
Flags: W
LayerCount: 2
Fore
SplineSet
654.5 692.5 m 128,-1,1
 671 675 671 675 671 646 c 2,2,-1
 671 21 l 2,3,4
 671 -170 671 -170 484 -182 c 2,5,-1
 452 -184 l 2,6,7
 416 -187 416 -187 395.5 -174 c 128,-1,8
 375 -161 375 -161 375 -135 c 0,9,10
 375 -90 375 -90 427 -86 c 2,11,-1
 459 -84 l 2,12,13
 503 -82 503 -82 526.5 -57 c 128,-1,14
 550 -32 550 -32 550 15 c 2,15,-1
 550 32 l 1,16,-1
 196 492 l 1,17,-1
 196 59 l 2,18,19
 196 30 196 30 179.5 12 c 128,-1,20
 163 -6 163 -6 136 -6 c 0,21,22
 108 -6 108 -6 92 12 c 128,-1,23
 76 30 76 30 76 59 c 2,24,-1
 76 646 l 2,25,26
 76 675 76 675 93 692.5 c 128,-1,27
 110 710 110 710 138 710 c 0,28,29
 169 710 169 710 186 687 c 2,30,-1
 550 214 l 1,31,-1
 550 646 l 2,32,33
 550 675 550 675 566.5 692.5 c 128,-1,34
 583 710 583 710 610 710 c 0,35,0
 638 710 638 710 654.5 692.5 c 128,-1,1
EndSplineSet
EndChar

StartChar: O
Encoding: 49 79 126
Width: 779
GlyphClass: 2
Flags: W
AnchorPoint: "topright" 680 780 basechar 0
AnchorPoint: "Anchor-12" 420 705 basechar 0
AnchorPoint: "Anchor-11" 390 353 basechar 0
AnchorPoint: "Anchor-10" 389 705 basechar 0
AnchorPoint: "Anchor-9" 504 10 basechar 0
AnchorPoint: "Anchor-8" 390 0 basechar 0
LayerCount: 2
Fore
SplineSet
211.5 35 m 128,-1,1
 136 79 136 79 95 161 c 128,-1,2
 54 243 54 243 54 353 c 256,3,4
 54 463 54 463 94.5 544.5 c 128,-1,5
 135 626 135 626 211 670 c 128,-1,6
 287 714 287 714 390 714 c 256,7,8
 493 714 493 714 568.5 670 c 128,-1,9
 644 626 644 626 684.5 544.5 c 128,-1,10
 725 463 725 463 725 353 c 256,11,12
 725 243 725 243 684 161 c 128,-1,13
 643 79 643 79 567.5 35 c 128,-1,14
 492 -9 492 -9 390 -9 c 0,15,0
 287 -9 287 -9 211.5 35 c 128,-1,1
541.5 161 m 128,-1,17
 596 228 596 228 596 353 c 256,18,19
 596 478 596 478 541.5 544.5 c 128,-1,20
 487 611 487 611 390 611 c 0,21,22
 292 611 292 611 237.5 544.5 c 128,-1,23
 183 478 183 478 183 353 c 256,24,25
 183 228 183 228 237.5 161 c 128,-1,26
 292 94 292 94 390 94 c 0,27,16
 487 94 487 94 541.5 161 c 128,-1,17
EndSplineSet
Substitution2: "Single Substitution lookup 33 subtable" ordmasculine
Substitution2: "'aalt' Access All Alternates lookup 0 subtable" ordmasculine
EndChar

StartChar: Ohorn
Encoding: 320 416 142
Width: 779
GlyphClass: 2
Flags: W
AnchorPoint: "Anchor-10" 389 705 basechar 0
AnchorPoint: "Anchor-8" 390 0 basechar 0
LayerCount: 2
Fore
SplineSet
694 522.5 m 128,-1,1
 725 449 725 449 725 353 c 0,2,3
 725 243 725 243 684 161 c 128,-1,4
 643 79 643 79 567.5 35 c 128,-1,5
 492 -9 492 -9 390 -9 c 0,6,7
 287 -9 287 -9 211.5 35 c 128,-1,8
 136 79 136 79 95 161 c 128,-1,9
 54 243 54 243 54 353 c 256,10,11
 54 463 54 463 94.5 544.5 c 128,-1,12
 135 626 135 626 211.5 670 c 128,-1,13
 288 714 288 714 392 714 c 0,14,15
 422 714 422 714 459 709 c 0,16,17
 499 705 499 705 521 705 c 0,18,19
 570 705 570 705 590 723 c 128,-1,20
 610 741 610 741 613 788 c 0,21,22
 617 855 617 855 673 855 c 0,23,24
 725 855 725 855 725 789 c 0,25,26
 725 734 725 734 692 693.5 c 128,-1,27
 659 653 659 653 604 643 c 1,28,0
 663 596 663 596 694 522.5 c 128,-1,1
541.5 161 m 128,-1,30
 596 228 596 228 596 353 c 256,31,32
 596 478 596 478 541.5 544.5 c 128,-1,33
 487 611 487 611 390 611 c 0,34,35
 292 611 292 611 237.5 544.5 c 128,-1,36
 183 478 183 478 183 353 c 256,37,38
 183 228 183 228 237.5 161 c 128,-1,39
 292 94 292 94 390 94 c 0,40,29
 487 94 487 94 541.5 161 c 128,-1,30
EndSplineSet
EndChar

StartChar: uni01EA
Encoding: 339 490 153
Width: 779
GlyphClass: 2
Flags: W
AnchorPoint: "Anchor-10" 389 705 basechar 0
LayerCount: 2
Fore
SplineSet
428 -69 m 0,1,2
 428 -95 428 -95 443 -110.5 c 128,-1,3
 458 -126 458 -126 484 -126 c 0,4,5
 504 -126 504 -126 532 -117 c 0,6,7
 540 -115 540 -115 542 -115 c 0,8,9
 553 -115 553 -115 560 -123.5 c 128,-1,10
 567 -132 567 -132 567 -144 c 0,11,12
 567 -164 567 -164 550 -174 c 0,13,14
 513 -195 513 -195 467 -195 c 0,15,16
 412 -195 412 -195 377.5 -164.5 c 128,-1,17
 343 -134 343 -134 343 -87 c 0,18,19
 343 -42 343 -42 374 -8 c 1,20,21
 276 -5 276 -5 204 39.5 c 128,-1,22
 132 84 132 84 93 164.5 c 128,-1,23
 54 245 54 245 54 353 c 0,24,25
 54 463 54 463 94.5 544.5 c 128,-1,26
 135 626 135 626 211 670 c 128,-1,27
 287 714 287 714 390 714 c 256,28,29
 493 714 493 714 568.5 670 c 128,-1,30
 644 626 644 626 684.5 544.5 c 128,-1,31
 725 463 725 463 725 353 c 0,32,33
 725 218 725 218 665 127.5 c 128,-1,34
 605 37 605 37 496 5 c 0,35,0
 428 -14 428 -14 428 -69 c 0,1,2
541.5 161 m 128,-1,37
 596 228 596 228 596 353 c 256,38,39
 596 478 596 478 541.5 544.5 c 128,-1,40
 487 611 487 611 390 611 c 0,41,42
 292 611 292 611 237.5 544.5 c 128,-1,43
 183 478 183 478 183 353 c 256,44,45
 183 228 183 228 237.5 161 c 128,-1,46
 292 94 292 94 390 94 c 0,47,36
 487 94 487 94 541.5 161 c 128,-1,37
EndSplineSet
EndChar

StartChar: Oslash
Encoding: 153 216 154
Width: 779
GlyphClass: 2
Flags: W
AnchorPoint: "Anchor-10" 389 705 basechar 0
AnchorPoint: "Anchor-8" 390 0 basechar 0
LayerCount: 2
Fore
SplineSet
696 518.5 m 128,-1,1
 725 446 725 446 725 353 c 0,2,3
 725 243 725 243 684 161 c 128,-1,4
 643 79 643 79 567.5 35 c 128,-1,5
 492 -9 492 -9 390 -9 c 0,6,7
 313 -9 313 -9 250 17 c 1,8,-1
 230 -17 l 2,9,10
 221 -33 221 -33 208 -41 c 128,-1,11
 195 -49 195 -49 181 -49 c 0,12,13
 162 -49 162 -49 149 -36 c 128,-1,14
 136 -23 136 -23 136 -3 c 0,15,16
 136 14 136 14 146 31 c 2,17,-1
 167 67 l 1,18,19
 112 115 112 115 83 187.5 c 128,-1,20
 54 260 54 260 54 353 c 0,21,22
 54 463 54 463 94.5 544.5 c 128,-1,23
 135 626 135 626 211 670 c 128,-1,24
 287 714 287 714 390 714 c 0,25,26
 465 714 465 714 529 689 c 1,27,-1
 549 723 l 2,28,29
 568 755 568 755 597 755 c 0,30,31
 616 755 616 755 629.5 742 c 128,-1,32
 643 729 643 729 643 708 c 0,33,34
 643 691 643 691 633 674 c 2,35,-1
 612 639 l 1,36,0
 667 591 667 591 696 518.5 c 128,-1,1
229 173 m 1,38,-1
 475 595 l 1,39,40
 439 611 439 611 390 611 c 0,41,42
 292 611 292 611 237.5 544.5 c 128,-1,43
 183 478 183 478 183 353 c 0,44,37
 183 239 183 239 229 173 c 1,38,-1
541.5 161 m 128,-1,46
 596 228 596 228 596 353 c 0,47,48
 596 466 596 466 551 533 c 1,49,-1
 304 110 l 1,50,51
 340 94 340 94 390 94 c 0,52,45
 487 94 487 94 541.5 161 c 128,-1,46
EndSplineSet
EndChar

StartChar: OE
Encoding: 273 338 160
Width: 1045
GlyphClass: 2
Flags: W
AnchorPoint: "Anchor-10" 530 705 basechar 0
AnchorPoint: "Anchor-8" 530 0 basechar 0
LayerCount: 2
Fore
SplineSet
149.5 92.5 m 128,-1,1
 54 185 54 185 54 353 c 0,2,3
 54 520 54 520 149.5 612.5 c 128,-1,4
 245 705 245 705 418 705 c 2,5,-1
 956 705 l 2,6,7
 985 705 985 705 1000 692 c 128,-1,8
 1015 679 1015 679 1015 655 c 0,9,10
 1015 630 1015 630 999.5 616.5 c 128,-1,11
 984 603 984 603 955 603 c 2,12,-1
 656 603 l 1,13,-1
 656 409 l 1,14,-1
 935 409 l 2,15,16
 964 409 964 409 979.5 396 c 128,-1,17
 995 383 995 383 995 358 c 0,18,19
 995 334 995 334 979.5 321 c 128,-1,20
 964 308 964 308 935 308 c 2,21,-1
 656 308 l 1,22,-1
 656 102 l 1,23,-1
 955 102 l 2,24,25
 984 102 984 102 999.5 88.5 c 128,-1,26
 1015 75 1015 75 1015 50 c 0,27,28
 1015 26 1015 26 1000 13 c 128,-1,29
 985 0 985 0 956 0 c 2,30,-1
 418 0 l 2,31,0
 245 0 245 0 149.5 92.5 c 128,-1,1
531 603 m 1,32,-1
 426 603 l 2,33,34
 304 603 304 603 243.5 540 c 128,-1,35
 183 477 183 477 183 353 c 0,36,37
 183 102 183 102 426 102 c 2,38,-1
 531 102 l 1,39,-1
 531 603 l 1,32,-1
EndSplineSet
EndChar

StartChar: P
Encoding: 50 80 161
Width: 660
GlyphClass: 2
Flags: W
AnchorPoint: "Anchor-10" 331 705 basechar 0
AnchorPoint: "Anchor-8" 332 0 basechar 0
LayerCount: 2
Fore
SplineSet
93.5 11.5 m 128,-1,1
 76 29 76 29 76 59 c 2,2,-1
 76 644 l 2,3,4
 76 673 76 673 92.5 689 c 128,-1,5
 109 705 109 705 138 705 c 2,6,-1
 384 705 l 2,7,8
 497 705 497 705 560 648.5 c 128,-1,9
 623 592 623 592 623 490 c 256,10,11
 623 388 623 388 560 331 c 128,-1,12
 497 274 497 274 384 274 c 2,13,-1
 205 274 l 1,14,-1
 205 59 l 2,15,16
 205 29 205 29 187.5 11.5 c 128,-1,17
 170 -6 170 -6 140 -6 c 0,18,0
 111 -6 111 -6 93.5 11.5 c 128,-1,1
501 489 m 256,20,21
 501 605 501 605 368 605 c 2,22,-1
 205 605 l 1,23,-1
 205 373 l 1,24,-1
 368 373 l 2,25,19
 501 373 501 373 501 489 c 256,20,21
EndSplineSet
EndChar

StartChar: Thorn
Encoding: 159 222 162
Width: 660
GlyphClass: 2
Flags: W
AnchorPoint: "Anchor-10" 331 705 basechar 0
AnchorPoint: "Anchor-8" 332 0 basechar 0
LayerCount: 2
Fore
SplineSet
561 505.5 m 128,-1,1
 623 453 623 453 623 359 c 0,2,3
 623 264 623 264 560.5 211 c 128,-1,4
 498 158 498 158 387 158 c 2,5,-1
 203 158 l 1,6,-1
 203 59 l 2,7,8
 203 30 203 30 185.5 12 c 128,-1,9
 168 -6 168 -6 139 -6 c 256,10,11
 110 -6 110 -6 93 11.5 c 128,-1,12
 76 29 76 29 76 59 c 2,13,-1
 76 646 l 2,14,15
 76 675 76 675 93 692.5 c 128,-1,16
 110 710 110 710 139 710 c 256,17,18
 168 710 168 710 185.5 692.5 c 128,-1,19
 203 675 203 675 203 646 c 2,20,-1
 203 558 l 1,21,-1
 387 558 l 2,22,0
 499 558 499 558 561 505.5 c 128,-1,1
468.5 282.5 m 128,-1,24
 501 307 501 307 501 359 c 0,25,26
 501 410 501 410 468.5 434 c 128,-1,27
 436 458 436 458 368 458 c 2,28,-1
 203 458 l 1,29,-1
 203 258 l 1,30,-1
 368 258 l 2,31,23
 436 258 436 258 468.5 282.5 c 128,-1,24
EndSplineSet
EndChar

StartChar: Q
Encoding: 51 81 163
Width: 779
GlyphClass: 2
Flags: W
AnchorPoint: "Anchor-10" 389 705 basechar 0
AnchorPoint: "Anchor-8" 390 0 basechar 0
LayerCount: 2
Fore
SplineSet
653 -98 m 2,0,1
 664 -116 664 -116 664 -133 c 0,2,3
 664 -156 664 -156 646 -170.5 c 128,-1,4
 628 -185 628 -185 604 -185 c 0,5,6
 586 -185 586 -185 570 -176.5 c 128,-1,7
 554 -168 554 -168 544 -151 c 2,8,-1
 485 -54 l 2,9,10
 471 -31 471 -31 448.5 -20 c 128,-1,11
 426 -9 426 -9 390 -9 c 0,12,13
 287 -9 287 -9 211.5 35 c 128,-1,14
 136 79 136 79 95 161 c 128,-1,15
 54 243 54 243 54 353 c 256,16,17
 54 463 54 463 95 544.5 c 128,-1,18
 136 626 136 626 211.5 670 c 128,-1,19
 287 714 287 714 390 714 c 0,20,21
 492 714 492 714 567.5 670 c 128,-1,22
 643 626 643 626 684 544.5 c 128,-1,23
 725 463 725 463 725 353 c 0,24,25
 725 234 725 234 677.5 148.5 c 128,-1,26
 630 63 630 63 542 24 c 1,27,28
 588 8 588 8 618 -42 c 2,29,-1
 653 -98 l 2,0,1
541.5 161 m 128,-1,31
 596 228 596 228 596 353 c 256,32,33
 596 478 596 478 541.5 544.5 c 128,-1,34
 487 611 487 611 390 611 c 0,35,36
 292 611 292 611 237.5 544.5 c 128,-1,37
 183 478 183 478 183 353 c 256,38,39
 183 228 183 228 237.5 161 c 128,-1,40
 292 94 292 94 390 94 c 0,41,30
 487 94 487 94 541.5 161 c 128,-1,31
EndSplineSet
EndChar

StartChar: R
Encoding: 52 82 164
Width: 695
GlyphClass: 2
Flags: W
AnchorPoint: "Anchor-10" 348 705 basechar 0
AnchorPoint: "Anchor-8" 349 0 basechar 0
LayerCount: 2
Fore
SplineSet
652 46 m 0,1,2
 652 23 652 23 633.5 8 c 128,-1,3
 615 -7 615 -7 590 -7 c 0,4,5
 574 -7 574 -7 559.5 0.5 c 128,-1,6
 545 8 545 8 535 23 c 2,7,-1
 402 225 l 2,8,9
 382 257 382 257 359.5 270 c 128,-1,10
 337 283 337 283 301 283 c 2,11,-1
 203 283 l 1,12,-1
 203 59 l 2,13,14
 203 29 203 29 186 11.5 c 128,-1,15
 169 -6 169 -6 140 -6 c 256,16,17
 111 -6 111 -6 93.5 11.5 c 128,-1,18
 76 29 76 29 76 59 c 2,19,-1
 76 644 l 2,20,21
 76 673 76 673 92.5 689 c 128,-1,22
 109 705 109 705 138 705 c 2,23,-1
 388 705 l 2,24,25
 508 705 508 705 570.5 651.5 c 128,-1,26
 633 598 633 598 633 497 c 0,27,28
 633 415 633 415 586.5 362.5 c 128,-1,29
 540 310 540 310 455 295 c 1,30,31
 484 288 484 288 506 270 c 128,-1,32
 528 252 528 252 549 220 c 2,33,-1
 640 81 l 2,34,0
 652 63 652 63 652 46 c 0,1,2
477 409.5 m 128,-1,36
 511 437 511 437 511 494 c 0,37,38
 511 552 511 552 477 578.5 c 128,-1,39
 443 605 443 605 370 605 c 2,40,-1
 202 605 l 1,41,-1
 202 382 l 1,42,-1
 370 382 l 2,43,35
 443 382 443 382 477 409.5 c 128,-1,36
EndSplineSet
EndChar

StartChar: S
Encoding: 53 83 172
Width: 638
GlyphClass: 2
Flags: W
AnchorPoint: "Anchor-10" 321 705 basechar 0
AnchorPoint: "Anchor-8" 320 0 basechar 0
LayerCount: 2
Fore
SplineSet
174.5 11.5 m 128,-1,1
 106 32 106 32 63 67 c 0,2,3
 40 84 40 84 40 115 c 0,4,5
 40 136 40 136 52.5 151.5 c 128,-1,6
 65 167 65 167 82 167 c 0,7,8
 100 167 100 167 123 153 c 0,9,10
 166 122 166 122 213 108 c 128,-1,11
 260 94 260 94 317 94 c 0,12,13
 390 94 390 94 429 119.5 c 128,-1,14
 468 145 468 145 468 194 c 0,15,16
 468 232 468 232 431.5 252.5 c 128,-1,17
 395 273 395 273 310 292 c 0,18,19
 222 311 222 311 167 336 c 128,-1,20
 112 361 112 361 84 400 c 128,-1,21
 56 439 56 439 56 499 c 0,22,23
 56 561 56 561 91 610 c 128,-1,24
 126 659 126 659 188.5 686.5 c 128,-1,25
 251 714 251 714 329 714 c 0,26,27
 472 714 472 714 562 638 c 0,28,29
 575 627 575 627 580.5 616.5 c 128,-1,30
 586 606 586 606 586 590 c 0,31,32
 586 569 586 569 573.5 553.5 c 128,-1,33
 561 538 561 538 544 538 c 0,34,35
 534 538 534 538 525.5 541 c 128,-1,36
 517 544 517 544 503 552 c 0,37,38
 462 582 462 582 423.5 596.5 c 128,-1,39
 385 611 385 611 329 611 c 0,40,41
 261 611 261 611 221.5 583.5 c 128,-1,42
 182 556 182 556 182 507 c 0,43,44
 182 466 182 466 217 444 c 128,-1,45
 252 422 252 422 336 403 c 0,46,47
 425 383 425 383 480.5 358.5 c 128,-1,48
 536 334 536 334 565.5 296 c 128,-1,49
 595 258 595 258 595 201 c 0,50,51
 595 139 595 139 560.5 91.5 c 128,-1,52
 526 44 526 44 463.5 17.5 c 128,-1,53
 401 -9 401 -9 320 -9 c 0,54,0
 243 -9 243 -9 174.5 11.5 c 128,-1,1
EndSplineSet
EndChar

StartChar: Scedilla
Encoding: 285 350 177
Width: 638
GlyphClass: 2
Flags: W
AnchorPoint: "Anchor-10" 321 705 basechar 0
AnchorPoint: "Anchor-8" 320 0 basechar 0
LayerCount: 2
Fore
SplineSet
564 96 m 128,-1,1
 533 50 533 50 476 23 c 128,-1,2
 419 -4 419 -4 344 -8 c 1,3,-1
 340 -42 l 1,4,5
 356 -40 356 -40 363 -40 c 0,6,7
 394 -40 394 -40 415.5 -58.5 c 128,-1,8
 437 -77 437 -77 437 -109 c 0,9,10
 437 -147 437 -147 403.5 -171 c 128,-1,11
 370 -195 370 -195 309 -195 c 0,12,13
 267 -195 267 -195 239 -185 c 0,14,15
 230 -181 230 -181 225 -174 c 128,-1,16
 220 -167 220 -167 220 -158 c 0,17,18
 220 -144 220 -144 228.5 -135.5 c 128,-1,19
 237 -127 237 -127 251 -131 c 0,20,21
 285 -139 285 -139 307 -139 c 0,22,23
 357 -139 357 -139 357 -109 c 0,24,25
 357 -99 357 -99 350 -93 c 128,-1,26
 343 -87 343 -87 330 -87 c 0,27,28
 320 -87 320 -87 304 -90.5 c 128,-1,29
 288 -94 288 -94 284 -94 c 0,30,31
 275 -94 275 -94 269.5 -88.5 c 128,-1,32
 264 -83 264 -83 265 -74 c 2,33,-1
 273 -7 l 1,34,35
 209 -2 209 -2 154 17.5 c 128,-1,36
 99 37 99 37 63 67 c 0,37,38
 40 84 40 84 40 115 c 0,39,40
 40 136 40 136 52.5 151.5 c 128,-1,41
 65 167 65 167 82 167 c 0,42,43
 100 167 100 167 123 153 c 0,44,45
 166 122 166 122 213 108 c 128,-1,46
 260 94 260 94 317 94 c 0,47,48
 390 94 390 94 429 119.5 c 128,-1,49
 468 145 468 145 468 194 c 0,50,51
 468 232 468 232 431.5 252.5 c 128,-1,52
 395 273 395 273 310 292 c 0,53,54
 222 311 222 311 167 336 c 128,-1,55
 112 361 112 361 84 400 c 128,-1,56
 56 439 56 439 56 499 c 0,57,58
 56 561 56 561 91 610 c 128,-1,59
 126 659 126 659 188.5 686.5 c 128,-1,60
 251 714 251 714 329 714 c 0,61,62
 472 714 472 714 562 638 c 0,63,64
 575 627 575 627 580.5 616.5 c 128,-1,65
 586 606 586 606 586 590 c 0,66,67
 586 569 586 569 573.5 553.5 c 128,-1,68
 561 538 561 538 544 538 c 0,69,70
 534 538 534 538 525.5 541 c 128,-1,71
 517 544 517 544 503 552 c 0,72,73
 462 582 462 582 423.5 596.5 c 128,-1,74
 385 611 385 611 329 611 c 0,75,76
 261 611 261 611 221.5 583.5 c 128,-1,77
 182 556 182 556 182 507 c 0,78,79
 182 466 182 466 217 444 c 128,-1,80
 252 422 252 422 336 403 c 0,81,82
 425 383 425 383 480.5 358.5 c 128,-1,83
 536 334 536 334 565.5 296 c 128,-1,84
 595 258 595 258 595 201 c 0,85,0
 595 142 595 142 564 96 c 128,-1,1
EndSplineSet
Substitution2: "'locl' Localized Forms in Latin lookup 8 subtable" uni0218
Substitution2: "'locl' Localized Forms in Latin lookup 7 subtable" uni0218
Substitution2: "'aalt' Access All Alternates lookup 0 subtable" uni0218
EndChar

StartChar: uni1E9E
Encoding: 745 7838 183
Width: 702
Flags: W
LayerCount: 2
Fore
SplineSet
618.5 308 m 128,-1,1
 657 263 657 263 657 196 c 0,2,3
 657 138 657 138 628.5 92 c 128,-1,4
 600 46 600 46 550 20 c 128,-1,5
 500 -6 500 -6 436 -6 c 0,6,7
 343 -6 343 -6 281 37 c 0,8,9
 249 58 249 58 249 89 c 0,10,11
 249 110 249 110 260 124 c 128,-1,12
 271 138 271 138 287 138 c 0,13,14
 296 138 296 138 304.5 135 c 128,-1,15
 313 132 313 132 328 124 c 0,16,17
 356 108 356 108 378.5 100 c 128,-1,18
 401 92 401 92 427 92 c 0,19,20
 477 92 477 92 505.5 120.5 c 128,-1,21
 534 149 534 149 534 200 c 0,22,23
 534 254 534 254 499 280 c 128,-1,24
 464 306 464 306 388 306 c 2,25,-1
 318 306 l 2,26,27
 293 306 293 306 279.5 321 c 128,-1,28
 266 336 266 336 266 357 c 256,29,30
 266 378 266 378 279.5 393 c 128,-1,31
 293 408 293 408 318 408 c 2,32,-1
 365 408 l 2,33,34
 423 408 423 408 454 434 c 128,-1,35
 485 460 485 460 485 508 c 256,36,37
 485 556 485 556 451.5 583 c 128,-1,38
 418 610 418 610 359 610 c 0,39,40
 282 610 282 610 242.5 569 c 128,-1,41
 203 528 203 528 203 447 c 2,42,-1
 203 57 l 2,43,44
 203 28 203 28 185.5 10.5 c 128,-1,45
 168 -7 168 -7 139 -7 c 256,46,47
 110 -7 110 -7 93 10.5 c 128,-1,48
 76 28 76 28 76 57 c 2,49,-1
 76 447 l 2,50,51
 76 575 76 575 150 643.5 c 128,-1,52
 224 712 224 712 362 712 c 0,53,54
 474 712 474 712 540 659.5 c 128,-1,55
 606 607 606 607 606 518 c 0,56,57
 606 466 606 466 580.5 426.5 c 128,-1,58
 555 387 555 387 510 367 c 1,59,0
 580 353 580 353 618.5 308 c 128,-1,1
EndSplineSet
EndChar

StartChar: uni018F
Encoding: 318 399 184
Width: 758
GlyphClass: 2
Flags: W
AnchorPoint: "Anchor-10" 379 705 basechar 0
AnchorPoint: "Anchor-8" 379 0 basechar 0
LayerCount: 2
Fore
SplineSet
540.5 670 m 128,-1,1
 619 626 619 626 661.5 544.5 c 128,-1,2
 704 463 704 463 704 353 c 0,3,4
 704 246 704 246 664 164 c 128,-1,5
 624 82 624 82 551 36.5 c 128,-1,6
 478 -9 478 -9 381 -9 c 0,7,8
 281 -9 281 -9 207.5 33.5 c 128,-1,9
 134 76 134 76 94 156.5 c 128,-1,10
 54 237 54 237 54 348 c 0,11,12
 54 376 54 376 69 391.5 c 128,-1,13
 84 407 84 407 110 407 c 2,14,-1
 573 407 l 1,15,16
 561 506 561 506 503.5 558 c 128,-1,17
 446 610 446 610 349 610 c 0,18,19
 304 610 304 610 262.5 596.5 c 128,-1,20
 221 583 221 583 173 552 c 0,21,22
 160 544 160 544 151.5 541 c 128,-1,23
 143 538 143 538 133 538 c 0,24,25
 116 538 116 538 103.5 553 c 128,-1,26
 91 568 91 568 91 590 c 0,27,28
 91 605 91 605 96.5 616 c 128,-1,29
 102 627 102 627 114 638 c 0,30,31
 158 675 158 675 221 694.5 c 128,-1,32
 284 714 284 714 356 714 c 0,33,0
 462 714 462 714 540.5 670 c 128,-1,1
516.5 148.5 m 128,-1,35
 566 203 566 203 574 307 c 1,36,-1
 184 307 l 1,37,38
 191 204 191 204 242.5 149 c 128,-1,39
 294 94 294 94 381 94 c 0,40,34
 467 94 467 94 516.5 148.5 c 128,-1,35
EndSplineSet
EndChar

StartChar: T
Encoding: 54 84 185
Width: 613
GlyphClass: 2
Flags: W
AnchorPoint: "Anchor-11" 307 353 basechar 0
AnchorPoint: "Anchor-10" 307 705 basechar 0
AnchorPoint: "Anchor-8" 307 0 basechar 0
LayerCount: 2
Fore
SplineSet
259.5 12.5 m 128,-1,1
 242 30 242 30 242 59 c 2,2,-1
 242 599 l 1,3,-1
 60 599 l 2,4,5
 0 599 0 599 0 652 c 256,6,7
 0 705 0 705 60 705 c 2,8,-1
 553 705 l 2,9,10
 613 705 613 705 613 652 c 256,11,12
 613 599 613 599 553 599 c 2,13,-1
 371 599 l 1,14,-1
 371 59 l 2,15,16
 371 30 371 30 353.5 12.5 c 128,-1,17
 336 -5 336 -5 307 -5 c 0,18,0
 277 -5 277 -5 259.5 12.5 c 128,-1,1
EndSplineSet
EndChar

StartChar: Tbar
Encoding: 293 358 186
Width: 613
Flags: W
LayerCount: 2
Fore
SplineSet
613 652 m 256,1,2
 613 599 613 599 553 599 c 2,3,-1
 371 599 l 1,4,-1
 371 406 l 1,5,-1
 464 406 l 2,6,7
 491 406 491 406 506 393 c 128,-1,8
 521 380 521 380 521 357 c 0,9,10
 521 333 521 333 506 320 c 128,-1,11
 491 307 491 307 464 307 c 2,12,-1
 371 307 l 1,13,-1
 371 59 l 2,14,15
 371 30 371 30 353.5 12.5 c 128,-1,16
 336 -5 336 -5 307 -5 c 0,17,18
 277 -5 277 -5 259.5 12.5 c 128,-1,19
 242 30 242 30 242 59 c 2,20,-1
 242 307 l 1,21,-1
 150 307 l 2,22,23
 122 307 122 307 107 320 c 128,-1,24
 92 333 92 333 92 357 c 0,25,26
 92 380 92 380 107 393 c 128,-1,27
 122 406 122 406 150 406 c 2,28,-1
 242 406 l 1,29,-1
 242 599 l 1,30,-1
 60 599 l 2,31,32
 0 599 0 599 0 652 c 256,33,34
 0 705 0 705 60 705 c 2,35,-1
 553 705 l 2,36,0
 613 705 613 705 613 652 c 256,1,2
EndSplineSet
EndChar

StartChar: uni0162
Encoding: 289 354 188
Width: 613
GlyphClass: 2
Flags: W
AnchorPoint: "Anchor-11" 307 353 basechar 0
AnchorPoint: "Anchor-10" 307 705 basechar 0
AnchorPoint: "Anchor-8" 307 0 basechar 0
LayerCount: 2
Fore
SplineSet
613 652 m 256,1,2
 613 599 613 599 553 599 c 2,3,-1
 371 599 l 1,4,-1
 371 59 l 2,5,6
 371 37 371 37 361 22 c 128,-1,7
 351 7 351 7 334 0 c 1,8,-1
 329 -43 l 1,9,10
 341 -40 341 -40 353 -40 c 0,11,12
 383 -40 383 -40 405 -58.5 c 128,-1,13
 427 -77 427 -77 427 -109 c 0,14,15
 427 -147 427 -147 393 -171 c 128,-1,16
 359 -195 359 -195 298 -195 c 0,17,18
 256 -195 256 -195 228 -185 c 0,19,20
 219 -181 219 -181 214 -174 c 128,-1,21
 209 -167 209 -167 209 -158 c 0,22,23
 209 -144 209 -144 217.5 -135.5 c 128,-1,24
 226 -127 226 -127 240 -131 c 0,25,26
 276 -139 276 -139 296 -139 c 0,27,28
 346 -139 346 -139 346 -109 c 0,29,30
 346 -99 346 -99 339 -93 c 128,-1,31
 332 -87 332 -87 319 -87 c 0,32,33
 309 -87 309 -87 293 -90.5 c 128,-1,34
 277 -94 277 -94 273 -94 c 0,35,36
 264 -94 264 -94 258.5 -88.5 c 128,-1,37
 253 -83 253 -83 254 -74 c 2,38,-1
 264 9 l 1,39,40
 242 26 242 26 242 59 c 2,41,-1
 242 599 l 1,42,-1
 60 599 l 2,43,44
 0 599 0 599 0 652 c 256,45,46
 0 705 0 705 60 705 c 2,47,-1
 553 705 l 2,48,0
 613 705 613 705 613 652 c 256,1,2
EndSplineSet
Substitution2: "'locl' Localized Forms in Latin lookup 8 subtable" uni021A
Substitution2: "'locl' Localized Forms in Latin lookup 7 subtable" uni021A
Substitution2: "'aalt' Access All Alternates lookup 0 subtable" uni021A
EndChar

StartChar: U
Encoding: 55 85 192
Width: 733
GlyphClass: 2
Flags: W
AnchorPoint: "Anchor-12" 598 705 basechar 0
AnchorPoint: "Anchor-10" 367 705 basechar 0
AnchorPoint: "Anchor-9" 486 10 basechar 0
AnchorPoint: "Anchor-8" 367 0 basechar 0
LayerCount: 2
Fore
SplineSet
147 66 m 128,-1,1
 72 141 72 141 72 285 c 2,2,-1
 72 646 l 2,3,4
 72 675 72 675 89 692.5 c 128,-1,5
 106 710 106 710 135 710 c 256,6,7
 164 710 164 710 181 692.5 c 128,-1,8
 198 675 198 675 198 646 c 2,9,-1
 198 278 l 2,10,11
 198 187 198 187 241 140.5 c 128,-1,12
 284 94 284 94 367 94 c 0,13,14
 449 94 449 94 492 141 c 128,-1,15
 535 188 535 188 535 278 c 2,16,-1
 535 646 l 2,17,18
 535 675 535 675 552 692.5 c 128,-1,19
 569 710 569 710 598 710 c 256,20,21
 627 710 627 710 644 692.5 c 128,-1,22
 661 675 661 675 661 646 c 2,23,-1
 661 285 l 2,24,25
 661 142 661 142 586 66.5 c 128,-1,26
 511 -9 511 -9 367 -9 c 0,27,0
 222 -9 222 -9 147 66 c 128,-1,1
EndSplineSet
EndChar

StartChar: Uhorn
Encoding: 322 431 201
Width: 733
GlyphClass: 2
Flags: W
AnchorPoint: "Anchor-10" 367 705 basechar 0
AnchorPoint: "Anchor-8" 367 0 basechar 0
LayerCount: 2
Fore
SplineSet
744.5 695 m 128,-1,1
 713 655 713 655 661 645 c 1,2,-1
 661 285 l 2,3,4
 661 142 661 142 586 66.5 c 128,-1,5
 511 -9 511 -9 367 -9 c 0,6,7
 222 -9 222 -9 147 66 c 128,-1,8
 72 141 72 141 72 285 c 2,9,-1
 72 646 l 2,10,11
 72 675 72 675 89 692.5 c 128,-1,12
 106 710 106 710 135 710 c 256,13,14
 164 710 164 710 181 692.5 c 128,-1,15
 198 675 198 675 198 646 c 2,16,-1
 198 278 l 2,17,18
 198 187 198 187 241 140.5 c 128,-1,19
 284 94 284 94 367 94 c 0,20,21
 449 94 449 94 492 141 c 128,-1,22
 535 188 535 188 535 278 c 2,23,-1
 535 646 l 2,24,25
 535 674 535 674 551.5 692 c 128,-1,26
 568 710 568 710 595 711 c 0,27,28
 629 711 629 711 644.5 727 c 128,-1,29
 660 743 660 743 664 786 c 0,30,31
 670 852 670 852 724 852 c 0,32,33
 776 852 776 852 776 788 c 0,34,0
 776 735 776 735 744.5 695 c 128,-1,1
EndSplineSet
EndChar

StartChar: Uogonek
Encoding: 305 370 211
Width: 733
Flags: W
LayerCount: 2
Fore
SplineSet
644 692.5 m 128,-1,1
 661 675 661 675 661 646 c 2,2,-1
 661 285 l 2,3,4
 661 173 661 173 615 102.5 c 128,-1,5
 569 32 569 32 480 6 c 0,6,7
 410 -13 410 -13 410 -69 c 0,8,9
 410 -95 410 -95 425 -110.5 c 128,-1,10
 440 -126 440 -126 466 -126 c 0,11,12
 491 -126 491 -126 514 -117 c 0,13,14
 522 -115 522 -115 524 -115 c 0,15,16
 535 -115 535 -115 542 -123.5 c 128,-1,17
 549 -132 549 -132 549 -144 c 0,18,19
 549 -164 549 -164 532 -174 c 0,20,21
 495 -195 495 -195 449 -195 c 0,22,23
 394 -195 394 -195 360 -164.5 c 128,-1,24
 326 -134 326 -134 326 -87 c 0,25,26
 326 -41 326 -41 359 -9 c 1,27,28
 218 -7 218 -7 145 68 c 128,-1,29
 72 143 72 143 72 285 c 2,30,-1
 72 646 l 2,31,32
 72 675 72 675 89 692.5 c 128,-1,33
 106 710 106 710 135 710 c 256,34,35
 164 710 164 710 181 692.5 c 128,-1,36
 198 675 198 675 198 646 c 2,37,-1
 198 278 l 2,38,39
 198 187 198 187 241 140.5 c 128,-1,40
 284 94 284 94 367 94 c 0,41,42
 449 94 449 94 492 141 c 128,-1,43
 535 188 535 188 535 278 c 2,44,-1
 535 646 l 2,45,46
 535 675 535 675 552 692.5 c 128,-1,47
 569 710 569 710 598 710 c 256,48,0
 627 710 627 710 644 692.5 c 128,-1,1
EndSplineSet
EndChar

StartChar: V
Encoding: 56 86 215
Width: 714
GlyphClass: 2
Flags: W
AnchorPoint: "Anchor-10" 357 705 basechar 0
AnchorPoint: "Anchor-8" 358 0 basechar 0
LayerCount: 2
Fore
SplineSet
642 711 m 0,1,2
 667 711 667 711 687 695 c 128,-1,3
 707 679 707 679 707 655 c 0,4,5
 707 644 707 644 701 630 c 2,6,-1
 424 34 l 2,7,8
 415 15 415 15 396.5 4.5 c 128,-1,9
 378 -6 378 -6 357 -6 c 256,10,11
 336 -6 336 -6 317.5 4.5 c 128,-1,12
 299 15 299 15 290 34 c 2,13,-1
 14 630 l 2,14,15
 8 644 8 644 8 654 c 0,16,17
 8 679 8 679 28.5 695 c 128,-1,18
 49 711 49 711 75 711 c 0,19,20
 92 711 92 711 106.5 702.5 c 128,-1,21
 121 694 121 694 129 677 c 2,22,-1
 359 166 l 1,23,-1
 589 677 l 2,24,0
 605 711 605 711 642 711 c 0,1,2
EndSplineSet
EndChar

StartChar: W
Encoding: 57 87 216
Width: 1110
GlyphClass: 2
Flags: W
AnchorPoint: "Anchor-10" 555 705 basechar 0
AnchorPoint: "Anchor-8" 555 0 basechar 0
LayerCount: 2
Fore
SplineSet
982.5 701 m 128,-1,1
 998 711 998 711 1017 711 c 0,2,3
 1041 711 1041 711 1058.5 696 c 128,-1,4
 1076 681 1076 681 1076 656 c 0,5,6
 1076 647 1076 647 1071 630 c 2,7,-1
 856 35 l 2,8,9
 848 15 848 15 829.5 4 c 128,-1,10
 811 -7 811 -7 789 -7 c 256,11,12
 767 -7 767 -7 748 4 c 128,-1,13
 729 15 729 15 722 35 c 2,14,-1
 556 506 l 1,15,-1
 387 35 l 2,16,17
 379 15 379 15 360.5 4 c 128,-1,18
 342 -7 342 -7 320 -7 c 256,19,20
 298 -7 298 -7 279.5 4 c 128,-1,21
 261 15 261 15 254 35 c 2,22,-1
 39 630 l 2,23,24
 34 645 34 645 34 656 c 0,25,26
 34 681 34 681 52.5 696 c 128,-1,27
 71 711 71 711 96 711 c 0,28,29
 116 711 116 711 132 701 c 128,-1,30
 148 691 148 691 155 671 c 2,31,-1
 325 182 l 1,32,-1
 500 668 l 2,33,34
 507 688 507 688 523 699.5 c 128,-1,35
 539 711 539 711 558 711 c 256,36,37
 577 711 577 711 593.5 699.5 c 128,-1,38
 610 688 610 688 617 667 c 2,39,-1
 787 176 l 1,40,-1
 960 671 l 2,41,0
 967 691 967 691 982.5 701 c 128,-1,1
EndSplineSet
EndChar

StartChar: X
Encoding: 58 88 221
Width: 664
GlyphClass: 2
Flags: W
AnchorPoint: "Anchor-10" 332 705 basechar 0
AnchorPoint: "Anchor-8" 332 0 basechar 0
LayerCount: 2
Fore
SplineSet
640 54 m 0,1,2
 640 30 640 30 621.5 12 c 128,-1,3
 603 -6 603 -6 579 -6 c 0,4,5
 554 -6 554 -6 535 16 c 2,6,-1
 332 268 l 1,7,-1
 128 16 l 2,8,9
 110 -5 110 -5 85 -5 c 0,10,11
 61 -5 61 -5 42.5 12.5 c 128,-1,12
 24 30 24 30 24 54 c 0,13,14
 24 74 24 74 39 92 c 2,15,-1
 257 358 l 1,16,-1
 48 613 l 2,17,18
 33 629 33 629 33 651 c 0,19,20
 33 675 33 675 51 692.5 c 128,-1,21
 69 710 69 710 93 710 c 0,22,23
 118 710 118 710 137 688 c 2,24,-1
 332 447 l 1,25,-1
 527 688 l 2,26,27
 545 710 545 710 570 710 c 0,28,29
 594 710 594 710 612.5 692.5 c 128,-1,30
 631 675 631 675 631 651 c 0,31,32
 631 629 631 629 616 613 c 2,33,-1
 407 358 l 1,34,-1
 624 92 l 2,35,0
 640 73 640 73 640 54 c 0,1,2
EndSplineSet
EndChar

StartChar: Y
Encoding: 59 89 222
Width: 623
GlyphClass: 2
Flags: W
AnchorPoint: "Anchor-10" 311 705 basechar 0
AnchorPoint: "Anchor-8" 312 0 basechar 0
LayerCount: 2
Fore
SplineSet
559 710 m 0,1,2
 582 710 582 710 600 692.5 c 128,-1,3
 618 675 618 675 618 651 c 0,4,5
 618 631 618 631 603 613 c 2,6,-1
 376 336 l 1,7,-1
 376 59 l 2,8,9
 376 28 376 28 358 11 c 128,-1,10
 340 -6 340 -6 312 -6 c 0,11,12
 283 -6 283 -6 265 11 c 128,-1,13
 247 28 247 28 247 59 c 2,14,-1
 247 336 l 1,15,-1
 20 613 l 2,16,17
 5 631 5 631 5 651 c 0,18,19
 5 675 5 675 23 692.5 c 128,-1,20
 41 710 41 710 64 710 c 0,21,22
 89 710 89 710 107 688 c 2,23,-1
 312 434 l 1,24,-1
 516 688 l 2,25,0
 534 710 534 710 559 710 c 0,1,2
EndSplineSet
EndChar

StartChar: Z
Encoding: 60 90 232
Width: 602
GlyphClass: 2
Flags: W
AnchorPoint: "Anchor-10" 302 705 basechar 0
AnchorPoint: "Anchor-8" 301 0 basechar 0
LayerCount: 2
Fore
SplineSet
579 52 m 0,1,2
 579 0 579 0 519 0 c 2,3,-1
 93 0 l 2,4,5
 67 0 67 0 51.5 15.5 c 128,-1,6
 36 31 36 31 36 55 c 256,7,8
 36 79 36 79 52 101 c 2,9,-1
 410 602 l 1,10,-1
 97 602 l 2,11,12
 37 602 37 602 37 653 c 0,13,14
 37 705 37 705 97 705 c 2,15,-1
 510 705 l 2,16,17
 536 705 536 705 551.5 689.5 c 128,-1,18
 567 674 567 674 567 651 c 256,19,20
 567 628 567 628 550 605 c 2,21,-1
 192 103 l 1,22,-1
 519 103 l 2,23,0
 579 103 579 103 579 52 c 0,1,2
EndSplineSet
EndChar

StartChar: a
Encoding: 67 97 238
Width: 540
GlyphClass: 2
Flags: W
AnchorPoint: "Anchor-10" 277 493 basechar 0
AnchorPoint: "Anchor-9" 460 10 basechar 0
AnchorPoint: "Anchor-8" 273 0 basechar 0
LayerCount: 2
Fore
SplineSet
428.5 450.5 m 128,-1,1
 478 400 478 400 478 297 c 2,2,-1
 478 53 l 2,3,4
 478 26 478 26 462 10.5 c 128,-1,5
 446 -5 446 -5 418 -5 c 0,6,7
 392 -5 392 -5 375.5 11 c 128,-1,8
 359 27 359 27 359 53 c 2,9,-1
 359 75 l 1,10,11
 342 36 342 36 305.5 14 c 128,-1,12
 269 -8 269 -8 221 -8 c 0,13,14
 172 -8 172 -8 132 12 c 128,-1,15
 92 32 92 32 69 67 c 128,-1,16
 46 102 46 102 46 145 c 0,17,18
 46 199 46 199 73.5 230 c 128,-1,19
 101 261 101 261 163 275 c 128,-1,20
 225 289 225 289 334 289 c 2,21,-1
 359 289 l 1,22,-1
 359 312 l 2,23,24
 359 361 359 361 338 383.5 c 128,-1,25
 317 406 317 406 270 406 c 0,26,27
 241 406 241 406 211 397.5 c 128,-1,28
 181 389 181 389 140 373 c 0,29,30
 114 360 114 360 102 360 c 0,31,32
 84 360 84 360 72.5 373 c 128,-1,33
 61 386 61 386 61 407 c 0,34,35
 61 424 61 424 69.5 436.5 c 128,-1,36
 78 449 78 449 98 460 c 0,37,38
 133 479 133 479 181.5 490 c 128,-1,39
 230 501 230 501 277 501 c 0,40,0
 379 501 379 501 428.5 450.5 c 128,-1,1
327.5 115.5 m 128,-1,42
 359 149 359 149 359 202 c 2,43,-1
 359 223 l 1,44,-1
 341 223 l 2,45,46
 274 223 274 223 237 217 c 128,-1,47
 200 211 200 211 184 196 c 128,-1,48
 168 181 168 181 168 155 c 0,49,50
 168 123 168 123 190.5 102.5 c 128,-1,51
 213 82 213 82 246 82 c 0,52,41
 296 82 296 82 327.5 115.5 c 128,-1,42
EndSplineSet
Substitution2: "Single Substitution lookup 33 subtable" ordfeminine
Substitution2: "'ss01' Style Set 1 lookup 29 subtable" a.ss01
Substitution2: "'salt' Stylistic Alternatives lookup 28 subtable" a.ss01
AlternateSubs2: "'aalt' Access All Alternates lookup 1 subtable" ordfeminine a.ss01
EndChar

StartChar: aogonek
Encoding: 198 261 261
Width: 540
Flags: W
LayerCount: 2
Fore
SplineSet
499 -115 m 0,1,2
 510 -115 510 -115 517 -123.5 c 128,-1,3
 524 -132 524 -132 524 -144 c 0,4,5
 524 -153 524 -153 519.5 -161 c 128,-1,6
 515 -169 515 -169 506 -174 c 0,7,8
 469 -195 469 -195 424 -195 c 0,9,10
 369 -195 369 -195 334.5 -164.5 c 128,-1,11
 300 -134 300 -134 300 -85 c 0,12,13
 300 -52 300 -52 318 -24 c 128,-1,14
 336 4 336 4 368 21 c 1,15,16
 359 35 359 35 359 53 c 2,17,-1
 359 75 l 1,18,19
 342 36 342 36 306 14 c 128,-1,20
 270 -8 270 -8 222 -8 c 0,21,22
 173 -8 173 -8 132.5 12 c 128,-1,23
 92 32 92 32 69 67 c 128,-1,24
 46 102 46 102 46 145 c 0,25,26
 46 199 46 199 73.5 230 c 128,-1,27
 101 261 101 261 163.5 275 c 128,-1,28
 226 289 226 289 334 289 c 2,29,-1
 359 289 l 1,30,-1
 359 312 l 2,31,32
 359 361 359 361 338 383.5 c 128,-1,33
 317 406 317 406 270 406 c 0,34,35
 241 406 241 406 211 397.5 c 128,-1,36
 181 389 181 389 140 373 c 0,37,38
 112 360 112 360 102 360 c 0,39,40
 84 360 84 360 72.5 373 c 128,-1,41
 61 386 61 386 61 407 c 0,42,43
 61 424 61 424 69.5 436.5 c 128,-1,44
 78 449 78 449 98 460 c 0,45,46
 133 479 133 479 181.5 490 c 128,-1,47
 230 501 230 501 277 501 c 0,48,49
 379 501 379 501 428.5 450.5 c 128,-1,50
 478 400 478 400 478 297 c 2,51,-1
 478 53 l 2,52,53
 478 13 478 13 447 1 c 0,54,55
 384 -23 384 -23 384 -69 c 0,56,57
 384 -95 384 -95 399.5 -110.5 c 128,-1,58
 415 -126 415 -126 441 -126 c 0,59,60
 461 -126 461 -126 489 -117 c 0,61,0
 497 -115 497 -115 499 -115 c 0,1,2
327.5 115.5 m 128,-1,63
 359 149 359 149 359 202 c 2,64,-1
 359 223 l 1,65,-1
 341 223 l 2,66,67
 275 223 275 223 237.5 216.5 c 128,-1,68
 200 210 200 210 184 195.5 c 128,-1,69
 168 181 168 181 168 155 c 0,70,71
 168 123 168 123 190.5 102.5 c 128,-1,72
 213 82 213 82 246 82 c 0,73,62
 296 82 296 82 327.5 115.5 c 128,-1,63
EndSplineSet
Substitution2: "'ss01' Style Set 1 lookup 29 subtable" aogonek.ss01
Substitution2: "'salt' Stylistic Alternatives lookup 28 subtable" aogonek.ss01
Substitution2: "'aalt' Access All Alternates lookup 0 subtable" aogonek.ss01
EndChar

StartChar: aringacute
Encoding: 343 507 263
Width: 540
Flags: W
LayerCount: 2
Fore
SplineSet
456 857 m 0,1,2
 476 857 476 857 491 842 c 128,-1,3
 506 827 506 827 506 808 c 0,4,5
 506 779 506 779 473 762 c 2,6,-1
 372 704 l 1,7,8
 383 682 383 682 383 656 c 0,9,10
 383 612 383 612 352 582 c 128,-1,11
 321 552 321 552 277 552 c 256,12,13
 233 552 233 552 202 582 c 128,-1,14
 171 612 171 612 171 656 c 256,15,16
 171 700 171 700 202 730 c 128,-1,17
 233 760 233 760 277 760 c 0,18,19
 306 760 306 760 328 748 c 1,20,-1
 413 837 l 2,21,0
 433 857 433 857 456 857 c 0,1,2
309 622.5 m 128,-1,23
 322 636 322 636 322 656 c 256,24,25
 322 676 322 676 309 689.5 c 128,-1,26
 296 703 296 703 277 703 c 256,27,28
 258 703 258 703 245 689.5 c 128,-1,29
 232 676 232 676 232 656 c 256,30,31
 232 636 232 636 245 622.5 c 128,-1,32
 258 609 258 609 277 609 c 256,33,22
 296 609 296 609 309 622.5 c 128,-1,23
428.5 450.5 m 128,-1,35
 478 400 478 400 478 297 c 2,36,-1
 478 53 l 2,37,38
 478 26 478 26 462 10.5 c 128,-1,39
 446 -5 446 -5 418 -5 c 0,40,41
 392 -5 392 -5 375.5 11 c 128,-1,42
 359 27 359 27 359 53 c 2,43,-1
 359 75 l 1,44,45
 342 36 342 36 305.5 14 c 128,-1,46
 269 -8 269 -8 221 -8 c 0,47,48
 172 -8 172 -8 132 12 c 128,-1,49
 92 32 92 32 69 67 c 128,-1,50
 46 102 46 102 46 145 c 0,51,52
 46 199 46 199 73.5 230 c 128,-1,53
 101 261 101 261 163 275 c 128,-1,54
 225 289 225 289 334 289 c 2,55,-1
 359 289 l 1,56,-1
 359 312 l 2,57,58
 359 361 359 361 338 383.5 c 128,-1,59
 317 406 317 406 270 406 c 0,60,61
 241 406 241 406 211 397.5 c 128,-1,62
 181 389 181 389 140 373 c 0,63,64
 114 360 114 360 102 360 c 0,65,66
 84 360 84 360 72.5 373 c 128,-1,67
 61 386 61 386 61 407 c 0,68,69
 61 424 61 424 69.5 436.5 c 128,-1,70
 78 449 78 449 98 460 c 0,71,72
 133 479 133 479 181.5 490 c 128,-1,73
 230 501 230 501 277 501 c 0,74,34
 379 501 379 501 428.5 450.5 c 128,-1,35
327.5 115.5 m 128,-1,76
 359 149 359 149 359 202 c 2,77,-1
 359 223 l 1,78,-1
 341 223 l 2,79,80
 274 223 274 223 237 217 c 128,-1,81
 200 211 200 211 184 196 c 128,-1,82
 168 181 168 181 168 155 c 0,83,84
 168 123 168 123 190.5 102.5 c 128,-1,85
 213 82 213 82 246 82 c 0,86,75
 296 82 296 82 327.5 115.5 c 128,-1,76
EndSplineSet
Substitution2: "'ss01' Style Set 1 lookup 29 subtable" aringacute.ss01
Substitution2: "'salt' Stylistic Alternatives lookup 28 subtable" aringacute.ss01
Substitution2: "'aalt' Access All Alternates lookup 0 subtable" aringacute.ss01
EndChar

StartChar: ae
Encoding: 167 230 265
Width: 843
GlyphClass: 2
Flags: W
AnchorPoint: "Anchor-10" 419 493 basechar 0
AnchorPoint: "Anchor-8" 419 0 basechar 0
LayerCount: 2
Fore
SplineSet
792.5 121 m 128,-1,1
 803 108 803 108 803 86 c 0,2,3
 803 54 803 54 766 34 c 0,4,5
 732 15 732 15 689.5 3.5 c 128,-1,6
 647 -8 647 -8 610 -8 c 0,7,8
 539 -8 539 -8 488 19.5 c 128,-1,9
 437 47 437 47 408 99 c 1,10,11
 386 47 386 47 341.5 19.5 c 128,-1,12
 297 -8 297 -8 236 -8 c 0,13,14
 182 -8 182 -8 138.5 11.5 c 128,-1,15
 95 31 95 31 70.5 66 c 128,-1,16
 46 101 46 101 46 145 c 0,17,18
 46 199 46 199 73.5 230 c 128,-1,19
 101 261 101 261 163 275 c 128,-1,20
 225 289 225 289 334 289 c 2,21,-1
 359 289 l 1,22,-1
 359 311 l 2,23,24
 359 361 359 361 337.5 383.5 c 128,-1,25
 316 406 316 406 270 406 c 0,26,27
 229 406 229 406 200 397.5 c 128,-1,28
 171 389 171 389 142 374 c 0,29,30
 130 368 130 368 119 364 c 128,-1,31
 108 360 108 360 99 360 c 0,32,33
 82 360 82 360 71.5 373 c 128,-1,34
 61 386 61 386 61 407 c 0,35,36
 61 439 61 439 98 460 c 0,37,38
 134 480 134 480 180 490.5 c 128,-1,39
 226 501 226 501 275 501 c 0,40,41
 391 501 391 501 435 430 c 1,42,43
 465 464 465 464 507 482.5 c 128,-1,44
 549 501 549 501 599 501 c 0,45,46
 660 501 660 501 707 471.5 c 128,-1,47
 754 442 754 442 780 388.5 c 128,-1,48
 806 335 806 335 806 265 c 0,49,50
 806 222 806 222 768 222 c 2,51,-1
 480 222 l 1,52,53
 486 154 486 154 518.5 121 c 128,-1,54
 551 88 551 88 612 88 c 0,55,56
 643 88 643 88 666.5 96 c 128,-1,57
 690 104 690 104 720 118 c 0,58,59
 750 134 750 134 765 134 c 0,60,0
 782 134 782 134 792.5 121 c 128,-1,1
516.5 380.5 m 128,-1,62
 486 348 486 348 480 289 c 1,63,-1
 700 289 l 1,64,65
 697 349 697 349 670.5 381 c 128,-1,66
 644 413 644 413 597 413 c 0,67,61
 547 413 547 413 516.5 380.5 c 128,-1,62
328 116.5 m 128,-1,69
 359 151 359 151 359 203 c 2,70,-1
 359 223 l 1,71,-1
 341 223 l 2,72,73
 274 223 274 223 237 217 c 128,-1,74
 200 211 200 211 184 196 c 128,-1,75
 168 181 168 181 168 155 c 0,76,77
 168 122 168 122 191.5 102 c 128,-1,78
 215 82 215 82 251 82 c 0,79,68
 297 82 297 82 328 116.5 c 128,-1,69
EndSplineSet
EndChar

StartChar: b
Encoding: 68 98 267
Width: 601
GlyphClass: 2
Flags: W
AnchorPoint: "Anchor-10" 346 493 basechar 0
AnchorPoint: "Anchor-8" 306 0 basechar 0
LayerCount: 2
Fore
SplineSet
459 470 m 128,-1,1
 508 439 508 439 535.5 382 c 128,-1,2
 563 325 563 325 563 249 c 256,3,4
 563 173 563 173 535.5 114.5 c 128,-1,5
 508 56 508 56 458.5 24 c 128,-1,6
 409 -8 409 -8 346 -8 c 0,7,8
 293 -8 293 -8 251.5 15 c 128,-1,9
 210 38 210 38 188 79 c 1,10,-1
 188 54 l 2,11,12
 188 27 188 27 171 11 c 128,-1,13
 154 -5 154 -5 126 -5 c 256,14,15
 98 -5 98 -5 81.5 11 c 128,-1,16
 65 27 65 27 65 54 c 2,17,-1
 65 652 l 2,18,19
 65 678 65 678 82.5 694 c 128,-1,20
 100 710 100 710 128 710 c 256,21,22
 156 710 156 710 173 695 c 128,-1,23
 190 680 190 680 190 654 c 2,24,-1
 190 418 l 1,25,26
 212 458 212 458 253 479.5 c 128,-1,27
 294 501 294 501 346 501 c 0,28,0
 410 501 410 501 459 470 c 128,-1,1
405 131 m 128,-1,30
 438 173 438 173 438 249 c 0,31,32
 438 324 438 324 405.5 364 c 128,-1,33
 373 404 373 404 313 404 c 256,34,35
 253 404 253 404 220.5 363.5 c 128,-1,36
 188 323 188 323 188 247 c 256,37,38
 188 171 188 171 220.5 130 c 128,-1,39
 253 89 253 89 313 89 c 0,40,29
 372 89 372 89 405 131 c 128,-1,30
EndSplineSet
EndChar

StartChar: c
Encoding: 69 99 268
Width: 488
GlyphClass: 2
Flags: W
AnchorPoint: "Anchor-10" 289 493 basechar 0
AnchorPoint: "Anchor-8" 282 0 basechar 0
LayerCount: 2
Fore
SplineSet
153.5 23 m 128,-1,1
 98 54 98 54 68 111 c 128,-1,2
 38 168 38 168 38 244 c 256,3,4
 38 320 38 320 69.5 378.5 c 128,-1,5
 101 437 101 437 158 469 c 128,-1,6
 215 501 215 501 289 501 c 0,7,8
 328 501 328 501 367.5 490 c 128,-1,9
 407 479 407 479 437 460 c 0,10,11
 469 439 469 439 469 407 c 0,12,13
 469 385 469 385 458.5 371.5 c 128,-1,14
 448 358 448 358 431 358 c 0,15,16
 420 358 420 358 408 363 c 128,-1,17
 396 368 396 368 384 375 c 0,18,19
 362 388 362 388 342 395.5 c 128,-1,20
 322 403 322 403 296 403 c 0,21,22
 234 403 234 403 200.5 362.5 c 128,-1,23
 167 322 167 322 167 246 c 0,24,25
 167 171 167 171 200.5 130.5 c 128,-1,26
 234 90 234 90 296 90 c 0,27,28
 321 90 321 90 340.5 97.5 c 128,-1,29
 360 105 360 105 384 118 c 0,30,31
 399 127 399 127 410 131.5 c 128,-1,32
 421 136 421 136 432 136 c 0,33,34
 448 136 448 136 459 122 c 128,-1,35
 470 108 470 108 470 87 c 0,36,37
 470 70 470 70 462.5 57.5 c 128,-1,38
 455 45 455 45 438 35 c 0,39,40
 407 15 407 15 366 3.5 c 128,-1,41
 325 -8 325 -8 282 -8 c 0,42,0
 209 -8 209 -8 153.5 23 c 128,-1,1
EndSplineSet
EndChar

StartChar: ccedilla
Encoding: 168 231 271
Width: 488
GlyphClass: 2
Flags: W
AnchorPoint: "Anchor-10" 289 493 basechar 0
AnchorPoint: "Anchor-8" 282 0 basechar 0
LayerCount: 2
Fore
SplineSet
459 122 m 128,-1,1
 470 108 470 108 470 87 c 0,2,3
 470 70 470 70 462.5 57.5 c 128,-1,4
 455 45 455 45 438 35 c 0,5,6
 384 -1 384 -1 307 -7 c 1,7,-1
 303 -42 l 1,8,9
 319 -40 319 -40 326 -40 c 0,10,11
 357 -40 357 -40 378.5 -58.5 c 128,-1,12
 400 -77 400 -77 400 -109 c 0,13,14
 400 -147 400 -147 366.5 -171 c 128,-1,15
 333 -195 333 -195 272 -195 c 0,16,17
 230 -195 230 -195 202 -185 c 0,18,19
 193 -181 193 -181 188 -174 c 128,-1,20
 183 -167 183 -167 183 -158 c 0,21,22
 183 -144 183 -144 191.5 -135.5 c 128,-1,23
 200 -127 200 -127 214 -131 c 0,24,25
 248 -139 248 -139 270 -139 c 0,26,27
 320 -139 320 -139 320 -109 c 0,28,29
 320 -99 320 -99 313 -93 c 128,-1,30
 306 -87 306 -87 293 -87 c 0,31,32
 283 -87 283 -87 267 -90.5 c 128,-1,33
 251 -94 251 -94 247 -94 c 0,34,35
 238 -94 238 -94 232.5 -88.5 c 128,-1,36
 227 -83 227 -83 228 -74 c 2,37,-1
 236 -5 l 1,38,39
 144 9 144 9 91 75.5 c 128,-1,40
 38 142 38 142 38 244 c 0,41,42
 38 320 38 320 69.5 378.5 c 128,-1,43
 101 437 101 437 158 469 c 128,-1,44
 215 501 215 501 289 501 c 0,45,46
 328 501 328 501 367.5 490 c 128,-1,47
 407 479 407 479 437 460 c 0,48,49
 469 439 469 439 469 407 c 0,50,51
 469 385 469 385 458.5 371.5 c 128,-1,52
 448 358 448 358 431 358 c 0,53,54
 420 358 420 358 408 363 c 128,-1,55
 396 368 396 368 384 375 c 0,56,57
 362 388 362 388 342 395.5 c 128,-1,58
 322 403 322 403 296 403 c 0,59,60
 234 403 234 403 200.5 362.5 c 128,-1,61
 167 322 167 322 167 246 c 0,62,63
 167 171 167 171 200.5 130.5 c 128,-1,64
 234 90 234 90 296 90 c 0,65,66
 321 90 321 90 340.5 97.5 c 128,-1,67
 360 105 360 105 384 118 c 0,68,69
 399 127 399 127 410 131.5 c 128,-1,70
 421 136 421 136 432 136 c 0,71,0
 448 136 448 136 459 122 c 128,-1,1
EndSplineSet
EndChar

StartChar: uni1E09
Encoding: 673 7689 272
Width: 488
GlyphClass: 2
Flags: W
AnchorPoint: "Anchor-10" 289 685 basechar 0
AnchorPoint: "Anchor-8" 282 0 basechar 0
LayerCount: 2
Fore
SplineSet
292 548 m 0,1,2
 278 548 278 548 268.5 557.5 c 128,-1,3
 259 567 259 567 259 580 c 0,4,5
 259 591 259 591 267 602 c 2,6,-1
 364 731 l 2,7,8
 387 761 387 761 417 761 c 0,9,10
 439 761 439 761 454.5 745.5 c 128,-1,11
 470 730 470 730 470 709 c 0,12,13
 470 681 470 681 443 661 c 2,14,-1
 314 556 l 2,15,0
 303 548 303 548 292 548 c 0,1,2
459 122 m 128,-1,17
 470 108 470 108 470 87 c 0,18,19
 470 70 470 70 462.5 57.5 c 128,-1,20
 455 45 455 45 438 35 c 0,21,22
 384 -1 384 -1 307 -7 c 1,23,-1
 303 -42 l 1,24,25
 319 -40 319 -40 326 -40 c 0,26,27
 357 -40 357 -40 378.5 -58.5 c 128,-1,28
 400 -77 400 -77 400 -109 c 0,29,30
 400 -147 400 -147 366.5 -171 c 128,-1,31
 333 -195 333 -195 272 -195 c 0,32,33
 230 -195 230 -195 202 -185 c 0,34,35
 193 -181 193 -181 188 -174 c 128,-1,36
 183 -167 183 -167 183 -158 c 0,37,38
 183 -144 183 -144 191.5 -135.5 c 128,-1,39
 200 -127 200 -127 214 -131 c 0,40,41
 248 -139 248 -139 270 -139 c 0,42,43
 320 -139 320 -139 320 -109 c 0,44,45
 320 -99 320 -99 313 -93 c 128,-1,46
 306 -87 306 -87 293 -87 c 0,47,48
 283 -87 283 -87 267 -90.5 c 128,-1,49
 251 -94 251 -94 247 -94 c 0,50,51
 238 -94 238 -94 232.5 -88.5 c 128,-1,52
 227 -83 227 -83 228 -74 c 2,53,-1
 236 -5 l 1,54,55
 144 9 144 9 91 75.5 c 128,-1,56
 38 142 38 142 38 244 c 0,57,58
 38 320 38 320 69.5 378.5 c 128,-1,59
 101 437 101 437 158 469 c 128,-1,60
 215 501 215 501 289 501 c 0,61,62
 328 501 328 501 367.5 490 c 128,-1,63
 407 479 407 479 437 460 c 0,64,65
 469 439 469 439 469 407 c 0,66,67
 469 385 469 385 458.5 371.5 c 128,-1,68
 448 358 448 358 431 358 c 0,69,70
 420 358 420 358 408 363 c 128,-1,71
 396 368 396 368 384 375 c 0,72,73
 362 388 362 388 342 395.5 c 128,-1,74
 322 403 322 403 296 403 c 0,75,76
 234 403 234 403 200.5 362.5 c 128,-1,77
 167 322 167 322 167 246 c 0,78,79
 167 171 167 171 200.5 130.5 c 128,-1,80
 234 90 234 90 296 90 c 0,81,82
 321 90 321 90 340.5 97.5 c 128,-1,83
 360 105 360 105 384 118 c 0,84,85
 399 127 399 127 410 131.5 c 128,-1,86
 421 136 421 136 432 136 c 0,87,16
 448 136 448 136 459 122 c 128,-1,17
EndSplineSet
EndChar

StartChar: d
Encoding: 70 100 275
Width: 601
GlyphClass: 2
Flags: W
AnchorPoint: "Anchor-12" 566 705 basechar 0
AnchorPoint: "Anchor-11" 302 247 basechar 0
AnchorPoint: "Anchor-10" 302 493 basechar 0
AnchorPoint: "Anchor-8" 302 0 basechar 0
LayerCount: 2
Fore
SplineSet
519 694 m 128,-1,1
 537 678 537 678 537 652 c 2,2,-1
 537 54 l 2,3,4
 537 27 537 27 520 11 c 128,-1,5
 503 -5 503 -5 475 -5 c 256,6,7
 447 -5 447 -5 430 11 c 128,-1,8
 413 27 413 27 413 54 c 2,9,-1
 413 79 l 1,10,11
 391 38 391 38 349.5 15 c 128,-1,12
 308 -8 308 -8 255 -8 c 0,13,14
 192 -8 192 -8 142.5 24 c 128,-1,15
 93 56 93 56 65.5 114.5 c 128,-1,16
 38 173 38 173 38 249 c 256,17,18
 38 325 38 325 65.5 382 c 128,-1,19
 93 439 93 439 142 470 c 128,-1,20
 191 501 191 501 255 501 c 0,21,22
 308 501 308 501 349 479 c 128,-1,23
 390 457 390 457 412 417 c 1,24,-1
 412 654 l 2,25,26
 412 679 412 679 428.5 694.5 c 128,-1,27
 445 710 445 710 473 710 c 256,28,0
 501 710 501 710 519 694 c 128,-1,1
380.5 130 m 128,-1,30
 413 171 413 171 413 247 c 256,31,32
 413 323 413 323 380.5 363.5 c 128,-1,33
 348 404 348 404 289 404 c 0,34,35
 229 404 229 404 196 364 c 128,-1,36
 163 324 163 324 163 249 c 0,37,38
 163 173 163 173 196 131 c 128,-1,39
 229 89 229 89 288 89 c 0,40,29
 348 89 348 89 380.5 130 c 128,-1,30
EndSplineSet
EndChar

StartChar: eth
Encoding: 177 240 276
Width: 581
Flags: W
LayerCount: 2
Fore
SplineSet
515.5 431.5 m 128,-1,1
 543 362 543 362 543 286 c 0,2,3
 543 145 543 145 475.5 68.5 c 128,-1,4
 408 -8 408 -8 283 -8 c 0,5,6
 211 -8 211 -8 155 21 c 128,-1,7
 99 50 99 50 68.5 103 c 128,-1,8
 38 156 38 156 38 225 c 0,9,10
 38 292 38 292 68 344.5 c 128,-1,11
 98 397 98 397 151.5 426 c 128,-1,12
 205 455 205 455 273 455 c 0,13,14
 359 455 359 455 408 409 c 1,15,16
 384 474 384 474 329 526 c 1,17,-1
 201 487 l 2,18,19
 191 485 191 485 188 485 c 0,20,21
 173 485 173 485 163.5 495.5 c 128,-1,22
 154 506 154 506 154 519 c 0,23,24
 154 531 154 531 161.5 541 c 128,-1,25
 169 551 169 551 183 555 c 2,26,-1
 262 579 l 1,27,28
 229 600 229 600 188 619 c 0,29,30
 154 635 154 635 154 664 c 0,31,32
 154 683 154 683 168.5 697 c 128,-1,33
 183 711 183 711 206 711 c 0,34,35
 220 711 220 711 235 705 c 0,36,37
 318 673 318 673 384 616 c 1,38,-1
 490 648 l 2,39,40
 500 650 500 650 503 650 c 0,41,42
 519 650 519 650 528.5 640 c 128,-1,43
 538 630 538 630 538 616 c 0,44,45
 538 604 538 604 530.5 594 c 128,-1,46
 523 584 523 584 508 580 c 2,47,-1
 440 559 l 1,48,0
 488 501 488 501 515.5 431.5 c 128,-1,1
379.5 124.5 m 128,-1,50
 412 160 412 160 412 225 c 256,51,52
 412 290 412 290 380.5 325 c 128,-1,53
 349 360 349 360 288 360 c 0,54,55
 228 360 228 360 195.5 325.5 c 128,-1,56
 163 291 163 291 163 225 c 0,57,58
 163 158 163 158 195 123.5 c 128,-1,59
 227 89 227 89 287 89 c 256,60,49
 347 89 347 89 379.5 124.5 c 128,-1,50
EndSplineSet
EndChar

StartChar: dcaron
Encoding: 208 271 277
Width: 601
GlyphClass: 2
Flags: W
AnchorPoint: "Anchor-12" 566 705 basechar 0
AnchorPoint: "Anchor-11" 302 247 basechar 0
AnchorPoint: "Anchor-10" 302 493 basechar 0
AnchorPoint: "Anchor-8" 302 0 basechar 0
LayerCount: 2
Fore
SplineSet
576 700.5 m 128,-1,1
 587 711 587 711 602 711 c 0,2,3
 618 711 618 711 628.5 699 c 128,-1,4
 639 687 639 687 636 667 c 2,5,-1
 613 523 l 2,6,7
 612 512 612 512 605 505.5 c 128,-1,8
 598 499 598 499 589 499 c 0,9,10
 579 499 579 499 572 506.5 c 128,-1,11
 565 514 565 514 565 527 c 2,12,-1
 565 670 l 2,13,0
 565 690 565 690 576 700.5 c 128,-1,1
519 694 m 128,-1,15
 537 678 537 678 537 652 c 2,16,-1
 537 54 l 2,17,18
 537 27 537 27 520 11 c 128,-1,19
 503 -5 503 -5 475 -5 c 256,20,21
 447 -5 447 -5 430 11 c 128,-1,22
 413 27 413 27 413 54 c 2,23,-1
 413 79 l 1,24,25
 391 38 391 38 349.5 15 c 128,-1,26
 308 -8 308 -8 255 -8 c 0,27,28
 192 -8 192 -8 142.5 24 c 128,-1,29
 93 56 93 56 65.5 114.5 c 128,-1,30
 38 173 38 173 38 249 c 256,31,32
 38 325 38 325 65.5 382 c 128,-1,33
 93 439 93 439 142 470 c 128,-1,34
 191 501 191 501 255 501 c 0,35,36
 308 501 308 501 349 479 c 128,-1,37
 390 457 390 457 412 417 c 1,38,-1
 412 654 l 2,39,40
 412 679 412 679 428.5 694.5 c 128,-1,41
 445 710 445 710 473 710 c 256,42,14
 501 710 501 710 519 694 c 128,-1,15
380.5 130 m 128,-1,44
 413 171 413 171 413 247 c 256,45,46
 413 323 413 323 380.5 363.5 c 128,-1,47
 348 404 348 404 289 404 c 0,48,49
 229 404 229 404 196 364 c 128,-1,50
 163 324 163 324 163 249 c 0,51,52
 163 173 163 173 196 131 c 128,-1,53
 229 89 229 89 288 89 c 0,54,43
 348 89 348 89 380.5 130 c 128,-1,44
EndSplineSet
EndChar

StartChar: dcroat
Encoding: 210 273 278
Width: 601
Flags: W
LayerCount: 2
Fore
SplineSet
623.5 618 m 128,-1,1
 637 606 637 606 637 585 c 256,2,3
 637 564 637 564 623.5 552.5 c 128,-1,4
 610 541 610 541 584 541 c 2,5,-1
 537 541 l 1,6,-1
 537 54 l 2,7,8
 537 27 537 27 520 11 c 128,-1,9
 503 -5 503 -5 475 -5 c 256,10,11
 447 -5 447 -5 430 11 c 128,-1,12
 413 27 413 27 413 54 c 2,13,-1
 413 79 l 1,14,15
 391 38 391 38 349.5 15 c 128,-1,16
 308 -8 308 -8 255 -8 c 0,17,18
 192 -8 192 -8 142.5 24 c 128,-1,19
 93 56 93 56 65.5 114.5 c 128,-1,20
 38 173 38 173 38 249 c 256,21,22
 38 325 38 325 65.5 382 c 128,-1,23
 93 439 93 439 142 470 c 128,-1,24
 191 501 191 501 255 501 c 0,25,26
 308 501 308 501 349 479 c 128,-1,27
 390 457 390 457 412 417 c 1,28,-1
 412 541 l 1,29,-1
 264 541 l 2,30,31
 239 541 239 541 225.5 552.5 c 128,-1,32
 212 564 212 564 212 585 c 256,33,34
 212 606 212 606 225.5 618 c 128,-1,35
 239 630 239 630 264 630 c 2,36,-1
 412 630 l 1,37,-1
 412 654 l 2,38,39
 412 679 412 679 428.5 694.5 c 128,-1,40
 445 710 445 710 473 710 c 256,41,42
 501 710 501 710 519 694 c 128,-1,43
 537 678 537 678 537 652 c 2,44,-1
 537 630 l 1,45,-1
 584 630 l 2,46,0
 610 630 610 630 623.5 618 c 128,-1,1
380.5 130 m 128,-1,48
 413 171 413 171 413 247 c 256,49,50
 413 323 413 323 380.5 363.5 c 128,-1,51
 348 404 348 404 289 404 c 0,52,53
 229 404 229 404 196 364 c 128,-1,54
 163 324 163 324 163 249 c 0,55,56
 163 173 163 173 196 131 c 128,-1,57
 229 89 229 89 288 89 c 0,58,47
 348 89 348 89 380.5 130 c 128,-1,48
EndSplineSet
EndChar

StartChar: e
Encoding: 71 101 282
Width: 531
GlyphClass: 2
Flags: W
AnchorPoint: "Anchor-10" 276 493 basechar 0
AnchorPoint: "Anchor-9" 392 10 basechar 0
AnchorPoint: "Anchor-8" 294 0 basechar 0
LayerCount: 2
Fore
SplineSet
479.5 121 m 128,-1,1
 490 108 490 108 490 86 c 0,2,3
 490 55 490 55 453 34 c 0,4,5
 419 15 419 15 376 3.5 c 128,-1,6
 333 -8 333 -8 294 -8 c 0,7,8
 176 -8 176 -8 107 60 c 128,-1,9
 38 128 38 128 38 246 c 0,10,11
 38 321 38 321 68 379 c 128,-1,12
 98 437 98 437 152.5 469 c 128,-1,13
 207 501 207 501 276 501 c 0,14,15
 342 501 342 501 391 472 c 128,-1,16
 440 443 440 443 467 390 c 128,-1,17
 494 337 494 337 494 265 c 0,18,19
 494 222 494 222 456 222 c 2,20,-1
 161 222 l 1,21,22
 167 153 167 153 200 120.5 c 128,-1,23
 233 88 233 88 296 88 c 0,24,25
 328 88 328 88 352.5 96 c 128,-1,26
 377 104 377 104 408 118 c 0,27,28
 438 134 438 134 452 134 c 0,29,0
 469 134 469 134 479.5 121 c 128,-1,1
197.5 381 m 128,-1,31
 167 349 167 349 161 289 c 1,32,-1
 387 289 l 1,33,34
 385 350 385 350 357 381.5 c 128,-1,35
 329 413 329 413 279 413 c 0,36,30
 228 413 228 413 197.5 381 c 128,-1,31
EndSplineSet
EndChar

StartChar: uni1E1D
Encoding: 683 7709 286
Width: 531
GlyphClass: 2
Flags: W
AnchorPoint: "Anchor-10" 276 685 basechar 0
AnchorPoint: "Anchor-9" 392 10 basechar 0
AnchorPoint: "Anchor-8" 294 0 basechar 0
LayerCount: 2
Fore
SplineSet
174.5 604.5 m 128,-1,1
 129 634 129 634 110 683 c 0,2,3
 107 692 107 692 107 700 c 0,4,5
 107 717 107 717 118 727.5 c 128,-1,6
 129 738 129 738 144 738 c 0,7,8
 166 738 166 738 179 716 c 0,9,10
 211 659 211 659 276 659 c 256,11,12
 341 659 341 659 373 716 c 0,13,14
 386 737 386 737 408 737 c 0,15,16
 423 737 423 737 434 727 c 128,-1,17
 445 717 445 717 445 700 c 0,18,19
 445 692 445 692 442 683 c 0,20,21
 423 634 423 634 377.5 604.5 c 128,-1,22
 332 575 332 575 276 575 c 256,23,0
 220 575 220 575 174.5 604.5 c 128,-1,1
479.5 121 m 128,-1,25
 490 108 490 108 490 86 c 0,26,27
 490 55 490 55 453 34 c 0,28,29
 424 17 424 17 388.5 6.5 c 128,-1,30
 353 -4 353 -4 319 -7 c 1,31,-1
 315 -42 l 1,32,33
 331 -40 331 -40 338 -40 c 0,34,35
 369 -40 369 -40 390.5 -58.5 c 128,-1,36
 412 -77 412 -77 412 -109 c 0,37,38
 412 -147 412 -147 378.5 -171 c 128,-1,39
 345 -195 345 -195 284 -195 c 0,40,41
 242 -195 242 -195 214 -185 c 0,42,43
 205 -181 205 -181 200 -174 c 128,-1,44
 195 -167 195 -167 195 -158 c 0,45,46
 195 -144 195 -144 203.5 -135.5 c 128,-1,47
 212 -127 212 -127 226 -131 c 0,48,49
 260 -139 260 -139 282 -139 c 0,50,51
 332 -139 332 -139 332 -109 c 0,52,53
 332 -99 332 -99 325 -93 c 128,-1,54
 318 -87 318 -87 305 -87 c 0,55,56
 295 -87 295 -87 279 -90.5 c 128,-1,57
 263 -94 263 -94 259 -94 c 0,58,59
 250 -94 250 -94 244.5 -88.5 c 128,-1,60
 239 -83 239 -83 240 -74 c 2,61,-1
 248 -5 l 1,62,63
 150 8 150 8 94 74.5 c 128,-1,64
 38 141 38 141 38 246 c 0,65,66
 38 321 38 321 68 379 c 128,-1,67
 98 437 98 437 152.5 469 c 128,-1,68
 207 501 207 501 276 501 c 0,69,70
 342 501 342 501 391 472 c 128,-1,71
 440 443 440 443 467 390 c 128,-1,72
 494 337 494 337 494 265 c 0,73,74
 494 222 494 222 456 222 c 2,75,-1
 161 222 l 1,76,77
 167 153 167 153 200 120.5 c 128,-1,78
 233 88 233 88 296 88 c 0,79,80
 328 88 328 88 352.5 96 c 128,-1,81
 377 104 377 104 408 118 c 0,82,83
 438 134 438 134 452 134 c 0,84,24
 469 134 469 134 479.5 121 c 128,-1,25
197.5 381 m 128,-1,86
 167 349 167 349 161 289 c 1,87,-1
 387 289 l 1,88,89
 385 350 385 350 357 381.5 c 128,-1,90
 329 413 329 413 279 413 c 0,91,85
 228 413 228 413 197.5 381 c 128,-1,86
EndSplineSet
EndChar

StartChar: eogonek
Encoding: 218 281 303
Width: 531
GlyphClass: 2
Flags: W
AnchorPoint: "Anchor-10" 276 493 basechar 0
LayerCount: 2
Fore
SplineSet
466 -115 m 0,1,2
 477 -115 477 -115 483.5 -124 c 128,-1,3
 490 -133 490 -133 490 -145 c 0,4,5
 490 -166 490 -166 473 -174 c 0,6,7
 438 -195 438 -195 390 -195 c 0,8,9
 336 -195 336 -195 301.5 -164.5 c 128,-1,10
 267 -134 267 -134 267 -87 c 0,11,12
 267 -41 267 -41 301 -8 c 1,13,-1
 295 -8 l 2,14,15
 176 -8 176 -8 107 60 c 128,-1,16
 38 128 38 128 38 246 c 0,17,18
 38 321 38 321 68 379 c 128,-1,19
 98 437 98 437 152.5 469 c 128,-1,20
 207 501 207 501 276 501 c 0,21,22
 342 501 342 501 391 472 c 128,-1,23
 440 443 440 443 467 390 c 128,-1,24
 494 337 494 337 494 265 c 0,25,26
 494 222 494 222 456 222 c 2,27,-1
 161 222 l 1,28,29
 167 153 167 153 200 120.5 c 128,-1,30
 233 88 233 88 296 88 c 0,31,32
 328 88 328 88 352.5 96 c 128,-1,33
 377 104 377 104 408 118 c 0,34,35
 438 134 438 134 452 134 c 0,36,37
 469 134 469 134 479.5 121 c 128,-1,38
 490 108 490 108 490 86 c 0,39,40
 490 69 490 69 479.5 56 c 128,-1,41
 469 43 469 43 447 31 c 0,42,43
 393 2 393 2 372 -20 c 128,-1,44
 351 -42 351 -42 351 -69 c 256,45,46
 351 -96 351 -96 366.5 -111 c 128,-1,47
 382 -126 382 -126 408 -126 c 0,48,49
 432 -126 432 -126 456 -117 c 0,50,0
 464 -115 464 -115 466 -115 c 0,1,2
197.5 381 m 128,-1,52
 167 349 167 349 161 289 c 1,53,-1
 387 289 l 1,54,55
 385 350 385 350 357 381.5 c 128,-1,56
 329 413 329 413 279 413 c 0,57,51
 228 413 228 413 197.5 381 c 128,-1,52
EndSplineSet
EndChar

StartChar: uni0259
Encoding: 388 601 305
Width: 531
Flags: W
LayerCount: 2
Fore
SplineSet
374.5 470 m 128,-1,1
 431 439 431 439 461.5 381.5 c 128,-1,2
 492 324 492 324 492 247 c 0,3,4
 492 173 492 173 462.5 115 c 128,-1,5
 433 57 433 57 380.5 24.5 c 128,-1,6
 328 -8 328 -8 261 -8 c 0,7,8
 157 -8 157 -8 97 55 c 128,-1,9
 37 118 37 118 37 229 c 0,10,11
 37 271 37 271 75 271 c 2,12,-1
 372 271 l 1,13,14
 360 406 360 406 237 406 c 0,15,16
 204 406 204 406 178.5 397.5 c 128,-1,17
 153 389 153 389 126 375 c 0,18,19
 114 369 114 369 102.5 364.5 c 128,-1,20
 91 360 91 360 83 360 c 0,21,22
 66 360 66 360 55 373 c 128,-1,23
 44 386 44 386 44 407 c 0,24,25
 44 439 44 439 81 460 c 0,26,27
 117 479 117 479 160 490 c 128,-1,28
 203 501 203 501 242 501 c 0,29,0
 318 501 318 501 374.5 470 c 128,-1,1
336 113 m 128,-1,31
 366 145 366 145 372 205 c 1,32,-1
 147 205 l 1,33,34
 150 144 150 144 178 112.5 c 128,-1,35
 206 81 206 81 256 81 c 256,36,30
 306 81 306 81 336 113 c 128,-1,31
EndSplineSet
EndChar

StartChar: f
Encoding: 72 102 308
Width: 358
GlyphClass: 2
Flags: W
AnchorPoint: "Anchor-10" 162 493 basechar 0
AnchorPoint: "Anchor-8" 162 0 basechar 0
LayerCount: 2
Fore
SplineSet
245 584 m 128,-1,1
 224 559 224 559 224 512 c 2,2,-1
 224 489 l 1,3,-1
 309 489 l 2,4,5
 365 489 365 489 365 442 c 256,6,7
 365 395 365 395 309 395 c 2,8,-1
 224 395 l 1,9,-1
 224 54 l 2,10,11
 224 25 224 25 206.5 10 c 128,-1,12
 189 -5 189 -5 162 -5 c 256,13,14
 135 -5 135 -5 117 10 c 128,-1,15
 99 25 99 25 99 54 c 2,16,-1
 99 395 l 1,17,-1
 49 395 l 2,18,19
 -7 395 -7 395 -7 442 c 256,20,21
 -7 489 -7 489 49 489 c 2,22,-1
 99 489 l 1,23,-1
 99 496 l 2,24,25
 99 590 99 590 148.5 643.5 c 128,-1,26
 198 697 198 697 288 704 c 2,27,-1
 314 706 l 2,28,29
 354 709 354 709 370.5 697.5 c 128,-1,30
 387 686 387 686 387 662 c 0,31,32
 387 619 387 619 338 614 c 2,33,-1
 312 612 l 2,34,0
 266 609 266 609 245 584 c 128,-1,1
EndSplineSet
EndChar

StartChar: g
Encoding: 73 103 309
Width: 605
GlyphClass: 2
Flags: W
AnchorPoint: "Anchor-10" 304 493 basechar 0
AnchorPoint: "Anchor-8" 304 0 basechar 0
LayerCount: 2
Fore
SplineSet
524 483 m 128,-1,1
 541 467 541 467 541 440 c 2,2,-1
 541 45 l 2,3,4
 541 -70 541 -70 477 -129 c 128,-1,5
 413 -188 413 -188 288 -188 c 0,6,7
 179 -188 179 -188 106 -147 c 0,8,9
 69 -125 69 -125 69 -94 c 0,10,11
 69 -72 69 -72 79.5 -59 c 128,-1,12
 90 -46 90 -46 107 -46 c 0,13,14
 116 -46 116 -46 129 -50.5 c 128,-1,15
 142 -55 142 -55 156 -61 c 0,16,17
 192 -76 192 -76 220.5 -84 c 128,-1,18
 249 -92 249 -92 286 -92 c 0,19,20
 417 -92 417 -92 417 36 c 2,21,-1
 417 100 l 1,22,23
 395 59 395 59 353 36.5 c 128,-1,24
 311 14 311 14 257 14 c 0,25,26
 193 14 193 14 143.5 44.5 c 128,-1,27
 94 75 94 75 66 130 c 128,-1,28
 38 185 38 185 38 257 c 256,29,30
 38 329 38 329 65.5 384.5 c 128,-1,31
 93 440 93 440 143 470.5 c 128,-1,32
 193 501 193 501 257 501 c 0,33,34
 311 501 311 501 353 478.5 c 128,-1,35
 395 456 395 456 417 415 c 1,36,-1
 417 441 l 2,37,38
 417 467 417 467 434 483 c 128,-1,39
 451 499 451 499 479 499 c 256,40,0
 507 499 507 499 524 483 c 128,-1,1
383.5 150 m 128,-1,42
 417 189 417 189 417 257 c 0,43,44
 417 326 417 326 383.5 365 c 128,-1,45
 350 404 350 404 290 404 c 0,46,47
 231 404 231 404 197 365 c 128,-1,48
 163 326 163 326 163 257 c 0,49,50
 163 189 163 189 197 150 c 128,-1,51
 231 111 231 111 290 111 c 0,52,41
 350 111 350 111 383.5 150 c 128,-1,42
EndSplineSet
EndChar

StartChar: uni01E5
Encoding: 335 485 316
Width: 605
Flags: W
LayerCount: 2
Fore
SplineSet
598.5 -6.5 m 128,-1,1
 611 -17 611 -17 611 -33 c 256,2,3
 611 -49 611 -49 598.5 -59.5 c 128,-1,4
 586 -70 586 -70 566 -70 c 2,5,-1
 522 -70 l 1,6,7
 496 -139 496 -139 436.5 -176 c 128,-1,8
 377 -213 377 -213 288 -213 c 0,9,10
 189 -213 189 -213 111 -164 c 0,11,12
 69 -138 69 -138 69 -106 c 0,13,14
 69 -90 69 -90 78 -80.5 c 128,-1,15
 87 -71 87 -71 104 -71 c 0,16,17
 115 -71 115 -71 125.5 -75.5 c 128,-1,18
 136 -80 136 -80 156 -90 c 0,19,20
 189 -107 189 -107 215 -116 c 128,-1,21
 241 -125 241 -125 280 -125 c 0,22,23
 353 -125 353 -125 390 -70 c 1,24,-1
 282 -70 l 2,25,26
 262 -70 262 -70 249.5 -59.5 c 128,-1,27
 237 -49 237 -49 237 -33 c 256,28,29
 237 -17 237 -17 249.5 -6.5 c 128,-1,30
 262 4 262 4 282 4 c 2,31,-1
 415 4 l 1,32,33
 417 24 417 24 417 36 c 2,34,-1
 417 110 l 1,35,36
 395 74 395 74 353 53.5 c 128,-1,37
 311 33 311 33 257 33 c 0,38,39
 193 33 193 33 143.5 61 c 128,-1,40
 94 89 94 89 66 140 c 128,-1,41
 38 191 38 191 38 257 c 0,42,43
 38 329 38 329 65.5 384.5 c 128,-1,44
 93 440 93 440 143 470.5 c 128,-1,45
 193 501 193 501 257 501 c 0,46,47
 311 501 311 501 353 478.5 c 128,-1,48
 395 456 395 456 417 415 c 1,49,-1
 417 441 l 2,50,51
 417 467 417 467 434 483 c 128,-1,52
 451 499 451 499 479 499 c 256,53,54
 507 499 507 499 524 483 c 128,-1,55
 541 467 541 467 541 440 c 2,56,-1
 541 45 l 2,57,58
 541 30 541 30 539 4 c 1,59,-1
 566 4 l 2,60,0
 586 4 586 4 598.5 -6.5 c 128,-1,1
383.5 155 m 128,-1,62
 417 192 417 192 417 257 c 0,63,64
 417 326 417 326 383.5 365 c 128,-1,65
 350 404 350 404 290 404 c 0,66,67
 231 404 231 404 197 365 c 128,-1,68
 163 326 163 326 163 257 c 0,69,70
 163 192 163 192 197 155 c 128,-1,71
 231 118 231 118 290 118 c 0,72,61
 350 118 350 118 383.5 155 c 128,-1,62
EndSplineSet
EndChar

StartChar: h
Encoding: 74 104 317
Width: 585
GlyphClass: 2
Flags: W
AnchorPoint: "Anchor-11" 294 247 basechar 0
AnchorPoint: "Anchor-10" 128 705 basechar 0
AnchorPoint: "Anchor-8" 294 0 basechar 0
LayerCount: 2
Fore
SplineSet
523 300 m 2,1,-1
 523 54 l 2,2,3
 523 26 523 26 506.5 10 c 128,-1,4
 490 -6 490 -6 461 -6 c 256,5,6
 432 -6 432 -6 415 10 c 128,-1,7
 398 26 398 26 398 54 c 2,8,-1
 398 300 l 2,9,10
 398 353 398 353 376.5 377.5 c 128,-1,11
 355 402 355 402 309 402 c 0,12,13
 255 402 255 402 222.5 368 c 128,-1,14
 190 334 190 334 190 277 c 2,15,-1
 190 54 l 2,16,17
 190 26 190 26 173 10 c 128,-1,18
 156 -6 156 -6 127 -6 c 256,19,20
 98 -6 98 -6 81.5 10 c 128,-1,21
 65 26 65 26 65 54 c 2,22,-1
 65 652 l 2,23,24
 65 678 65 678 82.5 694 c 128,-1,25
 100 710 100 710 128 710 c 256,26,27
 156 710 156 710 173 695 c 128,-1,28
 190 680 190 680 190 654 c 2,29,-1
 190 421 l 1,30,31
 215 460 215 460 256.5 480.5 c 128,-1,32
 298 501 298 501 351 501 c 0,33,0
 523 501 523 501 523 300 c 2,1,-1
EndSplineSet
EndChar

StartChar: hbar
Encoding: 232 295 318
Width: 585
Flags: W
LayerCount: 2
Fore
SplineSet
523 300 m 2,1,-1
 523 54 l 2,2,3
 523 26 523 26 506.5 10 c 128,-1,4
 490 -6 490 -6 461 -6 c 256,5,6
 432 -6 432 -6 415 10 c 128,-1,7
 398 26 398 26 398 54 c 2,8,-1
 398 300 l 2,9,10
 398 353 398 353 376.5 377.5 c 128,-1,11
 355 402 355 402 309 402 c 0,12,13
 255 402 255 402 222.5 368 c 128,-1,14
 190 334 190 334 190 277 c 2,15,-1
 190 54 l 2,16,17
 190 26 190 26 173 10 c 128,-1,18
 156 -6 156 -6 127 -6 c 256,19,20
 98 -6 98 -6 81.5 10 c 128,-1,21
 65 26 65 26 65 54 c 2,22,-1
 65 541 l 1,23,-1
 17 541 l 2,24,25
 -8 541 -8 541 -21.5 552.5 c 128,-1,26
 -35 564 -35 564 -35 585 c 256,27,28
 -35 606 -35 606 -21.5 618 c 128,-1,29
 -8 630 -8 630 17 630 c 2,30,-1
 65 630 l 1,31,-1
 65 652 l 2,32,33
 65 678 65 678 82.5 694 c 128,-1,34
 100 710 100 710 128 710 c 256,35,36
 156 710 156 710 173 695 c 128,-1,37
 190 680 190 680 190 654 c 2,38,-1
 190 630 l 1,39,-1
 337 630 l 2,40,41
 363 630 363 630 376.5 618 c 128,-1,42
 390 606 390 606 390 585 c 256,43,44
 390 564 390 564 376.5 552.5 c 128,-1,45
 363 541 363 541 337 541 c 2,46,-1
 190 541 l 1,47,-1
 190 421 l 1,48,49
 215 460 215 460 256.5 480.5 c 128,-1,50
 298 501 298 501 351 501 c 0,51,0
 523 501 523 501 523 300 c 2,1,-1
EndSplineSet
EndChar

StartChar: dotlessi
Encoding: 242 305 324
Width: 254
GlyphClass: 2
Flags: W
AnchorPoint: "Anchor-10" 127 493 basechar 0
AnchorPoint: "Anchor-9" 171 10 basechar 0
AnchorPoint: "Anchor-8" 127 0 basechar 0
LayerCount: 2
Fore
SplineSet
82.5 9.5 m 128,-1,1
 65 25 65 25 65 54 c 2,2,-1
 65 440 l 2,3,4
 65 469 65 469 82.5 484 c 128,-1,5
 100 499 100 499 127 499 c 256,6,7
 154 499 154 499 172 484 c 128,-1,8
 190 469 190 469 190 440 c 2,9,-1
 190 54 l 2,10,11
 190 25 190 25 172 9.5 c 128,-1,12
 154 -6 154 -6 127 -6 c 256,13,0
 100 -6 100 -6 82.5 9.5 c 128,-1,1
EndSplineSet
EndChar

StartChar: iogonek
Encoding: 240 303 337
Width: 254
Flags: W
LayerCount: 2
Fore
SplineSet
73 606.5 m 128,-1,1
 53 625 53 625 53 655 c 256,2,3
 53 685 53 685 73 703 c 128,-1,4
 93 721 93 721 127 721 c 0,5,6
 160 721 160 721 180.5 703 c 128,-1,7
 201 685 201 685 201 655 c 256,8,9
 201 625 201 625 181 606.5 c 128,-1,10
 161 588 161 588 127 588 c 256,11,0
 93 588 93 588 73 606.5 c 128,-1,1
211 -115 m 0,13,14
 222 -115 222 -115 228.5 -123.5 c 128,-1,15
 235 -132 235 -132 235 -144 c 0,16,17
 235 -166 235 -166 218 -174 c 0,18,19
 180 -195 180 -195 135 -195 c 0,20,21
 81 -195 81 -195 46.5 -165 c 128,-1,22
 12 -135 12 -135 12 -85 c 0,23,24
 12 -54 12 -54 28 -26.5 c 128,-1,25
 44 1 44 1 75 19 c 1,26,27
 65 34 65 34 65 54 c 2,28,-1
 65 440 l 2,29,30
 65 469 65 469 82.5 484 c 128,-1,31
 100 499 100 499 127 499 c 256,32,33
 154 499 154 499 172 484 c 128,-1,34
 190 469 190 469 190 440 c 2,35,-1
 190 54 l 2,36,37
 190 15 190 15 158 2 c 0,38,39
 130 -7 130 -7 113 -24.5 c 128,-1,40
 96 -42 96 -42 96 -69 c 256,41,42
 96 -96 96 -96 112 -111 c 128,-1,43
 128 -126 128 -126 153 -126 c 0,44,45
 177 -126 177 -126 201 -117 c 0,46,12
 209 -115 209 -115 211 -115 c 0,13,14
EndSplineSet
EndChar

StartChar: uni0237
Encoding: 387 567 340
Width: 254
GlyphClass: 2
Flags: W
AnchorPoint: "Anchor-10" 126 493 basechar 0
AnchorPoint: "Anchor-8" 126 0 basechar 0
LayerCount: 2
Fore
SplineSet
-60.5 -172 m 128,-1,1
 -80 -160 -80 -160 -80 -135 c 0,2,3
 -80 -94 -80 -94 -30 -90 c 2,4,-1
 -3 -88 l 2,5,6
 31 -86 31 -86 48 -67 c 128,-1,7
 65 -48 65 -48 65 -9 c 2,8,-1
 65 440 l 2,9,10
 65 469 65 469 82.5 484 c 128,-1,11
 100 499 100 499 127 499 c 256,12,13
 154 499 154 499 172 484 c 128,-1,14
 190 469 190 469 190 440 c 2,15,-1
 190 0 l 2,16,17
 190 -168 190 -168 22 -180 c 2,18,-1
 -5 -182 l 2,19,0
 -41 -184 -41 -184 -60.5 -172 c 128,-1,1
EndSplineSet
EndChar

StartChar: k
Encoding: 77 107 342
Width: 536
GlyphClass: 2
Flags: W
AnchorPoint: "Anchor-10" 268 493 basechar 0
AnchorPoint: "Anchor-8" 268 0 basechar 0
LayerCount: 2
Fore
SplineSet
520 54 m 0,1,2
 520 31 520 31 503.5 13 c 128,-1,3
 487 -5 487 -5 465 -5 c 256,4,5
 443 -5 443 -5 424 13 c 2,6,-1
 190 225 l 1,7,-1
 190 54 l 2,8,9
 190 25 190 25 172 10 c 128,-1,10
 154 -5 154 -5 127 -5 c 256,11,12
 100 -5 100 -5 82.5 10 c 128,-1,13
 65 25 65 25 65 54 c 2,14,-1
 65 651 l 2,15,16
 65 680 65 680 82.5 695 c 128,-1,17
 100 710 100 710 127 710 c 256,18,19
 154 710 154 710 172 695 c 128,-1,20
 190 680 190 680 190 651 c 2,21,-1
 190 275 l 1,22,-1
 404 480 l 2,23,24
 422 498 422 498 445 498 c 256,25,26
 468 498 468 498 485 481 c 128,-1,27
 502 464 502 464 502 441 c 256,28,29
 502 418 502 418 483 399 c 2,30,-1
 326 253 l 1,31,-1
 500 97 l 2,32,0
 520 78 520 78 520 54 c 0,1,2
EndSplineSet
EndChar

StartChar: kgreenlandic
Encoding: 247 312 345
Width: 536
GlyphClass: 2
Flags: W
AnchorPoint: "Anchor-10" 268 493 basechar 0
AnchorPoint: "Anchor-8" 268 0 basechar 0
LayerCount: 2
Fore
SplineSet
520 54 m 0,1,2
 520 31 520 31 503.5 13 c 128,-1,3
 487 -5 487 -5 465 -5 c 256,4,5
 443 -5 443 -5 424 13 c 2,6,-1
 190 225 l 1,7,-1
 190 54 l 2,8,9
 190 25 190 25 172 10 c 128,-1,10
 154 -5 154 -5 127 -5 c 256,11,12
 100 -5 100 -5 82.5 10 c 128,-1,13
 65 25 65 25 65 54 c 2,14,-1
 65 440 l 2,15,16
 65 469 65 469 82.5 484 c 128,-1,17
 100 499 100 499 127 499 c 256,18,19
 154 499 154 499 172 484 c 128,-1,20
 190 469 190 469 190 440 c 2,21,-1
 190 275 l 1,22,-1
 404 480 l 2,23,24
 422 498 422 498 445 498 c 256,25,26
 468 498 468 498 485 481 c 128,-1,27
 502 464 502 464 502 441 c 256,28,29
 502 418 502 418 483 399 c 2,30,-1
 326 253 l 1,31,-1
 500 97 l 2,32,0
 520 78 520 78 520 54 c 0,1,2
EndSplineSet
EndChar

StartChar: l
Encoding: 78 108 346
Width: 254
GlyphClass: 2
Flags: W
AnchorPoint: "Anchor-12" 219 705 basechar 0
AnchorPoint: "Anchor-11" 127 247 basechar 0
AnchorPoint: "Anchor-10" 127 705 basechar 0
AnchorPoint: "Anchor-8" 127 0 basechar 0
LayerCount: 2
Fore
SplineSet
82.5 9.5 m 128,-1,1
 65 25 65 25 65 54 c 2,2,-1
 65 651 l 2,3,4
 65 680 65 680 82.5 695 c 128,-1,5
 100 710 100 710 127 710 c 256,6,7
 154 710 154 710 172 695 c 128,-1,8
 190 680 190 680 190 651 c 2,9,-1
 190 54 l 2,10,11
 190 25 190 25 172 9.5 c 128,-1,12
 154 -6 154 -6 127 -6 c 256,13,0
 100 -6 100 -6 82.5 9.5 c 128,-1,1
EndSplineSet
EndChar

StartChar: lcaron
Encoding: 253 318 348
Width: 254
GlyphClass: 2
Flags: W
AnchorPoint: "Anchor-12" 219 705 basechar 0
AnchorPoint: "Anchor-11" 127 247 basechar 0
AnchorPoint: "Anchor-10" 127 705 basechar 0
AnchorPoint: "Anchor-8" 127 0 basechar 0
LayerCount: 2
Fore
SplineSet
259 505.5 m 128,-1,1
 252 499 252 499 243 499 c 0,2,3
 233 499 233 499 226 506.5 c 128,-1,4
 219 514 219 514 219 527 c 2,5,-1
 219 670 l 2,6,7
 219 690 219 690 230 700.5 c 128,-1,8
 241 711 241 711 256 711 c 0,9,10
 272 711 272 711 282.5 699 c 128,-1,11
 293 687 293 687 290 667 c 2,12,-1
 267 523 l 2,13,0
 266 512 266 512 259 505.5 c 128,-1,1
82.5 9.5 m 128,-1,15
 65 25 65 25 65 54 c 2,16,-1
 65 651 l 2,17,18
 65 680 65 680 82.5 695 c 128,-1,19
 100 710 100 710 127 710 c 256,20,21
 154 710 154 710 172 695 c 128,-1,22
 190 680 190 680 190 651 c 2,23,-1
 190 54 l 2,24,25
 190 25 190 25 172 9.5 c 128,-1,26
 154 -6 154 -6 127 -6 c 256,27,14
 100 -6 100 -6 82.5 9.5 c 128,-1,15
EndSplineSet
EndChar

StartChar: lslash
Encoding: 257 322 354
Width: 326
Flags: W
LayerCount: 2
Fore
SplineSet
278 470 m 0,1,2
 298 470 298 470 311.5 455.5 c 128,-1,3
 325 441 325 441 325 422 c 0,4,5
 325 394 325 394 296 377 c 2,6,-1
 225 336 l 1,7,-1
 225 54 l 2,8,9
 225 25 225 25 207.5 9.5 c 128,-1,10
 190 -6 190 -6 163 -6 c 256,11,12
 136 -6 136 -6 118 9.5 c 128,-1,13
 100 25 100 25 100 54 c 2,14,-1
 100 263 l 1,15,-1
 78 250 l 2,16,17
 61 241 61 241 47 241 c 0,18,19
 27 241 27 241 13.5 255.5 c 128,-1,20
 0 270 0 270 0 289 c 0,21,22
 0 317 0 317 29 334 c 2,23,-1
 100 375 l 1,24,-1
 100 651 l 2,25,26
 100 680 100 680 118 695 c 128,-1,27
 136 710 136 710 163 710 c 256,28,29
 190 710 190 710 207.5 695 c 128,-1,30
 225 680 225 680 225 651 c 2,31,-1
 225 448 l 1,32,-1
 248 461 l 2,33,0
 265 470 265 470 278 470 c 0,1,2
EndSplineSet
EndChar

StartChar: m
Encoding: 79 109 355
Width: 873
GlyphClass: 2
Flags: W
AnchorPoint: "Anchor-10" 438 493 basechar 0
AnchorPoint: "Anchor-8" 438 0 basechar 0
LayerCount: 2
Fore
SplineSet
768.5 453.5 m 128,-1,1
 811 406 811 406 811 300 c 2,2,-1
 811 54 l 2,3,4
 811 25 811 25 793.5 9.5 c 128,-1,5
 776 -6 776 -6 748 -6 c 0,6,7
 721 -6 721 -6 703.5 9.5 c 128,-1,8
 686 25 686 25 686 54 c 2,9,-1
 686 300 l 2,10,11
 686 355 686 355 666.5 378.5 c 128,-1,12
 647 402 647 402 607 402 c 0,13,14
 558 402 558 402 529 368.5 c 128,-1,15
 500 335 500 335 500 277 c 2,16,-1
 500 54 l 2,17,18
 500 25 500 25 482.5 9.5 c 128,-1,19
 465 -6 465 -6 438 -6 c 256,20,21
 411 -6 411 -6 393 9.5 c 128,-1,22
 375 25 375 25 375 54 c 2,23,-1
 375 300 l 2,24,25
 375 355 375 355 355.5 378.5 c 128,-1,26
 336 402 336 402 296 402 c 0,27,28
 247 402 247 402 218.5 368.5 c 128,-1,29
 190 335 190 335 190 277 c 2,30,-1
 190 54 l 2,31,32
 190 25 190 25 172 9.5 c 128,-1,33
 154 -6 154 -6 127 -6 c 256,34,35
 100 -6 100 -6 82.5 9.5 c 128,-1,36
 65 25 65 25 65 54 c 2,37,-1
 65 441 l 2,38,39
 65 469 65 469 83 484 c 128,-1,40
 101 499 101 499 128 499 c 0,41,42
 154 499 154 499 170.5 484.5 c 128,-1,43
 187 470 187 470 187 443 c 2,44,-1
 187 419 l 1,45,46
 210 459 210 459 248.5 480 c 128,-1,47
 287 501 287 501 337 501 c 0,48,49
 447 501 447 501 484 409 c 1,50,51
 506 451 506 451 549 476 c 128,-1,52
 592 501 592 501 646 501 c 0,53,0
 726 501 726 501 768.5 453.5 c 128,-1,1
EndSplineSet
EndChar

StartChar: n
Encoding: 80 110 357
Width: 585
GlyphClass: 2
Flags: W
AnchorPoint: "Anchor-10" 294 493 basechar 0
AnchorPoint: "Anchor-8" 294 0 basechar 0
LayerCount: 2
Fore
SplineSet
480 451 m 128,-1,1
 523 401 523 401 523 300 c 2,2,-1
 523 54 l 2,3,4
 523 26 523 26 506.5 10 c 128,-1,5
 490 -6 490 -6 461 -6 c 256,6,7
 432 -6 432 -6 415 10 c 128,-1,8
 398 26 398 26 398 54 c 2,9,-1
 398 293 l 2,10,11
 398 350 398 350 376.5 376 c 128,-1,12
 355 402 355 402 309 402 c 0,13,14
 255 402 255 402 222.5 368 c 128,-1,15
 190 334 190 334 190 277 c 2,16,-1
 190 54 l 2,17,18
 190 26 190 26 173 10 c 128,-1,19
 156 -6 156 -6 127 -6 c 256,20,21
 98 -6 98 -6 81.5 10 c 128,-1,22
 65 26 65 26 65 54 c 2,23,-1
 65 441 l 2,24,25
 65 467 65 467 82 483 c 128,-1,26
 99 499 99 499 128 499 c 0,27,28
 154 499 154 499 170.5 483.5 c 128,-1,29
 187 468 187 468 187 443 c 2,30,-1
 187 416 l 1,31,32
 212 457 212 457 254 479 c 128,-1,33
 296 501 296 501 349 501 c 0,34,0
 437 501 437 501 480 451 c 128,-1,1
EndSplineSet
EndChar

StartChar: eng
Encoding: 266 331 364
Width: 585
Flags: W
LayerCount: 2
Fore
SplineSet
480 451 m 128,-1,1
 523 401 523 401 523 300 c 2,2,-1
 523 0 l 2,3,4
 523 -85 523 -85 482 -129.5 c 128,-1,5
 441 -174 441 -174 356 -180 c 2,6,-1
 328 -182 l 2,7,8
 292 -184 292 -184 273 -172 c 128,-1,9
 254 -160 254 -160 254 -135 c 0,10,11
 254 -114 254 -114 266 -103 c 128,-1,12
 278 -92 278 -92 303 -90 c 2,13,-1
 331 -88 l 2,14,15
 365 -86 365 -86 381.5 -66.5 c 128,-1,16
 398 -47 398 -47 398 -9 c 2,17,-1
 398 300 l 2,18,19
 398 353 398 353 376.5 377.5 c 128,-1,20
 355 402 355 402 309 402 c 0,21,22
 255 402 255 402 222.5 368 c 128,-1,23
 190 334 190 334 190 277 c 2,24,-1
 190 54 l 2,25,26
 190 26 190 26 173 10 c 128,-1,27
 156 -6 156 -6 127 -6 c 256,28,29
 98 -6 98 -6 81.5 10 c 128,-1,30
 65 26 65 26 65 54 c 2,31,-1
 65 441 l 2,32,33
 65 467 65 467 82 483 c 128,-1,34
 99 499 99 499 128 499 c 0,35,36
 154 499 154 499 170.5 483.5 c 128,-1,37
 187 468 187 468 187 443 c 2,38,-1
 187 415 l 1,39,40
 212 457 212 457 254.5 479 c 128,-1,41
 297 501 297 501 349 501 c 0,42,0
 437 501 437 501 480 451 c 128,-1,1
EndSplineSet
EndChar

StartChar: o
Encoding: 81 111 368
Width: 575
GlyphClass: 2
Flags: W
AnchorPoint: "topright" 520 580 basechar 0
AnchorPoint: "Anchor-12" 347 493 basechar 0
AnchorPoint: "Anchor-11" 288 247 basechar 0
AnchorPoint: "Anchor-10" 288 493 basechar 0
AnchorPoint: "Anchor-9" 384 10 basechar 0
AnchorPoint: "Anchor-8" 288 0 basechar 0
LayerCount: 2
Fore
SplineSet
156.5 23 m 128,-1,1
 100 54 100 54 69 112 c 128,-1,2
 38 170 38 170 38 247 c 256,3,4
 38 324 38 324 69 381.5 c 128,-1,5
 100 439 100 439 156.5 470 c 128,-1,6
 213 501 213 501 288 501 c 256,7,8
 363 501 363 501 419.5 470 c 128,-1,9
 476 439 476 439 506.5 381.5 c 128,-1,10
 537 324 537 324 537 247 c 256,11,12
 537 170 537 170 506.5 112 c 128,-1,13
 476 54 476 54 419.5 23 c 128,-1,14
 363 -8 363 -8 288 -8 c 256,15,0
 213 -8 213 -8 156.5 23 c 128,-1,1
380 129 m 128,-1,17
 412 169 412 169 412 247 c 0,18,19
 412 324 412 324 380 364.5 c 128,-1,20
 348 405 348 405 288 405 c 256,21,22
 228 405 228 405 195.5 364.5 c 128,-1,23
 163 324 163 324 163 247 c 0,24,25
 163 169 163 169 195 129 c 128,-1,26
 227 89 227 89 287 89 c 0,27,16
 348 89 348 89 380 129 c 128,-1,17
EndSplineSet
Substitution2: "Single Substitution lookup 33 subtable" ordmasculine
Substitution2: "'aalt' Access All Alternates lookup 0 subtable" ordmasculine
EndChar

StartChar: ohorn
Encoding: 321 417 384
Width: 575
GlyphClass: 2
Flags: W
AnchorPoint: "Anchor-10" 288 493 basechar 0
AnchorPoint: "Anchor-8" 288 0 basechar 0
LayerCount: 2
Fore
SplineSet
517.5 356.5 m 128,-1,1
 537 307 537 307 537 246 c 0,2,3
 537 169 537 169 506.5 111.5 c 128,-1,4
 476 54 476 54 419.5 23 c 128,-1,5
 363 -8 363 -8 288 -8 c 256,6,7
 213 -8 213 -8 156.5 23 c 128,-1,8
 100 54 100 54 69 111.5 c 128,-1,9
 38 169 38 169 38 246 c 0,10,11
 38 324 38 324 69 381.5 c 128,-1,12
 100 439 100 439 156.5 470 c 128,-1,13
 213 501 213 501 288 501 c 0,14,15
 309 501 309 501 337 497 c 0,16,17
 352 494 352 494 365 494 c 0,18,19
 400 494 400 494 419 511.5 c 128,-1,20
 438 529 438 529 442 571 c 0,21,22
 448 628 448 628 503 628 c 0,23,24
 529 628 529 628 541.5 614.5 c 128,-1,25
 554 601 554 601 554 572 c 0,26,27
 554 527 554 527 529 491 c 128,-1,28
 504 455 504 455 460 439 c 1,29,0
 498 406 498 406 517.5 356.5 c 128,-1,1
380 128.5 m 128,-1,31
 412 168 412 168 412 246 c 256,32,33
 412 324 412 324 380 364.5 c 128,-1,34
 348 405 348 405 288 405 c 256,35,36
 228 405 228 405 195.5 364.5 c 128,-1,37
 163 324 163 324 163 246 c 0,38,39
 163 169 163 169 195 129 c 128,-1,40
 227 89 227 89 287 89 c 0,41,30
 348 89 348 89 380 128.5 c 128,-1,31
EndSplineSet
EndChar

StartChar: uni01EB
Encoding: 340 491 395
Width: 575
GlyphClass: 2
Flags: W
AnchorPoint: "Anchor-10" 288 493 basechar 0
LayerCount: 2
Fore
SplineSet
325 -23 m 128,-1,1
 308 -41 308 -41 308 -69 c 0,2,3
 308 -95 308 -95 323.5 -110.5 c 128,-1,4
 339 -126 339 -126 365 -126 c 0,5,6
 385 -126 385 -126 413 -117 c 0,7,8
 419 -115 419 -115 423 -115 c 0,9,10
 434 -115 434 -115 440.5 -123.5 c 128,-1,11
 447 -132 447 -132 447 -144 c 0,12,13
 447 -164 447 -164 430 -174 c 0,14,15
 393 -195 393 -195 347 -195 c 0,16,17
 293 -195 293 -195 258.5 -164.5 c 128,-1,18
 224 -134 224 -134 224 -87 c 256,19,20
 224 -40 224 -40 258 -6 c 1,21,22
 156 4 156 4 97 71.5 c 128,-1,23
 38 139 38 139 38 247 c 0,24,25
 38 324 38 324 69 381.5 c 128,-1,26
 100 439 100 439 156.5 470 c 128,-1,27
 213 501 213 501 288 501 c 256,28,29
 363 501 363 501 419.5 470 c 128,-1,30
 476 439 476 439 506.5 381.5 c 128,-1,31
 537 324 537 324 537 247 c 0,32,33
 537 157 537 157 495 93.5 c 128,-1,34
 453 30 453 30 380 7 c 0,35,0
 342 -5 342 -5 325 -23 c 128,-1,1
380 129 m 128,-1,37
 412 169 412 169 412 247 c 0,38,39
 412 324 412 324 380 364.5 c 128,-1,40
 348 405 348 405 288 405 c 256,41,42
 228 405 228 405 195.5 364.5 c 128,-1,43
 163 324 163 324 163 247 c 0,44,45
 163 169 163 169 195 129 c 128,-1,46
 227 89 227 89 287 89 c 0,47,36
 348 89 348 89 380 129 c 128,-1,37
EndSplineSet
EndChar

StartChar: oslash
Encoding: 185 248 396
Width: 575
GlyphClass: 2
Flags: W
AnchorPoint: "Anchor-10" 288 493 basechar 0
LayerCount: 2
Fore
SplineSet
514 365.5 m 128,-1,1
 537 313 537 313 537 247 c 0,2,3
 537 170 537 170 506.5 112 c 128,-1,4
 476 54 476 54 419.5 23 c 128,-1,5
 363 -8 363 -8 288 -8 c 0,6,7
 233 -8 233 -8 191 8 c 1,8,-1
 172 -25 l 2,9,10
 159 -45 159 -45 138 -45 c 0,11,12
 123 -45 123 -45 112 -35.5 c 128,-1,13
 101 -26 101 -26 101 -12 c 0,14,15
 101 -3 101 -3 107 8 c 2,16,-1
 127 43 l 1,17,18
 84 77 84 77 61 129 c 128,-1,19
 38 181 38 181 38 247 c 0,20,21
 38 324 38 324 69 381.5 c 128,-1,22
 100 439 100 439 156.5 470 c 128,-1,23
 213 501 213 501 288 501 c 0,24,25
 343 501 343 501 385 485 c 1,26,-1
 404 519 l 2,27,28
 415 539 415 539 437 539 c 0,29,30
 452 539 452 539 463.5 529.5 c 128,-1,31
 475 520 475 520 475 505 c 0,32,33
 475 496 475 496 469 485 c 2,34,-1
 449 451 l 1,35,0
 491 418 491 418 514 365.5 c 128,-1,1
184 141 m 1,37,-1
 334 399 l 1,38,39
 314 406 314 406 288 406 c 0,40,41
 226 406 226 406 193.5 365.5 c 128,-1,42
 161 325 161 325 161 247 c 0,43,36
 161 181 161 181 184 141 c 1,37,-1
414 247 m 0,45,46
 414 313 414 313 391 351 c 1,47,-1
 242 95 l 1,48,49
 263 89 263 89 287 89 c 0,50,44
 414 89 414 89 414 247 c 0,45,46
EndSplineSet
EndChar

StartChar: oe
Encoding: 274 339 402
Width: 900
GlyphClass: 2
Flags: W
AnchorPoint: "Anchor-10" 472 493 basechar 0
AnchorPoint: "Anchor-8" 472 0 basechar 0
LayerCount: 2
Fore
SplineSet
849.5 121 m 128,-1,1
 860 108 860 108 860 86 c 0,2,3
 860 54 860 54 823 34 c 0,4,5
 790 15 790 15 747 3.5 c 128,-1,6
 704 -8 704 -8 667 -8 c 0,7,8
 602 -8 602 -8 552.5 15.5 c 128,-1,9
 503 39 503 39 473 84 c 1,10,11
 444 40 444 40 395.5 16 c 128,-1,12
 347 -8 347 -8 285 -8 c 0,13,14
 211 -8 211 -8 155 23.5 c 128,-1,15
 99 55 99 55 68.5 112.5 c 128,-1,16
 38 170 38 170 38 247 c 256,17,18
 38 324 38 324 68.5 381.5 c 128,-1,19
 99 439 99 439 155 470 c 128,-1,20
 211 501 211 501 285 501 c 0,21,22
 348 501 348 501 396 477 c 128,-1,23
 444 453 444 453 474 408 c 1,24,25
 503 453 503 453 550 477 c 128,-1,26
 597 501 597 501 656 501 c 0,27,28
 717 501 717 501 764.5 471.5 c 128,-1,29
 812 442 812 442 838 388.5 c 128,-1,30
 864 335 864 335 864 265 c 0,31,32
 864 222 864 222 826 222 c 2,33,-1
 536 222 l 1,34,35
 542 153 542 153 574.5 120.5 c 128,-1,36
 607 88 607 88 669 88 c 0,37,38
 700 88 700 88 723.5 96 c 128,-1,39
 747 104 747 104 777 118 c 0,40,41
 790 125 790 125 801.5 129.5 c 128,-1,42
 813 134 813 134 822 134 c 0,43,0
 839 134 839 134 849.5 121 c 128,-1,1
572.5 381 m 128,-1,45
 542 349 542 349 536 289 c 1,46,-1
 757 289 l 1,47,48
 754 349 754 349 727 381 c 128,-1,49
 700 413 700 413 653 413 c 0,50,44
 603 413 603 413 572.5 381 c 128,-1,45
377.5 129 m 128,-1,52
 409 169 409 169 409 247 c 0,53,54
 409 324 409 324 377.5 364.5 c 128,-1,55
 346 405 346 405 286 405 c 0,56,57
 227 405 227 405 195 364.5 c 128,-1,58
 163 324 163 324 163 247 c 0,59,60
 163 169 163 169 194.5 129 c 128,-1,61
 226 89 226 89 286 89 c 256,62,51
 346 89 346 89 377.5 129 c 128,-1,52
EndSplineSet
EndChar

StartChar: p
Encoding: 82 112 403
Width: 601
GlyphClass: 2
Flags: W
AnchorPoint: "Anchor-10" 301 493 basechar 0
AnchorPoint: "Anchor-8" 301 0 basechar 0
LayerCount: 2
Fore
SplineSet
458.5 469 m 128,-1,1
 508 437 508 437 535.5 378.5 c 128,-1,2
 563 320 563 320 563 244 c 256,3,4
 563 168 563 168 535.5 111 c 128,-1,5
 508 54 508 54 459 23 c 128,-1,6
 410 -8 410 -8 346 -8 c 0,7,8
 294 -8 294 -8 253 14 c 128,-1,9
 212 36 212 36 190 75 c 1,10,-1
 190 -129 l 2,11,12
 190 -155 190 -155 173 -170 c 128,-1,13
 156 -185 156 -185 128 -185 c 256,14,15
 100 -185 100 -185 82.5 -169 c 128,-1,16
 65 -153 65 -153 65 -127 c 2,17,-1
 65 440 l 2,18,19
 65 467 65 467 81.5 483 c 128,-1,20
 98 499 98 499 126 499 c 256,21,22
 154 499 154 499 171 483 c 128,-1,23
 188 467 188 467 188 440 c 2,24,-1
 188 415 l 1,25,26
 210 456 210 456 251.5 478.5 c 128,-1,27
 293 501 293 501 346 501 c 0,28,0
 409 501 409 501 458.5 469 c 128,-1,1
405 129.5 m 128,-1,30
 438 170 438 170 438 244 c 0,31,32
 438 320 438 320 405 362 c 128,-1,33
 372 404 372 404 313 404 c 0,34,35
 253 404 253 404 220.5 363 c 128,-1,36
 188 322 188 322 188 246 c 0,37,38
 188 171 188 171 220.5 130 c 128,-1,39
 253 89 253 89 313 89 c 0,40,29
 372 89 372 89 405 129.5 c 128,-1,30
EndSplineSet
EndChar

StartChar: thorn
Encoding: 191 254 404
Width: 601
GlyphClass: 2
Flags: W
AnchorPoint: "Anchor-10" 301 493 basechar 0
AnchorPoint: "Anchor-8" 301 0 basechar 0
LayerCount: 2
Fore
SplineSet
458.5 469 m 128,-1,1
 508 437 508 437 535.5 378.5 c 128,-1,2
 563 320 563 320 563 244 c 0,3,4
 563 169 563 169 535.5 111.5 c 128,-1,5
 508 54 508 54 458.5 23 c 128,-1,6
 409 -8 409 -8 346 -8 c 0,7,8
 294 -8 294 -8 253 14 c 128,-1,9
 212 36 212 36 190 75 c 1,10,-1
 190 -129 l 2,11,12
 190 -154 190 -154 173 -169.5 c 128,-1,13
 156 -185 156 -185 128 -185 c 0,14,15
 99 -185 99 -185 82 -169 c 128,-1,16
 65 -153 65 -153 65 -127 c 2,17,-1
 65 652 l 2,18,19
 65 678 65 678 82 694 c 128,-1,20
 99 710 99 710 128 710 c 0,21,22
 156 710 156 710 173 694.5 c 128,-1,23
 190 679 190 679 190 654 c 2,24,-1
 190 418 l 1,25,26
 212 458 212 458 253 479.5 c 128,-1,27
 294 501 294 501 346 501 c 0,28,0
 409 501 409 501 458.5 469 c 128,-1,1
405.5 129.5 m 128,-1,30
 438 170 438 170 438 244 c 0,31,32
 438 319 438 319 405 361.5 c 128,-1,33
 372 404 372 404 313 404 c 0,34,35
 253 404 253 404 220.5 363 c 128,-1,36
 188 322 188 322 188 246 c 0,37,38
 188 171 188 171 220.5 130 c 128,-1,39
 253 89 253 89 313 89 c 256,40,29
 373 89 373 89 405.5 129.5 c 128,-1,30
EndSplineSet
EndChar

StartChar: q
Encoding: 83 113 405
Width: 601
GlyphClass: 2
Flags: W
AnchorPoint: "Anchor-10" 302 493 basechar 0
AnchorPoint: "Anchor-8" 302 0 basechar 0
LayerCount: 2
Fore
SplineSet
520 483 m 128,-1,1
 537 467 537 467 537 440 c 2,2,-1
 537 -127 l 2,3,4
 537 -153 537 -153 519 -169 c 128,-1,5
 501 -185 501 -185 473 -185 c 256,6,7
 445 -185 445 -185 428.5 -169.5 c 128,-1,8
 412 -154 412 -154 412 -129 c 2,9,-1
 412 77 l 1,10,11
 390 37 390 37 348.5 14.5 c 128,-1,12
 307 -8 307 -8 255 -8 c 0,13,14
 191 -8 191 -8 142 23 c 128,-1,15
 93 54 93 54 65.5 111 c 128,-1,16
 38 168 38 168 38 244 c 256,17,18
 38 320 38 320 65.5 378.5 c 128,-1,19
 93 437 93 437 142.5 469 c 128,-1,20
 192 501 192 501 255 501 c 0,21,22
 308 501 308 501 349.5 478.5 c 128,-1,23
 391 456 391 456 413 415 c 1,24,-1
 413 440 l 2,25,26
 413 467 413 467 430 483 c 128,-1,27
 447 499 447 499 475 499 c 256,28,0
 503 499 503 499 520 483 c 128,-1,1
380.5 130 m 128,-1,30
 413 171 413 171 413 246 c 0,31,32
 413 322 413 322 380.5 363 c 128,-1,33
 348 404 348 404 288 404 c 0,34,35
 229 404 229 404 196 362 c 128,-1,36
 163 320 163 320 163 244 c 0,37,38
 163 170 163 170 196 129.5 c 128,-1,39
 229 89 229 89 289 89 c 0,40,29
 348 89 348 89 380.5 130 c 128,-1,30
EndSplineSet
EndChar

StartChar: r
Encoding: 84 114 406
Width: 383
GlyphClass: 2
Flags: W
AnchorPoint: "Anchor-10" 226 493 basechar 0
AnchorPoint: "Anchor-8" 127 0 basechar 0
LayerCount: 2
Fore
SplineSet
379 488 m 128,-1,1
 394 475 394 475 394 449 c 0,2,3
 394 422 394 422 381 409 c 128,-1,4
 368 396 368 396 334 392 c 2,5,-1
 304 389 l 2,6,7
 245 383 245 383 217.5 349 c 128,-1,8
 190 315 190 315 190 264 c 2,9,-1
 190 54 l 2,10,11
 190 25 190 25 172 9.5 c 128,-1,12
 154 -6 154 -6 127 -6 c 256,13,14
 100 -6 100 -6 82.5 9.5 c 128,-1,15
 65 25 65 25 65 54 c 2,16,-1
 65 441 l 2,17,18
 65 469 65 469 82.5 484 c 128,-1,19
 100 499 100 499 126 499 c 256,20,21
 152 499 152 499 168 484.5 c 128,-1,22
 184 470 184 470 184 443 c 2,23,-1
 184 403 l 1,24,25
 203 447 203 447 240.5 471 c 128,-1,26
 278 495 278 495 324 498 c 2,27,-1
 338 499 l 2,28,0
 364 501 364 501 379 488 c 128,-1,1
EndSplineSet
EndChar

StartChar: s
Encoding: 85 115 414
Width: 485
GlyphClass: 2
Flags: W
AnchorPoint: "Anchor-10" 251 493 basechar 0
AnchorPoint: "Anchor-8" 242 0 basechar 0
LayerCount: 2
Fore
SplineSet
66 35 m 0,1,2
 34 54 34 54 34 89 c 0,3,4
 34 109 34 109 45 121.5 c 128,-1,5
 56 134 56 134 72 134 c 0,6,7
 89 134 89 134 119 118 c 0,8,9
 151 103 151 103 177.5 95 c 128,-1,10
 204 87 204 87 245 87 c 0,11,12
 287 87 287 87 310.5 101 c 128,-1,13
 334 115 334 115 334 140 c 0,14,15
 334 157 334 157 324.5 167 c 128,-1,16
 315 177 315 177 290.5 185.5 c 128,-1,17
 266 194 266 194 216 205 c 0,18,19
 127 223 127 223 88.5 256 c 128,-1,20
 50 289 50 289 50 347 c 0,21,22
 50 391 50 391 76 426.5 c 128,-1,23
 102 462 102 462 147.5 481.5 c 128,-1,24
 193 501 193 501 251 501 c 0,25,26
 293 501 293 501 332 490.5 c 128,-1,27
 371 480 371 480 402 460 c 0,28,29
 434 440 434 440 434 407 c 0,30,31
 434 387 434 387 423 373.5 c 128,-1,32
 412 360 412 360 396 360 c 0,33,34
 385 360 385 360 374.5 364.5 c 128,-1,35
 364 369 364 369 348 378 c 0,36,37
 319 393 319 393 298 400.5 c 128,-1,38
 277 408 277 408 246 408 c 0,39,40
 209 408 209 408 187.5 393 c 128,-1,41
 166 378 166 378 166 352 c 0,42,43
 166 327 166 327 188 314 c 128,-1,44
 210 301 210 301 273 288 c 0,45,46
 340 274 340 274 378 256 c 128,-1,47
 416 238 416 238 432.5 211 c 128,-1,48
 449 184 449 184 449 142 c 0,49,50
 449 74 449 74 392.5 33 c 128,-1,51
 336 -8 336 -8 242 -8 c 0,52,0
 133 -8 133 -8 66 35 c 0,1,2
EndSplineSet
EndChar

StartChar: scedilla
Encoding: 286 351 419
Width: 485
GlyphClass: 2
Flags: W
AnchorPoint: "Anchor-10" 251 493 basechar 0
AnchorPoint: "Anchor-8" 242 0 basechar 0
LayerCount: 2
Fore
SplineSet
400 38 m 128,-1,1
 351 -2 351 -2 267 -7 c 1,2,-1
 263 -42 l 1,3,4
 279 -40 279 -40 286 -40 c 0,5,6
 317 -40 317 -40 338.5 -58.5 c 128,-1,7
 360 -77 360 -77 360 -109 c 0,8,9
 360 -147 360 -147 326.5 -171 c 128,-1,10
 293 -195 293 -195 232 -195 c 0,11,12
 190 -195 190 -195 162 -185 c 0,13,14
 153 -181 153 -181 148 -174 c 128,-1,15
 143 -167 143 -167 143 -158 c 0,16,17
 143 -144 143 -144 151.5 -135.5 c 128,-1,18
 160 -127 160 -127 174 -131 c 0,19,20
 208 -139 208 -139 230 -139 c 0,21,22
 280 -139 280 -139 280 -109 c 0,23,24
 280 -99 280 -99 273 -93 c 128,-1,25
 266 -87 266 -87 253 -87 c 0,26,27
 243 -87 243 -87 227 -90.5 c 128,-1,28
 211 -94 211 -94 207 -94 c 0,29,30
 198 -94 198 -94 192.5 -88.5 c 128,-1,31
 187 -83 187 -83 188 -74 c 2,32,-1
 196 -6 l 1,33,34
 117 2 117 2 66 35 c 0,35,36
 34 54 34 54 34 89 c 0,37,38
 34 109 34 109 45 121.5 c 128,-1,39
 56 134 56 134 72 134 c 0,40,41
 89 134 89 134 119 118 c 0,42,43
 151 103 151 103 177.5 95 c 128,-1,44
 204 87 204 87 245 87 c 0,45,46
 287 87 287 87 310.5 101 c 128,-1,47
 334 115 334 115 334 140 c 0,48,49
 334 157 334 157 324.5 167 c 128,-1,50
 315 177 315 177 290.5 185.5 c 128,-1,51
 266 194 266 194 216 205 c 0,52,53
 127 223 127 223 88.5 256 c 128,-1,54
 50 289 50 289 50 347 c 0,55,56
 50 391 50 391 76 426.5 c 128,-1,57
 102 462 102 462 147.5 481.5 c 128,-1,58
 193 501 193 501 251 501 c 0,59,60
 293 501 293 501 332 490.5 c 128,-1,61
 371 480 371 480 402 460 c 0,62,63
 434 440 434 440 434 407 c 0,64,65
 434 387 434 387 423 373.5 c 128,-1,66
 412 360 412 360 396 360 c 0,67,68
 385 360 385 360 374.5 364.5 c 128,-1,69
 364 369 364 369 348 378 c 0,70,71
 319 393 319 393 298 400.5 c 128,-1,72
 277 408 277 408 246 408 c 0,73,74
 209 408 209 408 187.5 393 c 128,-1,75
 166 378 166 378 166 352 c 0,76,77
 166 327 166 327 188 314 c 128,-1,78
 210 301 210 301 273 288 c 0,79,80
 340 274 340 274 378 256 c 128,-1,81
 416 238 416 238 432.5 211 c 128,-1,82
 449 184 449 184 449 142 c 0,83,0
 449 78 449 78 400 38 c 128,-1,1
EndSplineSet
Substitution2: "'locl' Localized Forms in Latin lookup 8 subtable" uni0219
Substitution2: "'locl' Localized Forms in Latin lookup 7 subtable" uni0219
Substitution2: "'aalt' Access All Alternates lookup 0 subtable" uni0219
EndChar

StartChar: germandbls
Encoding: 160 223 425
Width: 655
Flags: W
LayerCount: 2
Fore
SplineSet
349 3.5 m 128,-1,1
 307 15 307 15 275 35 c 0,2,3
 243 54 243 54 243 89 c 0,4,5
 243 109 243 109 254 121.5 c 128,-1,6
 265 134 265 134 281 134 c 0,7,8
 292 134 292 134 304.5 129 c 128,-1,9
 317 124 317 124 330 117 c 0,10,11
 356 103 356 103 380 95 c 128,-1,12
 404 87 404 87 437 87 c 0,13,14
 475 87 475 87 495.5 101 c 128,-1,15
 516 115 516 115 516 140 c 0,16,17
 516 166 516 166 493.5 180 c 128,-1,18
 471 194 471 194 423 210 c 0,19,20
 377 225 377 225 348 239 c 128,-1,21
 319 253 319 253 298.5 280.5 c 128,-1,22
 278 308 278 308 278 351 c 0,23,24
 278 388 278 388 296 416 c 128,-1,25
 314 444 314 444 347 477 c 0,26,27
 373 504 373 504 385.5 522 c 128,-1,28
 398 540 398 540 398 561 c 0,29,30
 398 589 398 589 377 604.5 c 128,-1,31
 356 620 356 620 317 620 c 0,32,33
 256 620 256 620 223 582 c 128,-1,34
 190 544 190 544 190 474 c 2,35,-1
 190 54 l 2,36,37
 190 26 190 26 173 10 c 128,-1,38
 156 -6 156 -6 127 -6 c 256,39,40
 98 -6 98 -6 81.5 10 c 128,-1,41
 65 26 65 26 65 54 c 2,42,-1
 65 456 l 2,43,44
 65 579 65 579 132 645.5 c 128,-1,45
 199 712 199 712 322 712 c 0,46,47
 413 712 413 712 464 674.5 c 128,-1,48
 515 637 515 637 515 570 c 0,49,50
 515 531 515 531 496.5 502.5 c 128,-1,51
 478 474 478 474 443 439 c 0,52,53
 418 415 418 415 406 398.5 c 128,-1,54
 394 382 394 382 394 364 c 0,55,56
 394 340 394 340 415.5 326.5 c 128,-1,57
 437 313 437 313 483 298 c 0,58,59
 530 282 530 282 559 267 c 128,-1,60
 588 252 588 252 609.5 223.5 c 128,-1,61
 631 195 631 195 631 149 c 0,62,63
 631 78 631 78 577 35 c 128,-1,64
 523 -8 523 -8 434 -8 c 0,65,0
 391 -8 391 -8 349 3.5 c 128,-1,1
EndSplineSet
EndChar

StartChar: t
Encoding: 86 116 426
Width: 369
GlyphClass: 2
Flags: W
AnchorPoint: "Anchor-12" 270 705 basechar 0
AnchorPoint: "Anchor-11" 170 247 basechar 0
AnchorPoint: "Anchor-10" 162 635 basechar 0
AnchorPoint: "Anchor-8" 234 0 basechar 0
LayerCount: 2
Fore
SplineSet
369 42 m 0,1,2
 369 18 369 18 349.5 5.5 c 128,-1,3
 330 -7 330 -7 294 -5 c 2,4,-1
 267 -3 l 2,5,6
 99 9 99 9 99 177 c 2,7,-1
 99 395 l 1,8,-1
 49 395 l 2,9,10
 22 395 22 395 7.5 407 c 128,-1,11
 -7 419 -7 419 -7 442 c 256,12,13
 -7 465 -7 465 7.5 477 c 128,-1,14
 22 489 22 489 49 489 c 2,15,-1
 99 489 l 1,16,-1
 99 581 l 2,17,18
 99 608 99 608 116 624 c 128,-1,19
 133 640 133 640 162 640 c 0,20,21
 190 640 190 640 207 624 c 128,-1,22
 224 608 224 608 224 581 c 2,23,-1
 224 489 l 1,24,-1
 309 489 l 2,25,26
 336 489 336 489 350.5 477 c 128,-1,27
 365 465 365 465 365 442 c 256,28,29
 365 419 365 419 350.5 407 c 128,-1,30
 336 395 336 395 309 395 c 2,31,-1
 224 395 l 1,32,-1
 224 168 l 2,33,34
 224 94 224 94 292 89 c 2,35,-1
 319 87 l 2,36,0
 369 84 369 84 369 42 c 0,1,2
EndSplineSet
EndChar

StartChar: tbar
Encoding: 294 359 427
Width: 379
Flags: W
LayerCount: 2
Fore
SplineSet
374 42 m 0,1,2
 374 18 374 18 354.5 5.5 c 128,-1,3
 335 -7 335 -7 299 -5 c 2,4,-1
 272 -3 l 2,5,6
 104 9 104 9 104 177 c 2,7,-1
 104 236 l 1,8,-1
 70 236 l 2,9,10
 46 236 46 236 32 247.5 c 128,-1,11
 18 259 18 259 18 280 c 256,12,13
 18 301 18 301 32 313 c 128,-1,14
 46 325 46 325 70 325 c 2,15,-1
 104 325 l 1,16,-1
 104 395 l 1,17,-1
 54 395 l 2,18,19
 27 395 27 395 12.5 407 c 128,-1,20
 -2 419 -2 419 -2 442 c 256,21,22
 -2 465 -2 465 12.5 477 c 128,-1,23
 27 489 27 489 54 489 c 2,24,-1
 104 489 l 1,25,-1
 104 581 l 2,26,27
 104 608 104 608 121 624 c 128,-1,28
 138 640 138 640 167 640 c 0,29,30
 195 640 195 640 212 624 c 128,-1,31
 229 608 229 608 229 581 c 2,32,-1
 229 489 l 1,33,-1
 314 489 l 2,34,35
 341 489 341 489 355.5 477 c 128,-1,36
 370 465 370 465 370 442 c 256,37,38
 370 419 370 419 355.5 407 c 128,-1,39
 341 395 341 395 314 395 c 2,40,-1
 229 395 l 1,41,-1
 229 325 l 1,42,-1
 298 325 l 2,43,44
 322 325 322 325 336 313 c 128,-1,45
 350 301 350 301 350 280 c 256,46,47
 350 259 350 259 336 247.5 c 128,-1,48
 322 236 322 236 298 236 c 2,49,-1
 229 236 l 1,50,-1
 229 168 l 2,51,52
 229 94 229 94 297 89 c 2,53,-1
 324 87 l 2,54,0
 374 84 374 84 374 42 c 0,1,2
EndSplineSet
EndChar

StartChar: tcaron
Encoding: 292 357 428
Width: 369
GlyphClass: 2
Flags: W
AnchorPoint: "Anchor-12" 270 705 basechar 0
AnchorPoint: "Anchor-11" 170 247 basechar 0
AnchorPoint: "Anchor-10" 162 635 basechar 0
AnchorPoint: "Anchor-8" 234 0 basechar 0
LayerCount: 2
Fore
SplineSet
285 700 m 128,-1,1
 301 711 301 711 323 711 c 0,2,3
 344 711 344 711 360 701 c 128,-1,4
 376 691 376 691 376 673 c 0,5,6
 376 669 376 669 374 661 c 2,7,-1
 339 542 l 2,8,9
 335 532 335 532 325.5 526.5 c 128,-1,10
 316 521 316 521 304 521 c 0,11,12
 290 521 290 521 279.5 528 c 128,-1,13
 269 535 269 535 269 547 c 2,14,-1
 269 669 l 2,15,0
 269 689 269 689 285 700 c 128,-1,1
369 42 m 0,17,18
 369 18 369 18 349.5 5.5 c 128,-1,19
 330 -7 330 -7 294 -5 c 2,20,-1
 267 -3 l 2,21,22
 99 9 99 9 99 177 c 2,23,-1
 99 395 l 1,24,-1
 49 395 l 2,25,26
 22 395 22 395 7.5 407 c 128,-1,27
 -7 419 -7 419 -7 442 c 256,28,29
 -7 465 -7 465 7.5 477 c 128,-1,30
 22 489 22 489 49 489 c 2,31,-1
 99 489 l 1,32,-1
 99 581 l 2,33,34
 99 608 99 608 116 624 c 128,-1,35
 133 640 133 640 162 640 c 0,36,37
 190 640 190 640 207 624 c 128,-1,38
 224 608 224 608 224 581 c 2,39,-1
 224 489 l 1,40,-1
 309 489 l 2,41,42
 336 489 336 489 350.5 477 c 128,-1,43
 365 465 365 465 365 442 c 256,44,45
 365 419 365 419 350.5 407 c 128,-1,46
 336 395 336 395 309 395 c 2,47,-1
 224 395 l 1,48,-1
 224 168 l 2,49,50
 224 94 224 94 292 89 c 2,51,-1
 319 87 l 2,52,16
 369 84 369 84 369 42 c 0,17,18
EndSplineSet
EndChar

StartChar: uni0163
Encoding: 290 355 429
Width: 369
GlyphClass: 2
Flags: W
AnchorPoint: "Anchor-12" 270 705 basechar 0
AnchorPoint: "Anchor-11" 170 247 basechar 0
AnchorPoint: "Anchor-10" 162 635 basechar 0
AnchorPoint: "Anchor-8" 234 0 basechar 0
LayerCount: 2
Fore
SplineSet
260 -2 m 2,1,-1
 255 -42 l 1,2,3
 271 -40 271 -40 278 -40 c 0,4,5
 309 -40 309 -40 330.5 -58.5 c 128,-1,6
 352 -77 352 -77 352 -109 c 0,7,8
 352 -147 352 -147 318.5 -171 c 128,-1,9
 285 -195 285 -195 224 -195 c 0,10,11
 182 -195 182 -195 154 -185 c 0,12,13
 145 -181 145 -181 140 -174 c 128,-1,14
 135 -167 135 -167 135 -158 c 0,15,16
 135 -144 135 -144 143.5 -135.5 c 128,-1,17
 152 -127 152 -127 166 -131 c 0,18,19
 200 -139 200 -139 222 -139 c 0,20,21
 272 -139 272 -139 272 -109 c 0,22,23
 272 -99 272 -99 265 -93 c 128,-1,24
 258 -87 258 -87 245 -87 c 0,25,26
 235 -87 235 -87 219 -90.5 c 128,-1,27
 203 -94 203 -94 199 -94 c 0,28,29
 190 -94 190 -94 184.5 -88.5 c 128,-1,30
 179 -83 179 -83 180 -74 c 2,31,-1
 190 14 l 1,32,33
 99 53 99 53 99 177 c 2,34,-1
 99 395 l 1,35,-1
 49 395 l 2,36,37
 22 395 22 395 7.5 407 c 128,-1,38
 -7 419 -7 419 -7 442 c 256,39,40
 -7 465 -7 465 7.5 477 c 128,-1,41
 22 489 22 489 49 489 c 2,42,-1
 99 489 l 1,43,-1
 99 581 l 2,44,45
 99 608 99 608 116 624 c 128,-1,46
 133 640 133 640 162 640 c 0,47,48
 190 640 190 640 207 624 c 128,-1,49
 224 608 224 608 224 581 c 2,50,-1
 224 489 l 1,51,-1
 309 489 l 2,52,53
 336 489 336 489 350.5 477 c 128,-1,54
 365 465 365 465 365 442 c 256,55,56
 365 419 365 419 350.5 407 c 128,-1,57
 336 395 336 395 309 395 c 2,58,-1
 224 395 l 1,59,-1
 224 168 l 2,60,61
 224 94 224 94 292 89 c 2,62,-1
 319 87 l 2,63,64
 369 84 369 84 369 42 c 0,65,66
 369 18 369 18 349.5 5.5 c 128,-1,67
 330 -7 330 -7 294 -5 c 2,68,-1
 267 -3 l 2,69,0
 262 -3 262 -3 260 -2 c 2,1,-1
EndSplineSet
Substitution2: "'locl' Localized Forms in Latin lookup 8 subtable" uni021B
Substitution2: "'locl' Localized Forms in Latin lookup 7 subtable" uni021B
Substitution2: "'aalt' Access All Alternates lookup 0 subtable" uni021B
EndChar

StartChar: u
Encoding: 87 117 434
Width: 579
GlyphClass: 2
Flags: W
AnchorPoint: "Anchor-12" 419 493 basechar 0
AnchorPoint: "Anchor-10" 289 493 basechar 0
AnchorPoint: "Anchor-9" 494 10 basechar 0
AnchorPoint: "Anchor-8" 289 0 basechar 0
LayerCount: 2
Fore
SplineSet
497 483 m 128,-1,1
 514 467 514 467 514 440 c 2,2,-1
 514 52 l 2,3,4
 514 26 514 26 496.5 10 c 128,-1,5
 479 -6 479 -6 451 -6 c 0,6,7
 424 -6 424 -6 408 9 c 128,-1,8
 392 24 392 24 392 50 c 2,9,-1
 392 75 l 1,10,11
 369 35 369 35 330 13.5 c 128,-1,12
 291 -8 291 -8 242 -8 c 0,13,14
 62 -8 62 -8 62 194 c 2,15,-1
 62 440 l 2,16,17
 62 467 62 467 79 483 c 128,-1,18
 96 499 96 499 124 499 c 0,19,20
 153 499 153 499 170 483 c 128,-1,21
 187 467 187 467 187 440 c 2,22,-1
 187 193 l 2,23,24
 187 141 187 141 208 116 c 128,-1,25
 229 91 229 91 274 91 c 0,26,27
 326 91 326 91 357.5 125.5 c 128,-1,28
 389 160 389 160 389 217 c 2,29,-1
 389 440 l 2,30,31
 389 467 389 467 406 483 c 128,-1,32
 423 499 423 499 451 499 c 0,33,0
 480 499 480 499 497 483 c 128,-1,1
EndSplineSet
EndChar

StartChar: uhorn
Encoding: 323 432 444
Width: 599
GlyphClass: 2
Flags: W
AnchorPoint: "Anchor-10" 289 493 basechar 0
AnchorPoint: "Anchor-8" 289 0 basechar 0
LayerCount: 2
Fore
SplineSet
597 483.5 m 128,-1,1
 566 446 566 446 514 435 c 1,2,-1
 514 52 l 2,3,4
 514 26 514 26 496.5 10 c 128,-1,5
 479 -6 479 -6 451 -6 c 0,6,7
 424 -6 424 -6 408 9 c 128,-1,8
 392 24 392 24 392 50 c 2,9,-1
 392 75 l 1,10,11
 369 35 369 35 330 13.5 c 128,-1,12
 291 -8 291 -8 242 -8 c 0,13,14
 62 -8 62 -8 62 194 c 2,15,-1
 62 440 l 2,16,17
 62 467 62 467 79 483 c 128,-1,18
 96 499 96 499 124 499 c 0,19,20
 153 499 153 499 170 483 c 128,-1,21
 187 467 187 467 187 440 c 2,22,-1
 187 193 l 2,23,24
 187 141 187 141 208 116 c 128,-1,25
 229 91 229 91 272 91 c 0,26,27
 325 91 325 91 357 125.5 c 128,-1,28
 389 160 389 160 389 217 c 2,29,-1
 389 440 l 2,30,31
 389 494 389 494 448 499 c 0,32,33
 481 500 481 500 497 517 c 128,-1,34
 513 534 513 534 516 571 c 0,35,36
 519 601 519 601 534 614.5 c 128,-1,37
 549 628 549 628 577 628 c 0,38,39
 603 628 603 628 615.5 614.5 c 128,-1,40
 628 601 628 601 628 573 c 0,41,0
 628 521 628 521 597 483.5 c 128,-1,1
EndSplineSet
EndChar

StartChar: uogonek
Encoding: 306 371 454
Width: 579
Flags: W
LayerCount: 2
Fore
SplineSet
535 -115 m 0,1,2
 546 -115 546 -115 552.5 -123.5 c 128,-1,3
 559 -132 559 -132 559 -144 c 0,4,5
 559 -164 559 -164 542 -174 c 0,6,7
 505 -195 505 -195 459 -195 c 0,8,9
 404 -195 404 -195 370 -164.5 c 128,-1,10
 336 -134 336 -134 336 -85 c 0,11,12
 336 -53 336 -53 352.5 -26 c 128,-1,13
 369 1 369 1 400 19 c 1,14,15
 392 33 392 33 392 50 c 2,16,-1
 392 75 l 1,17,18
 369 35 369 35 330 13.5 c 128,-1,19
 291 -8 291 -8 242 -8 c 0,20,21
 62 -8 62 -8 62 194 c 2,22,-1
 62 440 l 2,23,24
 62 467 62 467 79 483 c 128,-1,25
 96 499 96 499 124 499 c 0,26,27
 153 499 153 499 170 483 c 128,-1,28
 187 467 187 467 187 440 c 2,29,-1
 187 193 l 2,30,31
 187 141 187 141 208 116 c 128,-1,32
 229 91 229 91 272 91 c 0,33,34
 325 91 325 91 357 125.5 c 128,-1,35
 389 160 389 160 389 217 c 2,36,-1
 389 440 l 2,37,38
 389 467 389 467 406 483 c 128,-1,39
 423 499 423 499 451 499 c 0,40,41
 480 499 480 499 497 483 c 128,-1,42
 514 467 514 467 514 440 c 2,43,-1
 514 52 l 2,44,45
 514 14 514 14 481 0 c 0,46,47
 420 -21 420 -21 420 -69 c 0,48,49
 420 -95 420 -95 435.5 -110.5 c 128,-1,50
 451 -126 451 -126 477 -126 c 0,51,52
 501 -126 501 -126 525 -117 c 0,53,0
 531 -115 531 -115 535 -115 c 0,1,2
EndSplineSet
EndChar

StartChar: v
Encoding: 88 118 458
Width: 526
GlyphClass: 2
Flags: W
AnchorPoint: "Anchor-10" 264 493 basechar 0
AnchorPoint: "Anchor-8" 264 0 basechar 0
LayerCount: 2
Fore
SplineSet
427.5 490 m 128,-1,1
 441 499 441 499 457 499 c 0,2,3
 480 499 480 499 498.5 483.5 c 128,-1,4
 517 468 517 468 517 445 c 0,5,6
 517 433 517 433 511 421 c 2,7,-1
 326 34 l 2,8,9
 317 15 317 15 300.5 5 c 128,-1,10
 284 -5 284 -5 264 -5 c 0,11,12
 245 -5 245 -5 227.5 5 c 128,-1,13
 210 15 210 15 201 34 c 2,14,-1
 15 421 l 2,15,16
 10 431 10 431 10 444 c 0,17,18
 10 467 10 467 29.5 483 c 128,-1,19
 49 499 49 499 74 499 c 0,20,21
 110 499 110 499 127 464 c 2,22,-1
 267 155 l 1,23,-1
 406 463 l 2,24,0
 414 481 414 481 427.5 490 c 128,-1,1
EndSplineSet
EndChar

StartChar: w
Encoding: 89 119 459
Width: 856
GlyphClass: 2
Flags: W
AnchorPoint: "Anchor-10" 428 493 basechar 0
AnchorPoint: "Anchor-8" 428 0 basechar 0
LayerCount: 2
Fore
SplineSet
746.5 489 m 128,-1,1
 760 498 760 498 776 498 c 0,2,3
 799 498 799 498 817.5 482.5 c 128,-1,4
 836 467 836 467 836 444 c 0,5,6
 836 431 836 431 831 421 c 2,7,-1
 666 34 l 2,8,9
 658 15 658 15 641.5 5 c 128,-1,10
 625 -5 625 -5 605 -5 c 0,11,12
 586 -5 586 -5 569.5 5 c 128,-1,13
 553 15 553 15 545 34 c 2,14,-1
 426 320 l 1,15,-1
 311 34 l 2,16,17
 303 15 303 15 286.5 5 c 128,-1,18
 270 -5 270 -5 250 -5 c 0,19,20
 231 -5 231 -5 214 5 c 128,-1,21
 197 15 197 15 189 34 c 2,22,-1
 25 421 l 2,23,24
 20 434 20 434 20 443 c 0,25,26
 20 466 20 466 40 482.5 c 128,-1,27
 60 499 60 499 84 499 c 0,28,29
 101 499 101 499 115 490 c 128,-1,30
 129 481 129 481 136 463 c 2,31,-1
 254 158 l 1,32,-1
 375 460 l 2,33,34
 383 479 383 479 398 488.5 c 128,-1,35
 413 498 413 498 431 498 c 256,36,37
 449 498 449 498 464 488.5 c 128,-1,38
 479 479 479 479 487 460 c 2,39,-1
 609 157 l 1,40,-1
 726 462 l 2,41,0
 733 480 733 480 746.5 489 c 128,-1,1
EndSplineSet
EndChar

StartChar: x
Encoding: 90 120 464
Width: 532
GlyphClass: 2
Flags: W
AnchorPoint: "Anchor-10" 266 493 basechar 0
AnchorPoint: "Anchor-8" 266 0 basechar 0
LayerCount: 2
Fore
SplineSet
507 51 m 0,1,2
 507 29 507 29 490 11.5 c 128,-1,3
 473 -6 473 -6 450 -6 c 0,4,5
 425 -6 425 -6 407 15 c 2,6,-1
 266 171 l 1,7,-1
 125 15 l 2,8,9
 106 -5 106 -5 82 -5 c 0,10,11
 60 -5 60 -5 43 12 c 128,-1,12
 26 29 26 29 26 51 c 0,13,14
 26 74 26 74 44 92 c 2,15,-1
 190 251 l 1,16,-1
 52 401 l 2,17,18
 34 419 34 419 34 442 c 256,19,20
 34 465 34 465 51 481.5 c 128,-1,21
 68 498 68 498 90 498 c 0,22,23
 114 498 114 498 133 478 c 2,24,-1
 266 332 l 1,25,-1
 399 478 l 2,26,27
 418 498 418 498 442 498 c 0,28,29
 465 498 465 498 481.5 481.5 c 128,-1,30
 498 465 498 465 498 442 c 256,31,32
 498 419 498 419 480 401 c 2,33,-1
 342 251 l 1,34,-1
 489 92 l 2,35,0
 507 74 507 74 507 51 c 0,1,2
EndSplineSet
EndChar

StartChar: y
Encoding: 91 121 465
Width: 526
GlyphClass: 2
Flags: W
AnchorPoint: "Anchor-10" 264 493 basechar 0
AnchorPoint: "Anchor-8" 410 0 basechar 0
LayerCount: 2
Fore
SplineSet
427.5 489.5 m 128,-1,1
 441 498 441 498 457 498 c 0,2,3
 480 498 480 498 498.5 482.5 c 128,-1,4
 517 467 517 467 517 444 c 0,5,6
 517 433 517 433 511 421 c 2,7,-1
 238 -151 l 2,8,9
 221 -185 221 -185 185 -185 c 0,10,11
 162 -185 162 -185 144.5 -170.5 c 128,-1,12
 127 -156 127 -156 127 -134 c 0,13,14
 127 -123 127 -123 133 -109 c 2,15,-1
 201 34 l 1,16,-1
 15 421 l 2,17,18
 10 431 10 431 10 444 c 0,19,20
 10 467 10 467 29.5 483 c 128,-1,21
 49 499 49 499 74 499 c 0,22,23
 91 499 91 499 105 490.5 c 128,-1,24
 119 482 119 482 127 464 c 2,25,-1
 267 155 l 1,26,-1
 406 463 l 2,27,0
 414 481 414 481 427.5 489.5 c 128,-1,1
EndSplineSet
EndChar

StartChar: z
Encoding: 92 122 475
Width: 510
GlyphClass: 2
Flags: W
AnchorPoint: "Anchor-10" 262 493 basechar 0
AnchorPoint: "Anchor-8" 253 0 basechar 0
LayerCount: 2
Fore
SplineSet
485 47 m 0,1,2
 485 25 485 25 471 12.5 c 128,-1,3
 457 0 457 0 429 0 c 2,4,-1
 95 0 l 2,5,6
 70 0 70 0 54 16 c 128,-1,7
 38 32 38 32 38 54 c 0,8,9
 38 77 38 77 56 98 c 2,10,-1
 313 395 l 1,11,-1
 90 395 l 2,12,13
 62 395 62 395 48 407 c 128,-1,14
 34 419 34 419 34 442 c 256,15,16
 34 465 34 465 48 477 c 128,-1,17
 62 489 62 489 90 489 c 2,18,-1
 413 489 l 2,19,20
 439 489 439 489 454.5 473.5 c 128,-1,21
 470 458 470 458 470 435 c 0,22,23
 470 411 470 411 453 391 c 2,24,-1
 195 94 l 1,25,-1
 429 94 l 2,26,0
 485 94 485 94 485 47 c 0,1,2
EndSplineSet
EndChar

StartChar: a.ss01
Encoding: 929 -1 481
Width: 601
GlyphClass: 2
Flags: W
AnchorPoint: "Anchor-10" 301 493 basechar 0
AnchorPoint: "Anchor-9" 518 10 basechar 0
AnchorPoint: "Anchor-8" 301 0 basechar 0
LayerCount: 2
Fore
SplineSet
520 483 m 128,-1,1
 537 467 537 467 537 440 c 2,2,-1
 537 54 l 2,3,4
 537 27 537 27 520 11 c 128,-1,5
 503 -5 503 -5 475 -5 c 256,6,7
 447 -5 447 -5 430 11 c 128,-1,8
 413 27 413 27 413 54 c 2,9,-1
 413 79 l 1,10,11
 391 38 391 38 349.5 15 c 128,-1,12
 308 -8 308 -8 255 -8 c 0,13,14
 191 -8 191 -8 142 23.5 c 128,-1,15
 93 55 93 55 65.5 112 c 128,-1,16
 38 169 38 169 38 244 c 0,17,18
 38 320 38 320 65.5 378.5 c 128,-1,19
 93 437 93 437 142 469 c 128,-1,20
 191 501 191 501 255 501 c 0,21,22
 308 501 308 501 349.5 478.5 c 128,-1,23
 391 456 391 456 413 415 c 1,24,-1
 413 441 l 2,25,26
 413 467 413 467 430 483 c 128,-1,27
 447 499 447 499 475 499 c 256,28,0
 503 499 503 499 520 483 c 128,-1,1
380.5 130 m 128,-1,30
 413 171 413 171 413 246 c 0,31,32
 413 322 413 322 380.5 363 c 128,-1,33
 348 404 348 404 288 404 c 0,34,35
 229 404 229 404 196 362 c 128,-1,36
 163 320 163 320 163 244 c 0,37,38
 163 170 163 170 196 129.5 c 128,-1,39
 229 89 229 89 289 89 c 0,40,29
 348 89 348 89 380.5 130 c 128,-1,30
EndSplineSet
EndChar

StartChar: aogonek.ss01
Encoding: 952 -1 504
Width: 601
Flags: W
LayerCount: 2
Fore
SplineSet
558 -115 m 0,1,2
 569 -115 569 -115 575.5 -123.5 c 128,-1,3
 582 -132 582 -132 582 -144 c 0,4,5
 582 -164 582 -164 565 -174 c 0,6,7
 529 -195 529 -195 482 -195 c 0,8,9
 429 -195 429 -195 394 -164.5 c 128,-1,10
 359 -134 359 -134 359 -85 c 0,11,12
 359 -52 359 -52 375 -25.5 c 128,-1,13
 391 1 391 1 423 19 c 1,14,15
 413 34 413 34 413 53 c 2,16,-1
 413 79 l 1,17,18
 391 38 391 38 349.5 15 c 128,-1,19
 308 -8 308 -8 255 -8 c 0,20,21
 191 -8 191 -8 142 23.5 c 128,-1,22
 93 55 93 55 65.5 112 c 128,-1,23
 38 169 38 169 38 244 c 0,24,25
 38 320 38 320 65.5 378.5 c 128,-1,26
 93 437 93 437 142 469 c 128,-1,27
 191 501 191 501 255 501 c 0,28,29
 308 501 308 501 349.5 478.5 c 128,-1,30
 391 456 391 456 413 415 c 1,31,-1
 413 441 l 2,32,33
 413 469 413 469 430.5 484 c 128,-1,34
 448 499 448 499 475 499 c 256,35,36
 502 499 502 499 519.5 484 c 128,-1,37
 537 469 537 469 537 440 c 2,38,-1
 537 53 l 2,39,40
 537 36 537 36 529.5 22.5 c 128,-1,41
 522 9 522 9 506 2 c 0,42,43
 443 -20 443 -20 443 -69 c 0,44,45
 443 -96 443 -96 459 -111 c 128,-1,46
 475 -126 475 -126 500 -126 c 0,47,48
 522 -126 522 -126 548 -117 c 0,49,0
 554 -115 554 -115 558 -115 c 0,1,2
380.5 130 m 128,-1,51
 413 171 413 171 413 246 c 0,52,53
 413 322 413 322 380.5 363 c 128,-1,54
 348 404 348 404 288 404 c 0,55,56
 229 404 229 404 196 362 c 128,-1,57
 163 320 163 320 163 244 c 0,58,59
 163 170 163 170 196 129.5 c 128,-1,60
 229 89 229 89 289 89 c 0,61,50
 348 89 348 89 380.5 130 c 128,-1,51
EndSplineSet
EndChar

StartChar: aringacute.ss01
Encoding: 954 -1 506
Width: 601
Flags: W
LayerCount: 2
Fore
SplineSet
225 582 m 128,-1,1
 194 612 194 612 194 656 c 256,2,3
 194 700 194 700 225 730 c 128,-1,4
 256 760 256 760 301 760 c 0,5,6
 329 760 329 760 351 748 c 1,7,-1
 437 837 l 2,8,9
 457 857 457 857 480 857 c 0,10,11
 500 857 500 857 515 842 c 128,-1,12
 530 827 530 827 530 808 c 0,13,14
 530 779 530 779 497 762 c 2,15,-1
 396 704 l 1,16,17
 407 680 407 680 407 656 c 0,18,19
 407 612 407 612 376 582 c 128,-1,20
 345 552 345 552 301 552 c 0,21,0
 256 552 256 552 225 582 c 128,-1,1
268 689.5 m 128,-1,23
 255 676 255 676 255 656 c 256,24,25
 255 636 255 636 268 622.5 c 128,-1,26
 281 609 281 609 301 609 c 0,27,28
 320 609 320 609 333 622.5 c 128,-1,29
 346 636 346 636 346 656 c 256,30,31
 346 676 346 676 333 689.5 c 128,-1,32
 320 703 320 703 301 703 c 0,33,22
 281 703 281 703 268 689.5 c 128,-1,23
520 483 m 128,-1,35
 537 467 537 467 537 440 c 2,36,-1
 537 54 l 2,37,38
 537 27 537 27 520 11 c 128,-1,39
 503 -5 503 -5 475 -5 c 256,40,41
 447 -5 447 -5 430 11 c 128,-1,42
 413 27 413 27 413 54 c 2,43,-1
 413 79 l 1,44,45
 391 38 391 38 349.5 15 c 128,-1,46
 308 -8 308 -8 255 -8 c 0,47,48
 191 -8 191 -8 142 23.5 c 128,-1,49
 93 55 93 55 65.5 112 c 128,-1,50
 38 169 38 169 38 244 c 0,51,52
 38 320 38 320 65.5 378.5 c 128,-1,53
 93 437 93 437 142 469 c 128,-1,54
 191 501 191 501 255 501 c 0,55,56
 308 501 308 501 349.5 478.5 c 128,-1,57
 391 456 391 456 413 415 c 1,58,-1
 413 441 l 2,59,60
 413 467 413 467 430 483 c 128,-1,61
 447 499 447 499 475 499 c 256,62,34
 503 499 503 499 520 483 c 128,-1,35
380.5 130 m 128,-1,64
 413 171 413 171 413 246 c 0,65,66
 413 322 413 322 380.5 363 c 128,-1,67
 348 404 348 404 288 404 c 0,68,69
 229 404 229 404 196 362 c 128,-1,70
 163 320 163 320 163 244 c 0,71,72
 163 170 163 170 196 129.5 c 128,-1,73
 229 89 229 89 289 89 c 0,74,63
 348 89 348 89 380.5 130 c 128,-1,64
EndSplineSet
EndChar

StartChar: fi
Encoding: 923 64257 508
Width: 612
GlyphClass: 3
Flags: W
LayerCount: 2
Fore
SplineSet
431 606.5 m 128,-1,1
 411 625 411 625 411 655 c 256,2,3
 411 685 411 685 431 703 c 128,-1,4
 451 721 451 721 485 721 c 0,5,6
 518 721 518 721 538.5 703 c 128,-1,7
 559 685 559 685 559 655 c 256,8,9
 559 625 559 625 538.5 606.5 c 128,-1,10
 518 588 518 588 485 588 c 0,11,0
 451 588 451 588 431 606.5 c 128,-1,1
547 442 m 2,13,-1
 547 54 l 2,14,15
 547 25 547 25 529.5 9.5 c 128,-1,16
 512 -6 512 -6 485 -6 c 256,17,18
 458 -6 458 -6 440 9.5 c 128,-1,19
 422 25 422 25 422 54 c 2,20,-1
 422 395 l 1,21,-1
 224 395 l 1,22,-1
 224 54 l 2,23,24
 224 25 224 25 206.5 10 c 128,-1,25
 189 -5 189 -5 162 -5 c 256,26,27
 135 -5 135 -5 117 10 c 128,-1,28
 99 25 99 25 99 54 c 2,29,-1
 99 395 l 1,30,-1
 49 395 l 2,31,32
 -7 395 -7 395 -7 442 c 256,33,34
 -7 489 -7 489 49 489 c 2,35,-1
 99 489 l 1,36,-1
 99 494 l 2,37,38
 99 587 99 587 148.5 641.5 c 128,-1,39
 198 696 198 696 288 704 c 2,40,-1
 311 706 l 2,41,42
 316 707 316 707 326 707 c 0,43,44
 379 707 379 707 379 662 c 0,45,46
 379 640 379 640 367 628 c 128,-1,47
 355 616 355 616 334 614 c 2,48,-1
 312 612 l 2,49,50
 266 608 266 608 245 583.5 c 128,-1,51
 224 559 224 559 224 512 c 2,52,-1
 224 489 l 1,53,-1
 491 489 l 2,54,12
 547 489 547 489 547 442 c 2,13,-1
EndSplineSet
Ligature2: "'liga' Standard Ligatures lookup 27 subtable" f i
EndChar

StartChar: ordfeminine
Encoding: 107 170 512
Width: 336
Flags: W
LayerCount: 2
Fore
SplineSet
273.5 678 m 128,-1,1
 307 646 307 646 307 578 c 2,2,-1
 307 454 l 2,3,4
 307 428 307 428 293 415.5 c 128,-1,5
 279 403 279 403 256 403 c 0,6,7
 236 403 236 403 222 415.5 c 128,-1,8
 208 428 208 428 208 454 c 2,9,-1
 208 455 l 1,10,11
 197 430 197 430 174.5 416.5 c 128,-1,12
 152 403 152 403 124 403 c 0,13,14
 80 403 80 403 50.5 431.5 c 128,-1,15
 21 460 21 460 21 497 c 0,16,17
 21 542 21 542 58 562 c 128,-1,18
 95 582 95 582 187 582 c 2,19,-1
 207 582 l 1,20,-1
 207 596 l 2,21,22
 207 617 207 617 197 625.5 c 128,-1,23
 187 634 187 634 162 634 c 0,24,25
 131 634 131 634 91 617 c 0,26,27
 80 612 80 612 67 612 c 0,28,29
 51 612 51 612 42 623.5 c 128,-1,30
 33 635 33 635 33 649 c 0,31,32
 33 674 33 674 57 685 c 0,33,34
 78 695 78 695 109.5 702.5 c 128,-1,35
 141 710 141 710 172 710 c 0,36,0
 240 710 240 710 273.5 678 c 128,-1,1
191.5 486 m 128,-1,38
 207 500 207 500 207 524 c 2,39,-1
 207 534 l 1,40,-1
 197 534 l 2,41,42
 150 534 150 534 133 526 c 128,-1,43
 116 518 116 518 116 502 c 0,44,45
 116 489 116 489 126 480.5 c 128,-1,46
 136 472 136 472 153 472 c 0,47,37
 176 472 176 472 191.5 486 c 128,-1,38
EndSplineSet
EndChar

StartChar: ordmasculine
Encoding: 123 186 513
Width: 362
Flags: W
LayerCount: 2
Fore
SplineSet
60 446.5 m 128,-1,1
 18 490 18 490 18 557 c 256,2,3
 18 624 18 624 60 667 c 128,-1,4
 102 710 102 710 181 710 c 0,5,6
 259 710 259 710 301.5 666.5 c 128,-1,7
 344 623 344 623 344 557 c 0,8,9
 344 490 344 490 301.5 446.5 c 128,-1,10
 259 403 259 403 181 403 c 0,11,0
 102 403 102 403 60 446.5 c 128,-1,1
226 504 m 128,-1,13
 242 523 242 523 242 557 c 0,14,15
 242 592 242 592 226.5 610 c 128,-1,16
 211 628 211 628 181 628 c 0,17,18
 152 628 152 628 137 610 c 128,-1,19
 122 592 122 592 122 557 c 0,20,21
 122 523 122 523 137.5 504 c 128,-1,22
 153 485 153 485 181 485 c 0,23,12
 210 485 210 485 226 504 c 128,-1,13
EndSplineSet
EndChar

StartChar: uni0411
Encoding: 453 1041 515
Width: 647
Flags: W
LayerCount: 2
Fore
SplineSet
93.5 17.5 m 128,-1,1
 76 35 76 35 76 64 c 2,2,-1
 76 642 l 2,3,4
 76 670 76 670 93.5 687.5 c 128,-1,5
 111 705 111 705 140 705 c 2,6,-1
 513 705 l 2,7,8
 541 705 541 705 558 691 c 128,-1,9
 575 677 575 677 575 654 c 256,10,11
 575 631 575 631 558 616.5 c 128,-1,12
 541 602 541 602 513 602 c 2,13,-1
 203 602 l 1,14,-1
 203 431 l 1,15,-1
 371 431 l 2,16,17
 486 431 486 431 547.5 378 c 128,-1,18
 609 325 609 325 609 222 c 0,19,20
 609 155 609 155 579.5 105 c 128,-1,21
 550 55 550 55 495.5 27.5 c 128,-1,22
 441 0 441 0 366 0 c 2,23,-1
 140 0 l 2,24,0
 111 0 111 0 93.5 17.5 c 128,-1,1
452 132 m 128,-1,26
 487 164 487 164 487 222 c 0,27,28
 487 279 487 279 454.5 305.5 c 128,-1,29
 422 332 422 332 354 332 c 2,30,-1
 203 332 l 1,31,-1
 203 100 l 1,32,-1
 350 100 l 2,33,25
 417 100 417 100 452 132 c 128,-1,26
EndSplineSet
EndChar

StartChar: uni0413
Encoding: 455 1043 517
Width: 566
GlyphClass: 2
Flags: W
AnchorPoint: "Anchor-6" 161 353 basechar 0
AnchorPoint: "Anchor-5" 304 705 basechar 0
LayerCount: 2
Fore
SplineSet
93 11.5 m 128,-1,1
 76 29 76 29 76 58 c 2,2,-1
 76 644 l 2,3,4
 76 672 76 672 93 688.5 c 128,-1,5
 110 705 110 705 137 705 c 2,6,-1
 494 705 l 2,7,8
 521 705 521 705 535.5 691.5 c 128,-1,9
 550 678 550 678 550 654 c 256,10,11
 550 630 550 630 535.5 616 c 128,-1,12
 521 602 521 602 494 602 c 2,13,-1
 203 602 l 1,14,-1
 203 58 l 2,15,16
 203 29 203 29 185.5 11.5 c 128,-1,17
 168 -6 168 -6 139 -6 c 256,18,0
 110 -6 110 -6 93 11.5 c 128,-1,1
EndSplineSet
EndChar

StartChar: uni0490
Encoding: 546 1168 519
Width: 554
Flags: W
LayerCount: 2
Fore
SplineSet
93 11.5 m 128,-1,1
 76 29 76 29 76 58 c 2,2,-1
 76 644 l 2,3,4
 76 671 76 671 93 688 c 128,-1,5
 110 705 110 705 137 705 c 2,6,-1
 423 705 l 1,7,-1
 423 791 l 2,8,9
 423 819 423 819 439 836 c 128,-1,10
 455 853 455 853 481 853 c 0,11,12
 506 853 506 853 521.5 836 c 128,-1,13
 537 819 537 819 537 791 c 2,14,-1
 537 663 l 2,15,16
 537 636 537 636 520.5 619 c 128,-1,17
 504 602 504 602 476 602 c 2,18,-1
 203 602 l 1,19,-1
 203 58 l 2,20,21
 203 29 203 29 185.5 11.5 c 128,-1,22
 168 -6 168 -6 139 -6 c 256,23,0
 110 -6 110 -6 93 11.5 c 128,-1,1
EndSplineSet
EndChar

StartChar: uni0414
Encoding: 456 1044 520
Width: 804
Flags: W
LayerCount: 2
Fore
SplineSet
38 -150.5 m 128,-1,1
 22 -133 22 -133 22 -104 c 2,2,-1
 22 42 l 2,3,4
 22 71 22 71 37.5 87 c 128,-1,5
 53 103 53 103 82 103 c 2,6,-1
 113 103 l 1,7,8
 159 192 159 192 175 306 c 128,-1,9
 191 420 191 420 191 564 c 2,10,-1
 191 644 l 2,11,12
 191 673 191 673 206.5 689 c 128,-1,13
 222 705 222 705 251 705 c 2,14,-1
 617 705 l 2,15,16
 646 705 646 705 662 689 c 128,-1,17
 678 673 678 673 678 644 c 2,18,-1
 678 103 l 1,19,-1
 717 103 l 2,20,21
 746 103 746 103 762 87 c 128,-1,22
 778 71 778 71 778 42 c 2,23,-1
 778 -104 l 2,24,25
 778 -133 778 -133 761.5 -150.5 c 128,-1,26
 745 -168 745 -168 718 -168 c 256,27,28
 691 -168 691 -168 674.5 -150.5 c 128,-1,29
 658 -133 658 -133 658 -104 c 2,30,-1
 658 0 l 1,31,-1
 141 0 l 1,32,-1
 141 -104 l 2,33,34
 141 -133 141 -133 124.5 -150.5 c 128,-1,35
 108 -168 108 -168 81 -168 c 256,36,0
 54 -168 54 -168 38 -150.5 c 128,-1,1
552 603 m 1,37,-1
 304 603 l 1,38,-1
 304 570 l 2,39,40
 304 413 304 413 286 301.5 c 128,-1,41
 268 190 268 190 226 102 c 1,42,-1
 552 102 l 1,43,-1
 552 603 l 1,37,-1
EndSplineSet
EndChar

StartChar: uni0416
Encoding: 458 1046 524
Width: 1014
GlyphClass: 2
Flags: W
AnchorPoint: "Anchor-5" 507 705 basechar 0
LayerCount: 2
Fore
SplineSet
461 11.5 m 128,-1,1
 444 29 444 29 444 59 c 2,2,-1
 444 310 l 1,3,-1
 388 310 l 2,4,5
 333 310 333 310 302 287 c 128,-1,6
 271 264 271 264 246 211 c 2,7,-1
 161 29 l 2,8,9
 153 12 153 12 139 3.5 c 128,-1,10
 125 -5 125 -5 109 -5 c 0,11,12
 83 -5 83 -5 62.5 12.5 c 128,-1,13
 42 30 42 30 42 55 c 0,14,15
 42 69 42 69 48 82 c 2,16,-1
 124 240 l 2,17,18
 155 305 155 305 183.5 334 c 128,-1,19
 212 363 212 363 264 383 c 1,20,-1
 101 619 l 2,21,22
 90 636 90 636 90 653 c 0,23,24
 90 676 90 676 108.5 693 c 128,-1,25
 127 710 127 710 151 710 c 0,26,27
 181 710 181 710 199 683 c 2,28,-1
 382 407 l 1,29,-1
 444 407 l 1,30,-1
 444 647 l 2,31,32
 444 676 444 676 461.5 693.5 c 128,-1,33
 479 711 479 711 507 711 c 0,34,35
 536 711 536 711 553 693.5 c 128,-1,36
 570 676 570 676 570 647 c 2,37,-1
 570 407 l 1,38,-1
 632 407 l 1,39,-1
 815 682 l 2,40,41
 833 710 833 710 864 710 c 0,42,43
 888 710 888 710 906.5 693 c 128,-1,44
 925 676 925 676 925 653 c 0,45,46
 925 635 925 635 914 620 c 2,47,-1
 750 383 l 1,48,49
 800 364 800 364 826.5 336 c 128,-1,50
 853 308 853 308 891 240 c 1,51,-1
 967 83 l 2,52,53
 973 70 973 70 973 56 c 0,54,55
 973 31 973 31 952.5 13 c 128,-1,56
 932 -5 932 -5 906 -5 c 0,57,58
 890 -5 890 -5 876 3.5 c 128,-1,59
 862 12 862 12 854 29 c 2,60,-1
 769 211 l 2,61,62
 745 264 745 264 713.5 287 c 128,-1,63
 682 310 682 310 627 310 c 2,64,-1
 570 310 l 1,65,-1
 570 59 l 2,66,67
 570 30 570 30 553 12 c 128,-1,68
 536 -6 536 -6 507 -6 c 256,69,0
 478 -6 478 -6 461 11.5 c 128,-1,1
EndSplineSet
EndChar

StartChar: uni0417
Encoding: 459 1047 525
Width: 639
GlyphClass: 2
Flags: W
AnchorPoint: "Anchor-5" 320 705 basechar 0
AnchorPoint: "Anchor-3" 320 0 basechar 0
LayerCount: 2
Fore
SplineSet
176 7 m 128,-1,1
 116 23 116 23 69 54 c 0,2,3
 52 63 52 63 44 77 c 128,-1,4
 36 91 36 91 36 106 c 0,5,6
 36 127 36 127 49.5 141 c 128,-1,7
 63 155 63 155 84 155 c 0,8,9
 100 155 100 155 117 145 c 0,10,11
 160 118 160 118 201.5 107 c 128,-1,12
 243 96 243 96 289 96 c 0,13,14
 370 96 370 96 416.5 123.5 c 128,-1,15
 463 151 463 151 463 204 c 0,16,17
 463 256 463 256 428.5 282 c 128,-1,18
 394 308 394 308 319 308 c 2,19,-1
 225 308 l 2,20,21
 198 308 198 308 182 323 c 128,-1,22
 166 338 166 338 166 359 c 0,23,24
 166 379 166 379 182 393.5 c 128,-1,25
 198 408 198 408 225 408 c 2,26,-1
 301 408 l 2,27,28
 375 408 375 408 412 434.5 c 128,-1,29
 449 461 449 461 449 512 c 0,30,31
 449 560 449 560 412.5 584.5 c 128,-1,32
 376 609 376 609 312 609 c 0,33,34
 260 609 260 609 219.5 596.5 c 128,-1,35
 179 584 179 584 136 560 c 0,36,37
 121 553 121 553 105 553 c 0,38,39
 82 553 82 553 68.5 567 c 128,-1,40
 55 581 55 581 55 601 c 0,41,42
 55 616 55 616 64 630 c 128,-1,43
 73 644 73 644 90 653 c 0,44,45
 134 680 134 680 196.5 697 c 128,-1,46
 259 714 259 714 332 714 c 0,47,48
 451 714 451 714 516 663.5 c 128,-1,49
 581 613 581 613 581 525 c 0,50,51
 581 467 581 467 549 425 c 128,-1,52
 517 383 517 383 457 364 c 1,53,54
 594 330 594 330 594 201 c 0,55,56
 594 139 594 139 558 91 c 128,-1,57
 522 43 522 43 456 17 c 128,-1,58
 390 -9 390 -9 304 -9 c 0,59,0
 236 -9 236 -9 176 7 c 128,-1,1
EndSplineSet
EndChar

StartChar: uni0418
Encoding: 460 1048 526
Width: 763
GlyphClass: 2
Flags: W
AnchorPoint: "Anchor-5" 381 705 basechar 0
LayerCount: 2
Fore
SplineSet
578.5 702 m 128,-1,1
 595 711 595 711 625 711 c 0,2,3
 654 711 654 711 670 694.5 c 128,-1,4
 686 678 686 678 686 649 c 2,5,-1
 686 58 l 2,6,7
 686 29 686 29 668.5 11.5 c 128,-1,8
 651 -6 651 -6 623 -6 c 0,9,10
 594 -6 594 -6 577 11.5 c 128,-1,11
 560 29 560 29 560 58 c 2,12,-1
 560 518 l 1,13,-1
 225 45 l 2,14,15
 204 14 204 14 185 4 c 128,-1,16
 166 -6 166 -6 137 -6 c 256,17,18
 108 -6 108 -6 92 10.5 c 128,-1,19
 76 27 76 27 76 56 c 2,20,-1
 76 647 l 2,21,22
 76 676 76 676 93.5 693.5 c 128,-1,23
 111 711 111 711 139 711 c 0,24,25
 168 711 168 711 185.5 693.5 c 128,-1,26
 203 676 203 676 203 647 c 2,27,-1
 203 188 l 1,28,-1
 547 672 l 2,29,0
 562 693 562 693 578.5 702 c 128,-1,1
EndSplineSet
EndChar

StartChar: uni048A
Encoding: 540 1162 529
Width: 813
Flags: W
LayerCount: 2
Fore
SplineSet
261.5 801.5 m 128,-1,1
 210 831 210 831 188 883 c 0,2,3
 184 892 184 892 184 903 c 0,4,5
 184 922 184 922 196.5 933.5 c 128,-1,6
 209 945 209 945 226 945 c 0,7,8
 238 945 238 945 249 938.5 c 128,-1,9
 260 932 260 932 266 919 c 0,10,11
 303 847 303 847 381 847 c 256,12,13
 459 847 459 847 496 919 c 0,14,15
 510 946 510 946 536 946 c 0,16,17
 553 946 553 946 566 934 c 128,-1,18
 579 922 579 922 579 904 c 0,19,20
 579 895 579 895 574 882 c 0,21,22
 553 831 553 831 501 801.5 c 128,-1,23
 449 772 449 772 381 772 c 256,24,0
 313 772 313 772 261.5 801.5 c 128,-1,1
773.5 92 m 128,-1,26
 786 81 786 81 786 62 c 0,27,28
 786 50 786 50 782 38 c 2,29,-1
 728 -122 l 2,30,31
 720 -145 720 -145 705 -156 c 128,-1,32
 690 -167 690 -167 671 -167 c 0,33,34
 651 -167 651 -167 636 -153 c 128,-1,35
 621 -139 621 -139 621 -117 c 0,36,37
 621 -105 621 -105 625 -94 c 2,38,-1
 657 0 l 1,39,-1
 647 0 l 1,40,41
 638 -4 638 -4 623 -4 c 0,42,43
 594 -4 594 -4 577 13.5 c 128,-1,44
 560 31 560 31 560 60 c 2,45,-1
 560 518 l 1,46,-1
 225 45 l 2,47,48
 204 14 204 14 185 4 c 128,-1,49
 166 -6 166 -6 137 -6 c 256,50,51
 108 -6 108 -6 92 10.5 c 128,-1,52
 76 27 76 27 76 56 c 2,53,-1
 76 647 l 2,54,55
 76 676 76 676 93.5 693.5 c 128,-1,56
 111 711 111 711 139 711 c 0,57,58
 168 711 168 711 185.5 693.5 c 128,-1,59
 203 676 203 676 203 647 c 2,60,-1
 203 188 l 1,61,-1
 547 672 l 2,62,63
 562 693 562 693 578.5 702 c 128,-1,64
 595 711 595 711 625 711 c 0,65,66
 654 711 654 711 670 694.5 c 128,-1,67
 686 678 686 678 686 649 c 2,68,-1
 686 103 l 1,69,-1
 738 103 l 2,70,25
 761 103 761 103 773.5 92 c 128,-1,26
EndSplineSet
EndChar

StartChar: uni041A
Encoding: 462 1050 530
Width: 690
GlyphClass: 2
Flags: W
AnchorPoint: "Anchor-5" 344 705 basechar 0
LayerCount: 2
Fore
SplineSet
93 11.5 m 128,-1,1
 76 29 76 29 76 59 c 2,2,-1
 76 647 l 2,3,4
 76 676 76 676 93.5 693.5 c 128,-1,5
 111 711 111 711 139 711 c 0,6,7
 168 711 168 711 185.5 693.5 c 128,-1,8
 203 676 203 676 203 647 c 2,9,-1
 203 410 l 1,10,-1
 289 410 l 1,11,-1
 513 686 l 2,12,13
 533 710 533 710 560 710 c 0,14,15
 582 710 582 710 598.5 694 c 128,-1,16
 615 678 615 678 615 656 c 0,17,18
 615 635 615 635 600 617 c 2,19,-1
 410 386 l 1,20,21
 446 373 446 373 468.5 356 c 128,-1,22
 491 339 491 339 509.5 313 c 128,-1,23
 528 287 528 287 558 235 c 2,24,-1
 639 90 l 2,25,26
 649 73 649 73 649 55 c 0,27,28
 649 30 649 30 630.5 12.5 c 128,-1,29
 612 -5 612 -5 588 -5 c 0,30,31
 555 -5 555 -5 535 30 c 2,32,-1
 433 212 l 2,33,34
 404 264 404 264 375 285 c 128,-1,35
 346 306 346 306 291 306 c 2,36,-1
 203 306 l 1,37,-1
 203 59 l 2,38,39
 203 30 203 30 185.5 12 c 128,-1,40
 168 -6 168 -6 139 -6 c 256,41,0
 110 -6 110 -6 93 11.5 c 128,-1,1
EndSplineSet
EndChar

StartChar: uni041B
Encoding: 463 1051 532
Width: 750
Flags: W
LayerCount: 2
Fore
SplineSet
281.5 268.5 m 128,-1,1
 262 170 262 170 222.5 109.5 c 128,-1,2
 183 49 183 49 121 11 c 0,3,4
 101 -1 101 -1 81 -1 c 0,5,6
 58 -1 58 -1 42.5 15 c 128,-1,7
 27 31 27 31 27 53 c 0,8,9
 27 70 27 70 37 86 c 128,-1,10
 47 102 47 102 67 114 c 0,11,12
 123 144 123 144 150 231.5 c 128,-1,13
 177 319 177 319 177 495 c 2,14,-1
 177 644 l 2,15,16
 177 673 177 673 193 689 c 128,-1,17
 209 705 209 705 238 705 c 2,18,-1
 613 705 l 2,19,20
 642 705 642 705 657.5 689 c 128,-1,21
 673 673 673 673 673 644 c 2,22,-1
 673 58 l 2,23,24
 673 29 673 29 655.5 11.5 c 128,-1,25
 638 -6 638 -6 610 -6 c 0,26,27
 581 -6 581 -6 564 11.5 c 128,-1,28
 547 29 547 29 547 58 c 2,29,-1
 547 602 l 1,30,-1
 301 602 l 1,31,-1
 301 516 l 2,32,0
 301 367 301 367 281.5 268.5 c 128,-1,1
EndSplineSet
EndChar

StartChar: uni041F
Encoding: 467 1055 536
Width: 751
Flags: W
LayerCount: 2
Fore
SplineSet
93 11.5 m 128,-1,1
 76 29 76 29 76 59 c 2,2,-1
 76 642 l 2,3,4
 76 670 76 670 94 687.5 c 128,-1,5
 112 705 112 705 140 705 c 2,6,-1
 612 705 l 2,7,8
 640 705 640 705 657.5 687.5 c 128,-1,9
 675 670 675 670 675 642 c 2,10,-1
 675 58 l 2,11,12
 675 29 675 29 657.5 11.5 c 128,-1,13
 640 -6 640 -6 612 -6 c 0,14,15
 583 -6 583 -6 566 11.5 c 128,-1,16
 549 29 549 29 549 58 c 2,17,-1
 549 602 l 1,18,-1
 203 602 l 1,19,-1
 203 58 l 2,20,21
 203 29 203 29 185.5 11.5 c 128,-1,22
 168 -6 168 -6 139 -6 c 256,23,0
 110 -6 110 -6 93 11.5 c 128,-1,1
EndSplineSet
EndChar

StartChar: uni0423
Encoding: 471 1059 540
Width: 675
GlyphClass: 2
Flags: W
AnchorPoint: "Anchor-5" 338 705 basechar 0
LayerCount: 2
Fore
SplineSet
552.5 701.5 m 128,-1,1
 567 710 567 710 583 710 c 0,2,3
 606 710 606 710 624.5 693.5 c 128,-1,4
 643 677 643 677 643 653 c 0,5,6
 643 640 643 640 635 622 c 2,7,-1
 334 31 l 2,8,9
 316 -6 316 -6 281 -6 c 0,10,11
 257 -6 257 -6 238.5 11.5 c 128,-1,12
 220 29 220 29 220 53 c 0,13,14
 220 68 220 68 227 82 c 2,15,-1
 294 213 l 1,16,-1
 45 619 l 2,17,18
 34 636 34 636 34 655 c 0,19,20
 34 678 34 678 51.5 694.5 c 128,-1,21
 69 711 69 711 92 711 c 0,22,23
 107 711 107 711 120.5 703 c 128,-1,24
 134 695 134 695 143 679 c 2,25,-1
 355 333 l 1,26,-1
 529 675 l 2,27,0
 538 693 538 693 552.5 701.5 c 128,-1,1
EndSplineSet
EndChar

StartChar: uni0424
Encoding: 472 1060 542
Width: 888
Flags: W
LayerCount: 2
Fore
SplineSet
398 -5.5 m 128,-1,1
 381 12 381 12 381 41 c 2,2,-1
 381 78 l 1,3,-1
 367 78 l 2,4,5
 277 78 277 78 205 109.5 c 128,-1,6
 133 141 133 141 91 204.5 c 128,-1,7
 49 268 49 268 49 359 c 0,8,9
 49 451 49 451 90 514 c 128,-1,10
 131 577 131 577 202.5 608.5 c 128,-1,11
 274 640 274 640 367 640 c 2,12,-1
 381 640 l 1,13,-1
 381 666 l 2,14,15
 381 695 381 695 398.5 712.5 c 128,-1,16
 416 730 416 730 444 730 c 0,17,18
 473 730 473 730 490 712.5 c 128,-1,19
 507 695 507 695 507 666 c 2,20,-1
 507 640 l 1,21,-1
 521 640 l 2,22,23
 614 640 614 640 685.5 608.5 c 128,-1,24
 757 577 757 577 798 514 c 128,-1,25
 839 451 839 451 839 359 c 0,26,27
 839 268 839 268 797 204.5 c 128,-1,28
 755 141 755 141 683 109.5 c 128,-1,29
 611 78 611 78 521 78 c 2,30,-1
 507 78 l 1,31,-1
 507 41 l 2,32,33
 507 12 507 12 489.5 -5.5 c 128,-1,34
 472 -23 472 -23 444 -23 c 0,35,0
 415 -23 415 -23 398 -5.5 c 128,-1,1
381 544 m 1,36,-1
 369 544 l 2,37,38
 284 544 284 544 231 499 c 128,-1,39
 178 454 178 454 178 359 c 0,40,41
 178 266 178 266 233 219.5 c 128,-1,42
 288 173 288 173 369 173 c 2,43,-1
 381 173 l 1,44,-1
 381 544 l 1,36,-1
654.5 219.5 m 128,-1,46
 710 266 710 266 710 359 c 0,47,48
 710 453 710 453 656.5 498.5 c 128,-1,49
 603 544 603 544 519 544 c 2,50,-1
 506 544 l 1,51,-1
 506 173 l 1,52,-1
 519 173 l 2,53,45
 599 173 599 173 654.5 219.5 c 128,-1,46
EndSplineSet
EndChar

StartChar: uni0427
Encoding: 475 1063 544
Width: 663
GlyphClass: 2
Flags: W
AnchorPoint: "Anchor-5" 332 705 basechar 0
LayerCount: 2
Fore
SplineSet
74 693.5 m 128,-1,1
 91 711 91 711 120 711 c 256,2,3
 149 711 149 711 166 693.5 c 128,-1,4
 183 676 183 676 183 647 c 2,5,-1
 183 487 l 2,6,7
 183 414 183 414 223.5 382 c 128,-1,8
 264 350 264 350 341 350 c 0,9,10
 413 350 413 350 461 366 c 1,11,-1
 461 647 l 2,12,13
 461 676 461 676 478.5 693.5 c 128,-1,14
 496 711 496 711 524 711 c 0,15,16
 553 711 553 711 570 693.5 c 128,-1,17
 587 676 587 676 587 647 c 2,18,-1
 587 58 l 2,19,20
 587 29 587 29 569.5 11.5 c 128,-1,21
 552 -6 552 -6 524 -6 c 0,22,23
 495 -6 495 -6 478 11.5 c 128,-1,24
 461 29 461 29 461 58 c 2,25,-1
 461 267 l 1,26,27
 436 260 436 260 394.5 254 c 128,-1,28
 353 248 353 248 316 248 c 0,29,30
 195 248 195 248 126 300.5 c 128,-1,31
 57 353 57 353 57 467 c 2,32,-1
 57 647 l 2,33,0
 57 676 57 676 74 693.5 c 128,-1,1
EndSplineSet
EndChar

StartChar: uni0426
Encoding: 474 1062 545
Width: 777
Flags: W
LayerCount: 2
Fore
SplineSet
647.5 -150.5 m 128,-1,1
 631 -133 631 -133 631 -104 c 2,2,-1
 631 0 l 1,3,-1
 137 0 l 2,4,5
 108 0 108 0 92 16 c 128,-1,6
 76 32 76 32 76 61 c 2,7,-1
 76 647 l 2,8,9
 76 676 76 676 93.5 693.5 c 128,-1,10
 111 711 111 711 139 711 c 0,11,12
 168 711 168 711 185.5 693.5 c 128,-1,13
 203 676 203 676 203 647 c 2,14,-1
 203 103 l 1,15,-1
 525 103 l 1,16,-1
 525 647 l 2,17,18
 525 676 525 676 542.5 693.5 c 128,-1,19
 560 711 560 711 588 711 c 0,20,21
 617 711 617 711 634 693.5 c 128,-1,22
 651 676 651 676 651 647 c 2,23,-1
 651 103 l 1,24,-1
 690 103 l 2,25,26
 719 103 719 103 735 87 c 128,-1,27
 751 71 751 71 751 42 c 2,28,-1
 751 -104 l 2,29,30
 751 -133 751 -133 734.5 -150.5 c 128,-1,31
 718 -168 718 -168 691 -168 c 256,32,0
 664 -168 664 -168 647.5 -150.5 c 128,-1,1
EndSplineSet
EndChar

StartChar: uni0428
Encoding: 476 1064 546
Width: 1024
Flags: W
LayerCount: 2
Fore
SplineSet
92 16 m 128,-1,1
 76 32 76 32 76 61 c 2,2,-1
 76 647 l 2,3,4
 76 676 76 676 93.5 693.5 c 128,-1,5
 111 711 111 711 139 711 c 0,6,7
 168 711 168 711 185.5 693.5 c 128,-1,8
 203 676 203 676 203 647 c 2,9,-1
 203 103 l 1,10,-1
 449 103 l 1,11,-1
 449 647 l 2,12,13
 449 676 449 676 466.5 693.5 c 128,-1,14
 484 711 484 711 512 711 c 0,15,16
 541 711 541 711 558 693.5 c 128,-1,17
 575 676 575 676 575 647 c 2,18,-1
 575 103 l 1,19,-1
 821 103 l 1,20,-1
 821 647 l 2,21,22
 821 676 821 676 838.5 693.5 c 128,-1,23
 856 711 856 711 884 711 c 0,24,25
 913 711 913 711 930 693.5 c 128,-1,26
 947 676 947 676 947 647 c 2,27,-1
 947 61 l 2,28,29
 947 32 947 32 931.5 16 c 128,-1,30
 916 0 916 0 887 0 c 2,31,-1
 137 0 l 2,32,0
 108 0 108 0 92 16 c 128,-1,1
EndSplineSet
EndChar

StartChar: uni0429
Encoding: 477 1065 547
Width: 1073
Flags: W
LayerCount: 2
Fore
SplineSet
944 -150.5 m 128,-1,1
 928 -133 928 -133 928 -104 c 2,2,-1
 928 0 l 1,3,-1
 137 0 l 2,4,5
 108 0 108 0 92 16 c 128,-1,6
 76 32 76 32 76 61 c 2,7,-1
 76 647 l 2,8,9
 76 676 76 676 93.5 693.5 c 128,-1,10
 111 711 111 711 139 711 c 0,11,12
 168 711 168 711 185.5 693.5 c 128,-1,13
 203 676 203 676 203 647 c 2,14,-1
 203 103 l 1,15,-1
 449 103 l 1,16,-1
 449 647 l 2,17,18
 449 676 449 676 466.5 693.5 c 128,-1,19
 484 711 484 711 512 711 c 0,20,21
 541 711 541 711 558 693.5 c 128,-1,22
 575 676 575 676 575 647 c 2,23,-1
 575 103 l 1,24,-1
 821 103 l 1,25,-1
 821 647 l 2,26,27
 821 676 821 676 838.5 693.5 c 128,-1,28
 856 711 856 711 884 711 c 0,29,30
 913 711 913 711 930 693.5 c 128,-1,31
 947 676 947 676 947 647 c 2,32,-1
 947 103 l 1,33,-1
 986 103 l 2,34,35
 1015 103 1015 103 1031 87 c 128,-1,36
 1047 71 1047 71 1047 42 c 2,37,-1
 1047 -104 l 2,38,39
 1047 -133 1047 -133 1030.5 -150.5 c 128,-1,40
 1014 -168 1014 -168 987 -168 c 256,41,0
 960 -168 960 -168 944 -150.5 c 128,-1,1
EndSplineSet
EndChar

StartChar: uni040F
Encoding: 451 1039 548
Width: 758
Flags: W
LayerCount: 2
Fore
SplineSet
336 -174 m 128,-1,1
 320 -157 320 -157 320 -128 c 2,2,-1
 320 0 l 1,3,-1
 137 0 l 2,4,5
 108 0 108 0 92 16 c 128,-1,6
 76 32 76 32 76 61 c 2,7,-1
 76 647 l 2,8,9
 76 676 76 676 93.5 693.5 c 128,-1,10
 111 711 111 711 139 711 c 0,11,12
 168 711 168 711 185.5 693.5 c 128,-1,13
 203 676 203 676 203 647 c 2,14,-1
 203 103 l 1,15,-1
 556 103 l 1,16,-1
 556 647 l 2,17,18
 556 676 556 676 573.5 693.5 c 128,-1,19
 591 711 591 711 619 711 c 0,20,21
 648 711 648 711 665 693.5 c 128,-1,22
 682 676 682 676 682 647 c 2,23,-1
 682 61 l 2,24,25
 682 32 682 32 666 16 c 128,-1,26
 650 0 650 0 621 0 c 2,27,-1
 439 0 l 1,28,-1
 439 -128 l 2,29,30
 439 -156 439 -156 422.5 -173.5 c 128,-1,31
 406 -191 406 -191 379 -191 c 256,32,0
 352 -191 352 -191 336 -174 c 128,-1,1
EndSplineSet
EndChar

StartChar: uni042C
Encoding: 480 1068 549
Width: 648
Flags: W
LayerCount: 2
Fore
SplineSet
92 16 m 128,-1,1
 76 32 76 32 76 61 c 2,2,-1
 76 647 l 2,3,4
 76 676 76 676 93.5 693.5 c 128,-1,5
 111 711 111 711 139 711 c 0,6,7
 168 711 168 711 185.5 693.5 c 128,-1,8
 203 676 203 676 203 647 c 2,9,-1
 203 437 l 1,10,-1
 371 437 l 2,11,12
 487 437 487 437 548.5 383 c 128,-1,13
 610 329 610 329 610 226 c 0,14,15
 610 121 610 121 541.5 60.5 c 128,-1,16
 473 0 473 0 359 0 c 2,17,-1
 137 0 l 2,18,0
 108 0 108 0 92 16 c 128,-1,1
454 133 m 128,-1,20
 488 166 488 166 488 223 c 0,21,22
 488 281 488 281 455 309.5 c 128,-1,23
 422 338 422 338 354 338 c 2,24,-1
 203 338 l 1,25,-1
 203 100 l 1,26,-1
 354 100 l 2,27,19
 420 100 420 100 454 133 c 128,-1,20
EndSplineSet
EndChar

StartChar: uni042A
Encoding: 478 1066 550
Width: 765
Flags: W
LayerCount: 2
Fore
SplineSet
227 16 m 128,-1,1
 211 32 211 32 211 61 c 2,2,-1
 211 602 l 1,3,-1
 60 602 l 2,4,5
 33 602 33 602 16.5 616.5 c 128,-1,6
 0 631 0 631 0 654 c 256,7,8
 0 677 0 677 16.5 691 c 128,-1,9
 33 705 33 705 60 705 c 2,10,-1
 277 705 l 2,11,12
 306 705 306 705 322 689 c 128,-1,13
 338 673 338 673 338 644 c 2,14,-1
 338 437 l 1,15,-1
 489 437 l 2,16,17
 604 437 604 437 665.5 383 c 128,-1,18
 727 329 727 329 727 226 c 0,19,20
 727 121 727 121 658.5 60.5 c 128,-1,21
 590 0 590 0 476 0 c 2,22,-1
 272 0 l 2,23,0
 243 0 243 0 227 16 c 128,-1,1
571 132.5 m 128,-1,25
 605 165 605 165 605 221 c 0,26,27
 605 281 605 281 572 309.5 c 128,-1,28
 539 338 539 338 472 338 c 2,29,-1
 338 338 l 1,30,-1
 338 100 l 1,31,-1
 472 100 l 2,32,24
 537 100 537 100 571 132.5 c 128,-1,25
EndSplineSet
EndChar

StartChar: uni042B
Encoding: 479 1067 551
Width: 859
GlyphClass: 2
Flags: W
AnchorPoint: "Anchor-5" 423 705 basechar 0
LayerCount: 2
Fore
SplineSet
92 16 m 128,-1,1
 76 32 76 32 76 61 c 2,2,-1
 76 647 l 2,3,4
 76 676 76 676 93.5 693.5 c 128,-1,5
 111 711 111 711 139 711 c 0,6,7
 168 711 168 711 185.5 693.5 c 128,-1,8
 203 676 203 676 203 647 c 2,9,-1
 203 437 l 1,10,-1
 345 437 l 2,11,12
 460 437 460 437 521.5 383 c 128,-1,13
 583 329 583 329 583 226 c 0,14,15
 583 120 583 120 515 60 c 128,-1,16
 447 0 447 0 332 0 c 2,17,-1
 137 0 l 2,18,0
 108 0 108 0 92 16 c 128,-1,1
673.5 11.5 m 128,-1,20
 656 29 656 29 656 58 c 2,21,-1
 656 647 l 2,22,23
 656 676 656 676 673.5 693.5 c 128,-1,24
 691 711 691 711 720 711 c 256,25,26
 749 711 749 711 766 693.5 c 128,-1,27
 783 676 783 676 783 647 c 2,28,-1
 783 58 l 2,29,30
 783 29 783 29 765.5 11.5 c 128,-1,31
 748 -6 748 -6 720 -6 c 0,32,19
 691 -6 691 -6 673.5 11.5 c 128,-1,20
427.5 132.5 m 128,-1,34
 461 165 461 165 461 221 c 0,35,36
 461 281 461 281 428 309.5 c 128,-1,37
 395 338 395 338 328 338 c 2,38,-1
 203 338 l 1,39,-1
 203 100 l 1,40,-1
 328 100 l 2,41,33
 394 100 394 100 427.5 132.5 c 128,-1,34
EndSplineSet
EndChar

StartChar: uni0409
Encoding: 445 1033 552
Width: 1070
Flags: W
LayerCount: 2
Fore
SplineSet
81 -1 m 0,1,2
 58 -1 58 -1 42.5 15 c 128,-1,3
 27 31 27 31 27 53 c 0,4,5
 27 70 27 70 37 86 c 128,-1,6
 47 102 47 102 67 114 c 0,7,8
 108 136 108 136 132 180 c 128,-1,9
 156 224 156 224 167 300 c 128,-1,10
 178 376 178 376 178 495 c 2,11,-1
 178 644 l 2,12,13
 178 673 178 673 194 689 c 128,-1,14
 210 705 210 705 239 705 c 2,15,-1
 590 705 l 2,16,17
 619 705 619 705 635 689 c 128,-1,18
 651 673 651 673 651 644 c 2,19,-1
 651 437 l 1,20,-1
 793 437 l 2,21,22
 908 437 908 437 970 382.5 c 128,-1,23
 1032 328 1032 328 1032 226 c 0,24,25
 1032 121 1032 121 963.5 60.5 c 128,-1,26
 895 0 895 0 781 0 c 2,27,-1
 586 0 l 2,28,29
 557 0 557 0 541 16 c 128,-1,30
 525 32 525 32 525 61 c 2,31,-1
 525 602 l 1,32,-1
 302 602 l 1,33,-1
 302 516 l 2,34,35
 302 367 302 367 282.5 268.5 c 128,-1,36
 263 170 263 170 223.5 109.5 c 128,-1,37
 184 49 184 49 121 11 c 0,38,0
 102 -1 102 -1 81 -1 c 0,1,2
876 132.5 m 128,-1,40
 910 165 910 165 910 221 c 0,41,42
 910 281 910 281 876.5 309.5 c 128,-1,43
 843 338 843 338 776 338 c 2,44,-1
 651 338 l 1,45,-1
 651 100 l 1,46,-1
 776 100 l 2,47,39
 842 100 842 100 876 132.5 c 128,-1,40
EndSplineSet
EndChar

StartChar: uni040A
Encoding: 446 1034 553
Width: 1069
Flags: W
LayerCount: 2
Fore
SplineSet
93.5 12 m 128,-1,1
 76 30 76 30 76 58 c 2,2,-1
 76 647 l 2,3,4
 76 675 76 675 93.5 693 c 128,-1,5
 111 711 111 711 139 711 c 0,6,7
 168 711 168 711 185.5 693.5 c 128,-1,8
 203 676 203 676 203 647 c 2,9,-1
 203 420 l 1,10,-1
 525 420 l 1,11,-1
 525 647 l 2,12,13
 525 676 525 676 542.5 693.5 c 128,-1,14
 560 711 560 711 588 711 c 256,15,16
 616 711 616 711 633.5 693.5 c 128,-1,17
 651 676 651 676 651 647 c 2,18,-1
 651 420 l 1,19,-1
 795 420 l 2,20,21
 910 420 910 420 970.5 369 c 128,-1,22
 1031 318 1031 318 1031 218 c 0,23,24
 1031 115 1031 115 964 57.5 c 128,-1,25
 897 0 897 0 782 0 c 2,26,-1
 586 0 l 2,27,28
 557 0 557 0 541 16 c 128,-1,29
 525 32 525 32 525 61 c 2,30,-1
 525 316 l 1,31,-1
 203 316 l 1,32,-1
 203 58 l 2,33,34
 203 30 203 30 185.5 12 c 128,-1,35
 168 -6 168 -6 139 -6 c 0,36,0
 111 -6 111 -6 93.5 12 c 128,-1,1
876 130.5 m 128,-1,38
 909 161 909 161 909 216 c 256,39,40
 909 271 909 271 877 296 c 128,-1,41
 845 321 845 321 778 321 c 2,42,-1
 651 321 l 1,43,-1
 651 100 l 1,44,-1
 778 100 l 2,45,37
 843 100 843 100 876 130.5 c 128,-1,38
EndSplineSet
EndChar

StartChar: uni0404
Encoding: 440 1028 555
Width: 680
Flags: W
LayerCount: 2
Fore
SplineSet
214.5 35.5 m 128,-1,1
 137 80 137 80 95.5 162 c 128,-1,2
 54 244 54 244 54 353 c 256,3,4
 54 462 54 462 95.5 543.5 c 128,-1,5
 137 625 137 625 214.5 669.5 c 128,-1,6
 292 714 292 714 396 714 c 0,7,8
 525 714 525 714 615 640 c 0,9,10
 644 617 644 617 644 588 c 0,11,12
 644 568 644 568 630 553 c 128,-1,13
 616 538 616 538 596 538 c 0,14,15
 579 538 579 538 560 551 c 0,16,17
 520 582 520 582 482.5 595.5 c 128,-1,18
 445 609 445 609 398 609 c 0,19,20
 308 609 308 609 254.5 557.5 c 128,-1,21
 201 506 201 506 189 408 c 1,22,-1
 463 408 l 2,23,24
 487 408 487 408 501 395 c 128,-1,25
 515 382 515 382 515 359 c 256,26,27
 515 336 515 336 501 322 c 128,-1,28
 487 308 487 308 463 308 c 2,29,-1
 188 308 l 1,30,31
 198 205 198 205 252 150.5 c 128,-1,32
 306 96 306 96 398 96 c 0,33,34
 437 96 437 96 475 108.5 c 128,-1,35
 513 121 513 121 556 150 c 0,36,37
 573 161 573 161 591 161 c 0,38,39
 611 161 611 161 624.5 146.5 c 128,-1,40
 638 132 638 132 638 112 c 0,41,42
 638 80 638 80 604 56 c 0,43,44
 565 27 565 27 509 9 c 128,-1,45
 453 -9 453 -9 396 -9 c 0,46,0
 292 -9 292 -9 214.5 35.5 c 128,-1,1
EndSplineSet
EndChar

StartChar: uni042D
Encoding: 481 1069 556
Width: 668
GlyphClass: 2
Flags: W
AnchorPoint: "Anchor-5" 302 705 basechar 0
LayerCount: 2
Fore
SplineSet
164 6 m 128,-1,1
 112 21 112 21 68 50 c 0,2,3
 52 59 52 59 44.5 72.5 c 128,-1,4
 37 86 37 86 37 101 c 0,5,6
 37 121 37 121 51 136 c 128,-1,7
 65 151 65 151 85 151 c 0,8,9
 101 151 101 151 114 143 c 0,10,11
 160 116 160 116 195 106 c 128,-1,12
 230 96 230 96 270 96 c 0,13,14
 361 96 361 96 415.5 151 c 128,-1,15
 470 206 470 206 481 308 c 1,16,-1
 209 308 l 2,17,18
 184 308 184 308 168.5 322 c 128,-1,19
 153 336 153 336 153 359 c 0,20,21
 153 381 153 381 168.5 394.5 c 128,-1,22
 184 408 184 408 209 408 c 2,23,-1
 480 408 l 1,24,25
 469 507 469 507 416.5 558 c 128,-1,26
 364 609 364 609 274 609 c 0,27,28
 238 609 238 609 202.5 599 c 128,-1,29
 167 589 167 589 125 566 c 0,30,31
 110 560 110 560 98 560 c 0,32,33
 77 560 77 560 63.5 574.5 c 128,-1,34
 50 589 50 589 50 609 c 0,35,36
 50 641 50 641 82 660 c 0,37,38
 121 686 121 686 172 700 c 128,-1,39
 223 714 223 714 280 714 c 0,40,41
 385 714 385 714 460.5 670.5 c 128,-1,42
 536 627 536 627 575.5 546 c 128,-1,43
 615 465 615 465 615 355 c 0,44,45
 615 246 615 246 573 163.5 c 128,-1,46
 531 81 531 81 453.5 36 c 128,-1,47
 376 -9 376 -9 272 -9 c 0,48,0
 216 -9 216 -9 164 6 c 128,-1,1
EndSplineSet
EndChar

StartChar: uni040B
Encoding: 447 1035 560
Width: 798
Flags: W
LayerCount: 2
Fore
SplineSet
229 11.5 m 128,-1,1
 212 29 212 29 212 58 c 2,2,-1
 212 599 l 1,3,-1
 60 599 l 2,4,5
 33 599 33 599 16.5 614 c 128,-1,6
 0 629 0 629 0 652 c 0,7,8
 0 676 0 676 16.5 690.5 c 128,-1,9
 33 705 33 705 60 705 c 2,10,-1
 523 705 l 2,11,12
 549 705 549 705 565.5 690.5 c 128,-1,13
 582 676 582 676 582 652 c 0,14,15
 582 629 582 629 565.5 614 c 128,-1,16
 549 599 549 599 523 599 c 2,17,-1
 338 599 l 1,18,-1
 338 418 l 1,19,20
 367 426 367 426 407.5 432.5 c 128,-1,21
 448 439 448 439 482 439 c 0,22,23
 600 439 600 439 664.5 387 c 128,-1,24
 729 335 729 335 729 220 c 2,25,-1
 729 58 l 2,26,27
 729 29 729 29 711.5 11.5 c 128,-1,28
 694 -6 694 -6 666 -6 c 0,29,30
 637 -6 637 -6 619.5 11.5 c 128,-1,31
 602 29 602 29 602 58 c 2,32,-1
 602 200 l 2,33,34
 602 273 602 273 566.5 305 c 128,-1,35
 531 337 531 337 457 337 c 0,36,37
 390 337 390 337 338 319 c 1,38,-1
 338 58 l 2,39,40
 338 29 338 29 320.5 11.5 c 128,-1,41
 303 -6 303 -6 275 -6 c 0,42,0
 246 -6 246 -6 229 11.5 c 128,-1,1
EndSplineSet
EndChar

StartChar: uni042E
Encoding: 482 1070 561
Width: 1042
Flags: W
LayerCount: 2
Fore
SplineSet
431.5 75 m 128,-1,1
 346 159 346 159 334 306 c 1,2,-1
 203 306 l 1,3,-1
 203 58 l 2,4,5
 203 29 203 29 185.5 11.5 c 128,-1,6
 168 -6 168 -6 139 -6 c 256,7,8
 110 -6 110 -6 93 11.5 c 128,-1,9
 76 29 76 29 76 58 c 2,10,-1
 76 647 l 2,11,12
 76 676 76 676 93.5 693.5 c 128,-1,13
 111 711 111 711 139 711 c 0,14,15
 168 711 168 711 185.5 693.5 c 128,-1,16
 203 676 203 676 203 647 c 2,17,-1
 203 410 l 1,18,-1
 335 410 l 1,19,20
 350 553 350 553 435 633.5 c 128,-1,21
 520 714 520 714 660 714 c 0,22,23
 762 714 762 714 836 670 c 128,-1,24
 910 626 910 626 949 545 c 128,-1,25
 988 464 988 464 988 353 c 256,26,27
 988 242 988 242 949 160.5 c 128,-1,28
 910 79 910 79 836 35 c 128,-1,29
 762 -9 762 -9 660 -9 c 0,30,0
 517 -9 517 -9 431.5 75 c 128,-1,1
808 160.5 m 128,-1,32
 860 227 860 227 860 353 c 256,33,34
 860 479 860 479 808.5 545 c 128,-1,35
 757 611 757 611 660 611 c 256,36,37
 563 611 563 611 511.5 545 c 128,-1,38
 460 479 460 479 460 353 c 256,39,40
 460 227 460 227 511.5 160.5 c 128,-1,41
 563 94 563 94 660 94 c 0,42,31
 756 94 756 94 808 160.5 c 128,-1,32
EndSplineSet
EndChar

StartChar: uni042F
Encoding: 483 1071 562
Width: 697
Flags: W
LayerCount: 2
Fore
SplineSet
511 11.5 m 128,-1,1
 494 29 494 29 494 58 c 2,2,-1
 494 272 l 1,3,-1
 398 272 l 2,4,5
 314 272 314 272 271 195 c 2,6,-1
 174 27 l 2,7,8
 165 11 165 11 151.5 3 c 128,-1,9
 138 -5 138 -5 123 -5 c 0,10,11
 98 -5 98 -5 78.5 12 c 128,-1,12
 59 29 59 29 59 53 c 0,13,14
 59 69 59 69 69 85 c 2,15,-1
 139 203 l 2,16,17
 185 278 185 278 259 299 c 1,18,19
 177 312 177 312 131.5 366 c 128,-1,20
 86 420 86 420 86 493 c 0,21,22
 86 595 86 595 152 650 c 128,-1,23
 218 705 218 705 338 705 c 2,24,-1
 560 705 l 2,25,26
 589 705 589 705 604.5 689 c 128,-1,27
 620 673 620 673 620 644 c 2,28,-1
 620 58 l 2,29,30
 620 29 620 29 602.5 11.5 c 128,-1,31
 585 -6 585 -6 557 -6 c 0,32,0
 528 -6 528 -6 511 11.5 c 128,-1,1
495 605 m 1,33,-1
 354 605 l 2,34,35
 282 605 282 605 245 574 c 128,-1,36
 208 543 208 543 208 486 c 256,37,38
 208 429 208 429 242.5 400.5 c 128,-1,39
 277 372 277 372 349 372 c 2,40,-1
 495 372 l 1,41,-1
 495 605 l 1,33,-1
EndSplineSet
EndChar

StartChar: uni0402
Encoding: 438 1026 563
Width: 783
Flags: W
LayerCount: 2
Fore
SplineSet
532 -6 m 0,1,2
 508 -6 508 -6 492 7 c 128,-1,3
 476 20 476 20 475 40 c 0,4,5
 475 62 475 62 484.5 74.5 c 128,-1,6
 494 87 494 87 513 94 c 0,7,8
 566 110 566 110 590 142.5 c 128,-1,9
 614 175 614 175 614 224 c 0,10,11
 614 278 614 278 580.5 307.5 c 128,-1,12
 547 337 547 337 478 337 c 0,13,14
 432 337 432 337 403 331.5 c 128,-1,15
 374 326 374 326 338 312 c 1,16,-1
 338 58 l 2,17,18
 338 29 338 29 320.5 11.5 c 128,-1,19
 303 -6 303 -6 275 -6 c 0,20,21
 246 -6 246 -6 229 11.5 c 128,-1,22
 212 29 212 29 212 58 c 2,23,-1
 212 599 l 1,24,-1
 60 599 l 2,25,26
 35 599 35 599 17.5 614 c 128,-1,27
 0 629 0 629 0 652 c 256,28,29
 0 675 0 675 17.5 690 c 128,-1,30
 35 705 35 705 60 705 c 2,31,-1
 523 705 l 2,32,33
 548 705 548 705 565 690 c 128,-1,34
 582 675 582 675 582 652 c 0,35,36
 582 630 582 630 565 614.5 c 128,-1,37
 548 599 548 599 523 599 c 2,38,-1
 338 599 l 1,39,-1
 338 412 l 1,40,41
 421 439 421 439 499 439 c 0,42,43
 624 439 624 439 684 381 c 128,-1,44
 744 323 744 323 744 221 c 0,45,46
 744 128 744 128 691 70 c 128,-1,47
 638 12 638 12 550 -4 c 0,48,0
 538 -6 538 -6 532 -6 c 0,1,2
EndSplineSet
EndChar

StartChar: uni0462
Encoding: 532 1122 564
Width: 710
Flags: W
LayerCount: 2
Fore
SplineSet
613 357.5 m 128,-1,1
 672 307 672 307 672 211 c 0,2,3
 672 112 672 112 607 56 c 128,-1,4
 542 0 542 0 430 0 c 2,5,-1
 225 0 l 2,6,7
 196 0 196 0 180.5 16 c 128,-1,8
 165 32 165 32 165 61 c 2,9,-1
 165 511 l 1,10,-1
 50 511 l 2,11,12
 28 511 28 511 14 523.5 c 128,-1,13
 0 536 0 536 0 556 c 256,14,15
 0 576 0 576 14 589 c 128,-1,16
 28 602 28 602 50 602 c 2,17,-1
 165 602 l 1,18,-1
 165 654 l 2,19,20
 165 683 165 683 182.5 700.5 c 128,-1,21
 200 718 200 718 228 718 c 0,22,23
 257 718 257 718 274 700.5 c 128,-1,24
 291 683 291 683 291 654 c 2,25,-1
 291 602 l 1,26,-1
 459 602 l 2,27,28
 481 602 481 602 495 589 c 128,-1,29
 509 576 509 576 509 556 c 256,30,31
 509 536 509 536 495.5 523.5 c 128,-1,32
 482 511 482 511 459 511 c 2,33,-1
 291 511 l 1,34,-1
 291 408 l 1,35,-1
 442 408 l 2,36,0
 554 408 554 408 613 357.5 c 128,-1,1
517.5 128.5 m 128,-1,38
 551 157 551 157 551 208 c 256,39,40
 551 259 551 259 518.5 283.5 c 128,-1,41
 486 308 486 308 418 308 c 2,42,-1
 291 308 l 1,43,-1
 291 100 l 1,44,-1
 418 100 l 2,45,37
 484 100 484 100 517.5 128.5 c 128,-1,38
EndSplineSet
EndChar

StartChar: uni046A
Encoding: 534 1130 565
Width: 972
Flags: W
LayerCount: 2
Fore
SplineSet
444.5 12 m 128,-1,1
 427 30 427 30 427 59 c 2,2,-1
 427 316 l 1,3,-1
 382 316 l 2,4,5
 324 316 324 316 287.5 290 c 128,-1,6
 251 264 251 264 231 209 c 2,7,-1
 155 34 l 2,8,9
 146 14 146 14 131 4 c 128,-1,10
 116 -6 116 -6 99 -6 c 0,11,12
 76 -6 76 -6 58.5 11 c 128,-1,13
 41 28 41 28 41 54 c 0,14,15
 41 69 41 69 47 85 c 2,16,-1
 109 237 l 2,17,18
 131 290 131 290 159.5 326.5 c 128,-1,19
 188 363 188 363 237.5 386 c 128,-1,20
 287 409 287 409 362 409 c 2,21,-1
 378 409 l 1,22,-1
 221 594 l 2,23,24
 203 618 203 618 203 642 c 0,25,26
 203 668 203 668 223 686.5 c 128,-1,27
 243 705 243 705 274 705 c 2,28,-1
 706 705 l 2,29,30
 737 705 737 705 756.5 686.5 c 128,-1,31
 776 668 776 668 776 641 c 0,32,33
 776 615 776 615 759 594 c 2,34,-1
 601 409 l 1,35,-1
 616 409 l 2,36,37
 692 409 692 409 741 386.5 c 128,-1,38
 790 364 790 364 818.5 327 c 128,-1,39
 847 290 847 290 870 237 c 2,40,-1
 924 85 l 2,41,42
 930 69 930 69 930 55 c 0,43,44
 930 29 930 29 912 12 c 128,-1,45
 894 -5 894 -5 871 -5 c 0,46,47
 854 -5 854 -5 839.5 5 c 128,-1,48
 825 15 825 15 817 36 c 2,49,-1
 749 209 l 2,50,51
 729 263 729 263 692 289.5 c 128,-1,52
 655 316 655 316 597 316 c 2,53,-1
 553 316 l 1,54,-1
 553 59 l 2,55,56
 553 30 553 30 535.5 12 c 128,-1,57
 518 -6 518 -6 490 -6 c 256,58,0
 462 -6 462 -6 444.5 12 c 128,-1,1
648 613 m 1,59,-1
 331 613 l 1,60,-1
 490 420 l 1,61,-1
 648 613 l 1,59,-1
EndSplineSet
EndChar

StartChar: uni0474
Encoding: 538 1140 567
Width: 787
Flags: W
LayerCount: 2
Fore
SplineSet
8 654 m 0,1,2
 8 678 8 678 28 694 c 128,-1,3
 48 710 48 710 74 710 c 0,4,5
 91 710 91 710 106 701 c 128,-1,6
 121 692 121 692 130 674 c 2,7,-1
 358 166 l 1,8,-1
 504 508 l 2,9,10
 533 577 533 577 561.5 618.5 c 128,-1,11
 590 660 590 660 628 682.5 c 128,-1,12
 666 705 666 705 721 711 c 0,13,14
 751 715 751 715 769.5 697.5 c 128,-1,15
 788 680 788 680 788 656 c 0,16,17
 788 638 788 638 777 623.5 c 128,-1,18
 766 609 766 609 744 604 c 0,19,20
 693 593 693 593 664 562 c 128,-1,21
 635 531 635 531 607 463 c 2,22,-1
 425 36 l 2,23,24
 416 16 416 16 397.5 5 c 128,-1,25
 379 -6 379 -6 357 -6 c 0,26,27
 336 -6 336 -6 317 5 c 128,-1,28
 298 16 298 16 289 36 c 2,29,-1
 14 629 l 2,30,0
 8 643 8 643 8 654 c 0,1,2
EndSplineSet
EndChar

StartChar: uni0492
Encoding: 548 1170 568
Width: 566
GlyphClass: 2
Flags: W
AnchorPoint: "Anchor-6" 161 353 basechar 0
AnchorPoint: "Anchor-5" 304 705 basechar 0
LayerCount: 2
Fore
SplineSet
535.5 691.5 m 128,-1,1
 550 678 550 678 550 654 c 256,2,3
 550 630 550 630 535.5 616 c 128,-1,4
 521 602 521 602 494 602 c 2,5,-1
 203 602 l 1,6,-1
 203 396 l 1,7,-1
 314 396 l 2,8,9
 337 396 337 396 351 383 c 128,-1,10
 365 370 365 370 365 348 c 0,11,12
 365 327 365 327 351 313.5 c 128,-1,13
 337 300 337 300 314 300 c 2,14,-1
 203 300 l 1,15,-1
 203 58 l 2,16,17
 203 29 203 29 185.5 11.5 c 128,-1,18
 168 -6 168 -6 139 -6 c 256,19,20
 110 -6 110 -6 93 11.5 c 128,-1,21
 76 29 76 29 76 58 c 2,22,-1
 76 300 l 1,23,-1
 40 300 l 2,24,25
 17 300 17 300 2.5 313.5 c 128,-1,26
 -12 327 -12 327 -12 348 c 0,27,28
 -12 370 -12 370 2.5 383 c 128,-1,29
 17 396 17 396 40 396 c 2,30,-1
 76 396 l 1,31,-1
 76 644 l 2,32,33
 76 672 76 672 93 688.5 c 128,-1,34
 110 705 110 705 137 705 c 2,35,-1
 494 705 l 2,36,0
 521 705 521 705 535.5 691.5 c 128,-1,1
EndSplineSet
Substitution2: "'locl' Localized Forms in Cyrillic lookup 14 subtable" uni0492.loclBSH
Substitution2: "'aalt' Access All Alternates lookup 0 subtable" uni0492.loclBSH
EndChar

StartChar: uni0494
Encoding: 550 1172 569
Width: 638
Flags: W
LayerCount: 2
Fore
SplineSet
304 -163 m 128,-1,1
 285 -149 285 -149 285 -129 c 0,2,3
 285 -112 285 -112 298.5 -98 c 128,-1,4
 312 -84 312 -84 337 -78 c 0,5,6
 416 -65 416 -65 449 -7.5 c 128,-1,7
 482 50 482 50 482 145 c 0,8,9
 482 342 482 342 328 342 c 0,10,11
 251 342 251 342 203 311 c 1,12,-1
 203 58 l 2,13,14
 203 29 203 29 185.5 11.5 c 128,-1,15
 168 -6 168 -6 139 -6 c 256,16,17
 110 -6 110 -6 93 11.5 c 128,-1,18
 76 29 76 29 76 58 c 2,19,-1
 76 644 l 2,20,21
 76 673 76 673 92 689 c 128,-1,22
 108 705 108 705 137 705 c 2,23,-1
 490 705 l 2,24,25
 514 705 514 705 528.5 691 c 128,-1,26
 543 677 543 677 543 654 c 256,27,28
 543 631 543 631 528.5 616.5 c 128,-1,29
 514 602 514 602 490 602 c 2,30,-1
 203 602 l 1,31,-1
 203 412 l 1,32,33
 277 439 277 439 353 439 c 0,34,35
 476 439 476 439 534.5 372.5 c 128,-1,36
 593 306 593 306 593 166 c 0,37,38
 593 11 593 11 529 -77.5 c 128,-1,39
 465 -166 465 -166 355 -174 c 0,40,0
 323 -177 323 -177 304 -163 c 128,-1,1
EndSplineSet
EndChar

StartChar: uni0496
Encoding: 552 1174 570
Width: 1078
Flags: W
LayerCount: 2
Fore
SplineSet
1042 87 m 128,-1,1
 1058 71 1058 71 1058 42 c 2,2,-1
 1058 -104 l 2,3,4
 1058 -133 1058 -133 1041.5 -150.5 c 128,-1,5
 1025 -168 1025 -168 998 -168 c 256,6,7
 971 -168 971 -168 954.5 -150.5 c 128,-1,8
 938 -133 938 -133 938 -104 c 2,9,-1
 938 0 l 1,10,-1
 927 0 l 1,11,12
 916 -4 916 -4 904 -4 c 0,13,14
 870 -4 870 -4 853 30 c 2,15,-1
 769 211 l 2,16,17
 745 264 745 264 713.5 287 c 128,-1,18
 682 310 682 310 627 310 c 2,19,-1
 570 310 l 1,20,-1
 570 59 l 2,21,22
 570 30 570 30 553 12 c 128,-1,23
 536 -6 536 -6 507 -6 c 256,24,25
 478 -6 478 -6 461 11.5 c 128,-1,26
 444 29 444 29 444 59 c 2,27,-1
 444 310 l 1,28,-1
 388 310 l 2,29,30
 333 310 333 310 302 287 c 128,-1,31
 271 264 271 264 246 211 c 2,32,-1
 161 29 l 2,33,34
 153 12 153 12 139 3.5 c 128,-1,35
 125 -5 125 -5 109 -5 c 0,36,37
 83 -5 83 -5 62.5 12.5 c 128,-1,38
 42 30 42 30 42 55 c 0,39,40
 42 69 42 69 48 82 c 2,41,-1
 124 240 l 2,42,43
 155 305 155 305 183.5 334 c 128,-1,44
 212 363 212 363 264 383 c 1,45,-1
 101 619 l 2,46,47
 90 636 90 636 90 653 c 0,48,49
 90 676 90 676 108.5 693 c 128,-1,50
 127 710 127 710 151 710 c 0,51,52
 181 710 181 710 199 683 c 2,53,-1
 382 407 l 1,54,-1
 444 407 l 1,55,-1
 444 647 l 2,56,57
 444 676 444 676 461.5 693.5 c 128,-1,58
 479 711 479 711 507 711 c 0,59,60
 536 711 536 711 553 693.5 c 128,-1,61
 570 676 570 676 570 647 c 2,62,-1
 570 407 l 1,63,-1
 632 407 l 1,64,-1
 815 682 l 2,65,66
 833 710 833 710 864 710 c 0,67,68
 888 710 888 710 906.5 693 c 128,-1,69
 925 676 925 676 925 653 c 0,70,71
 925 635 925 635 914 620 c 2,72,-1
 750 383 l 1,73,74
 800 364 800 364 826.5 336 c 128,-1,75
 853 308 853 308 891 240 c 1,76,-1
 956 103 l 1,77,-1
 997 103 l 2,78,0
 1026 103 1026 103 1042 87 c 128,-1,1
EndSplineSet
EndChar

StartChar: uni0498
Encoding: 554 1176 571
Width: 639
GlyphClass: 2
Flags: W
AnchorPoint: "Anchor-5" 320 705 basechar 0
AnchorPoint: "Anchor-3" 320 0 basechar 0
LayerCount: 2
Fore
SplineSet
534 65 m 128,-1,1
 474 10 474 10 372 -4 c 1,2,-1
 371 -115 l 2,3,4
 371 -139 371 -139 356.5 -154 c 128,-1,5
 342 -169 342 -169 318 -169 c 0,6,7
 295 -169 295 -169 280.5 -154 c 128,-1,8
 266 -139 266 -139 266 -115 c 2,9,-1
 266 -8 l 1,10,11
 150 0 150 0 69 54 c 0,12,13
 52 63 52 63 44 77 c 128,-1,14
 36 91 36 91 36 106 c 0,15,16
 36 127 36 127 49.5 141 c 128,-1,17
 63 155 63 155 84 155 c 0,18,19
 100 155 100 155 117 145 c 0,20,21
 160 118 160 118 201.5 107 c 128,-1,22
 243 96 243 96 289 96 c 0,23,24
 370 96 370 96 416.5 123.5 c 128,-1,25
 463 151 463 151 463 204 c 0,26,27
 463 256 463 256 428.5 282 c 128,-1,28
 394 308 394 308 319 308 c 2,29,-1
 225 308 l 2,30,31
 198 308 198 308 182 323 c 128,-1,32
 166 338 166 338 166 359 c 0,33,34
 166 379 166 379 182 393.5 c 128,-1,35
 198 408 198 408 225 408 c 2,36,-1
 301 408 l 2,37,38
 375 408 375 408 412 434.5 c 128,-1,39
 449 461 449 461 449 512 c 0,40,41
 449 560 449 560 412.5 584.5 c 128,-1,42
 376 609 376 609 312 609 c 0,43,44
 260 609 260 609 219.5 596.5 c 128,-1,45
 179 584 179 584 136 560 c 0,46,47
 121 553 121 553 105 553 c 0,48,49
 82 553 82 553 68.5 567 c 128,-1,50
 55 581 55 581 55 601 c 0,51,52
 55 616 55 616 64 630 c 128,-1,53
 73 644 73 644 90 653 c 0,54,55
 134 680 134 680 196.5 697 c 128,-1,56
 259 714 259 714 332 714 c 0,57,58
 451 714 451 714 516 663.5 c 128,-1,59
 581 613 581 613 581 525 c 0,60,61
 581 467 581 467 549 425 c 128,-1,62
 517 383 517 383 457 364 c 1,63,64
 594 330 594 330 594 201 c 0,65,0
 594 120 594 120 534 65 c 128,-1,1
EndSplineSet
Substitution2: "'locl' Localized Forms in Cyrillic lookup 15 subtable" uni0498.loclCHU
Substitution2: "'locl' Localized Forms in Cyrillic lookup 14 subtable" uni0498.loclBSH
AlternateSubs2: "'aalt' Access All Alternates lookup 1 subtable" uni0498.loclBSH uni0498.loclCHU
EndChar

StartChar: uni049A
Encoding: 556 1178 572
Width: 759
Flags: W
LayerCount: 2
Fore
SplineSet
723 87 m 128,-1,1
 739 71 739 71 739 42 c 2,2,-1
 739 -104 l 2,3,4
 739 -133 739 -133 722.5 -150.5 c 128,-1,5
 706 -168 706 -168 679 -168 c 256,6,7
 652 -168 652 -168 635.5 -150.5 c 128,-1,8
 619 -133 619 -133 619 -104 c 2,9,-1
 619 0 l 1,10,-1
 606 0 l 2,11,12
 596 -3 596 -3 586 -3 c 0,13,14
 553 -3 553 -3 534 31 c 2,15,-1
 433 212 l 2,16,17
 404 264 404 264 375 285 c 128,-1,18
 346 306 346 306 291 306 c 2,19,-1
 203 306 l 1,20,-1
 203 59 l 2,21,22
 203 30 203 30 185.5 12 c 128,-1,23
 168 -6 168 -6 139 -6 c 256,24,25
 110 -6 110 -6 93 11.5 c 128,-1,26
 76 29 76 29 76 59 c 2,27,-1
 76 647 l 2,28,29
 76 676 76 676 93.5 693.5 c 128,-1,30
 111 711 111 711 139 711 c 0,31,32
 168 711 168 711 185.5 693.5 c 128,-1,33
 203 676 203 676 203 647 c 2,34,-1
 203 410 l 1,35,-1
 289 410 l 1,36,-1
 513 686 l 2,37,38
 533 710 533 710 560 710 c 0,39,40
 582 710 582 710 598.5 694 c 128,-1,41
 615 678 615 678 615 656 c 0,42,43
 615 635 615 635 600 617 c 2,44,-1
 410 386 l 1,45,46
 446 373 446 373 468.5 356 c 128,-1,47
 491 339 491 339 509.5 313 c 128,-1,48
 528 287 528 287 558 235 c 2,49,-1
 632 103 l 1,50,-1
 678 103 l 2,51,0
 707 103 707 103 723 87 c 128,-1,1
EndSplineSet
EndChar

StartChar: uni049C
Encoding: 558 1180 573
Width: 737
Flags: W
LayerCount: 2
Fore
SplineSet
696 56 m 0,1,2
 696 30 696 30 677.5 12.5 c 128,-1,3
 659 -5 659 -5 635 -5 c 0,4,5
 602 -5 602 -5 582 30 c 2,6,-1
 481 212 l 2,7,8
 454 259 454 259 429 280 c 128,-1,9
 404 301 404 301 361 305 c 1,10,-1
 361 201 l 2,11,12
 361 181 361 181 349 169 c 128,-1,13
 337 157 337 157 318 157 c 0,14,15
 298 157 298 157 286.5 169 c 128,-1,16
 275 181 275 181 275 201 c 2,17,-1
 275 306 l 1,18,-1
 203 306 l 1,19,-1
 203 59 l 2,20,21
 203 30 203 30 185.5 12 c 128,-1,22
 168 -6 168 -6 139 -6 c 256,23,24
 110 -6 110 -6 93 11.5 c 128,-1,25
 76 29 76 29 76 59 c 2,26,-1
 76 647 l 2,27,28
 76 676 76 676 93.5 693.5 c 128,-1,29
 111 711 111 711 139 711 c 0,30,31
 168 711 168 711 185.5 693.5 c 128,-1,32
 203 676 203 676 203 647 c 2,33,-1
 203 410 l 1,34,-1
 275 410 l 1,35,-1
 275 507 l 2,36,37
 275 527 275 527 286.5 539 c 128,-1,38
 298 551 298 551 318 551 c 0,39,40
 337 551 337 551 349 539 c 128,-1,41
 361 527 361 527 361 507 c 2,42,-1
 361 421 l 1,43,-1
 561 686 l 2,44,45
 580 712 580 712 607 712 c 0,46,47
 630 712 630 712 647 695 c 128,-1,48
 664 678 664 678 664 655 c 0,49,50
 664 634 664 634 650 616 c 2,51,-1
 468 382 l 1,52,53
 515 363 515 363 540.5 334.5 c 128,-1,54
 566 306 566 306 605 235 c 2,55,-1
 687 90 l 2,56,0
 696 75 696 75 696 56 c 0,1,2
EndSplineSet
EndChar

StartChar: uni049E
Encoding: 560 1182 574
Width: 797
Flags: W
LayerCount: 2
Fore
SplineSet
757 55 m 0,1,2
 757 30 757 30 738.5 12.5 c 128,-1,3
 720 -5 720 -5 696 -5 c 0,4,5
 680 -5 680 -5 665.5 3.5 c 128,-1,6
 651 12 651 12 642 30 c 2,7,-1
 542 212 l 2,8,9
 514 264 514 264 484.5 285 c 128,-1,10
 455 306 455 306 400 306 c 2,11,-1
 291 306 l 1,12,-1
 291 59 l 2,13,14
 291 30 291 30 273.5 12 c 128,-1,15
 256 -6 256 -6 228 -6 c 0,16,17
 199 -6 199 -6 182 11.5 c 128,-1,18
 165 29 165 29 165 59 c 2,19,-1
 165 524 l 1,20,-1
 57 524 l 2,21,22
 36 524 36 524 23 537 c 128,-1,23
 10 550 10 550 10 570 c 256,24,25
 10 590 10 590 23 602.5 c 128,-1,26
 36 615 36 615 57 615 c 2,27,-1
 165 615 l 1,28,-1
 165 642 l 2,29,30
 165 671 165 671 182.5 688.5 c 128,-1,31
 200 706 200 706 228 706 c 0,32,33
 257 706 257 706 274 688.5 c 128,-1,34
 291 671 291 671 291 642 c 2,35,-1
 291 615 l 1,36,-1
 388 615 l 2,37,38
 409 615 409 615 422 602.5 c 128,-1,39
 435 590 435 590 435 570 c 256,40,41
 435 550 435 550 422 537 c 128,-1,42
 409 524 409 524 388 524 c 2,43,-1
 291 524 l 1,44,-1
 291 410 l 1,45,-1
 400 410 l 1,46,-1
 624 686 l 2,47,48
 644 710 644 710 671 710 c 0,49,50
 693 710 693 710 709.5 694 c 128,-1,51
 726 678 726 678 726 656 c 0,52,53
 726 636 726 636 710 617 c 2,54,-1
 519 386 l 1,55,56
 556 373 556 373 578.5 356 c 128,-1,57
 601 339 601 339 619.5 312.5 c 128,-1,58
 638 286 638 286 666 235 c 2,59,-1
 747 90 l 2,60,0
 757 73 757 73 757 55 c 0,1,2
EndSplineSet
EndChar

StartChar: uni04A0
Encoding: 562 1184 575
Width: 820
Flags: W
LayerCount: 2
Fore
SplineSet
779 56 m 0,1,2
 779 30 779 30 760.5 12.5 c 128,-1,3
 742 -5 742 -5 718 -5 c 0,4,5
 685 -5 685 -5 665 30 c 2,6,-1
 563 212 l 2,7,8
 534 264 534 264 505 285 c 128,-1,9
 476 306 476 306 422 306 c 2,10,-1
 333 306 l 1,11,-1
 333 59 l 2,12,13
 333 30 333 30 315.5 12 c 128,-1,14
 298 -6 298 -6 270 -6 c 0,15,16
 241 -6 241 -6 223.5 11.5 c 128,-1,17
 206 29 206 29 206 59 c 2,18,-1
 206 599 l 1,19,-1
 57 599 l 2,20,21
 31 599 31 599 15.5 613.5 c 128,-1,22
 0 628 0 628 0 652 c 256,23,24
 0 676 0 676 15.5 690.5 c 128,-1,25
 31 705 31 705 57 705 c 2,26,-1
 270 705 l 2,27,28
 299 705 299 705 316 687.5 c 128,-1,29
 333 670 333 670 333 641 c 2,30,-1
 333 410 l 1,31,-1
 419 410 l 1,32,-1
 643 686 l 2,33,34
 663 710 663 710 690 710 c 0,35,36
 712 710 712 710 728.5 694 c 128,-1,37
 745 678 745 678 745 656 c 0,38,39
 745 635 745 635 730 617 c 2,40,-1
 540 386 l 1,41,42
 576 373 576 373 599 356 c 128,-1,43
 622 339 622 339 640.5 312.5 c 128,-1,44
 659 286 659 286 688 235 c 2,45,-1
 769 91 l 2,46,0
 779 74 779 74 779 56 c 0,1,2
EndSplineSet
EndChar

StartChar: uni04A2
Encoding: 564 1186 576
Width: 816
Flags: W
LayerCount: 2
Fore
SplineSet
774 87 m 128,-1,1
 790 71 790 71 790 42 c 2,2,-1
 790 -104 l 2,3,4
 790 -133 790 -133 773.5 -150.5 c 128,-1,5
 757 -168 757 -168 730 -168 c 256,6,7
 703 -168 703 -168 686.5 -150.5 c 128,-1,8
 670 -133 670 -133 670 -104 c 2,9,-1
 670 0 l 1,10,-1
 651 0 l 1,11,12
 642 -4 642 -4 627 -4 c 0,13,14
 598 -4 598 -4 581 13.5 c 128,-1,15
 564 31 564 31 564 60 c 2,16,-1
 564 306 l 1,17,-1
 203 306 l 1,18,-1
 203 59 l 2,19,20
 203 30 203 30 185.5 12 c 128,-1,21
 168 -6 168 -6 139 -6 c 0,22,23
 111 -6 111 -6 93.5 12 c 128,-1,24
 76 30 76 30 76 59 c 2,25,-1
 76 646 l 2,26,27
 76 675 76 675 93 692.5 c 128,-1,28
 110 710 110 710 139 710 c 256,29,30
 168 710 168 710 185.5 692.5 c 128,-1,31
 203 675 203 675 203 646 c 2,32,-1
 203 410 l 1,33,-1
 564 410 l 1,34,-1
 564 646 l 2,35,36
 564 675 564 675 581 692.5 c 128,-1,37
 598 710 598 710 627 710 c 256,38,39
 656 710 656 710 673 692.5 c 128,-1,40
 690 675 690 675 690 646 c 2,41,-1
 690 103 l 1,42,-1
 729 103 l 2,43,0
 758 103 758 103 774 87 c 128,-1,1
EndSplineSet
EndChar

StartChar: uni04A4
Encoding: 566 1188 577
Width: 915
Flags: W
LayerCount: 2
Fore
SplineSet
93.5 12 m 128,-1,1
 76 30 76 30 76 59 c 2,2,-1
 76 646 l 2,3,4
 76 675 76 675 93.5 693 c 128,-1,5
 111 711 111 711 139 711 c 0,6,7
 168 711 168 711 185.5 693 c 128,-1,8
 203 675 203 675 203 646 c 2,9,-1
 203 410 l 1,10,-1
 527 410 l 1,11,-1
 527 644 l 2,12,13
 527 673 527 673 543 689 c 128,-1,14
 559 705 559 705 588 705 c 2,15,-1
 843 705 l 2,16,17
 868 705 868 705 883 691 c 128,-1,18
 898 677 898 677 898 654 c 256,19,20
 898 631 898 631 883 616.5 c 128,-1,21
 868 602 868 602 843 602 c 2,22,-1
 654 602 l 1,23,-1
 654 59 l 2,24,25
 654 30 654 30 636.5 12 c 128,-1,26
 619 -6 619 -6 591 -6 c 0,27,28
 562 -6 562 -6 544.5 12 c 128,-1,29
 527 30 527 30 527 59 c 2,30,-1
 527 306 l 1,31,-1
 203 306 l 1,32,-1
 203 59 l 2,33,34
 203 30 203 30 185.5 12 c 128,-1,35
 168 -6 168 -6 139 -6 c 0,36,0
 111 -6 111 -6 93.5 12 c 128,-1,1
EndSplineSet
EndChar

StartChar: uni0524
Encoding: 664 1316 578
Width: 801
Flags: W
LayerCount: 2
Fore
SplineSet
759 87 m 128,-1,1
 775 71 775 71 775 42 c 2,2,-1
 775 -104 l 2,3,4
 775 -133 775 -133 758.5 -150.5 c 128,-1,5
 742 -168 742 -168 715 -168 c 256,6,7
 688 -168 688 -168 671.5 -150.5 c 128,-1,8
 655 -133 655 -133 655 -104 c 2,9,-1
 655 0 l 1,10,-1
 636 0 l 1,11,12
 627 -4 627 -4 612 -4 c 0,13,14
 583 -4 583 -4 566 13.5 c 128,-1,15
 549 31 549 31 549 60 c 2,16,-1
 549 602 l 1,17,-1
 203 602 l 1,18,-1
 203 58 l 2,19,20
 203 29 203 29 185.5 11.5 c 128,-1,21
 168 -6 168 -6 139 -6 c 256,22,23
 110 -6 110 -6 93 11.5 c 128,-1,24
 76 29 76 29 76 59 c 2,25,-1
 76 642 l 2,26,27
 76 670 76 670 94 687.5 c 128,-1,28
 112 705 112 705 140 705 c 2,29,-1
 612 705 l 2,30,31
 640 705 640 705 657.5 687.5 c 128,-1,32
 675 670 675 670 675 642 c 2,33,-1
 675 103 l 1,34,-1
 714 103 l 2,35,0
 743 103 743 103 759 87 c 128,-1,1
EndSplineSet
EndChar

StartChar: uni04A8
Encoding: 568 1192 579
Width: 819
Flags: W
LayerCount: 2
Fore
SplineSet
208 36.5 m 128,-1,1
 134 81 134 81 94 161.5 c 128,-1,2
 54 242 54 242 54 347 c 0,3,4
 54 461 54 461 94.5 543.5 c 128,-1,5
 135 626 135 626 209 669.5 c 128,-1,6
 283 713 283 713 383 714 c 0,7,8
 406 714 406 714 424 708 c 0,9,10
 441 702 441 702 450 689 c 128,-1,11
 459 676 459 676 459 660 c 0,12,13
 459 639 459 639 444 624 c 128,-1,14
 429 609 429 609 403 610 c 0,15,16
 394 611 394 611 381 611 c 0,17,18
 291 604 291 604 237 537 c 128,-1,19
 183 470 183 470 183 346 c 0,20,21
 183 229 183 229 233 163 c 128,-1,22
 283 97 283 97 371 91 c 0,23,24
 397 91 397 91 415 95 c 1,25,26
 379 124 379 124 353.5 188.5 c 128,-1,27
 328 253 328 253 328 324 c 0,28,29
 328 402 328 402 355 459 c 128,-1,30
 382 516 382 516 430 546 c 128,-1,31
 478 576 478 576 541 576 c 0,32,33
 637 576 637 576 690.5 515 c 128,-1,34
 744 454 744 454 744 338 c 0,35,36
 744 287 744 287 727 237 c 128,-1,37
 710 187 710 187 682 148.5 c 128,-1,38
 654 110 654 110 624 92 c 1,39,40
 656 84 656 84 678 84 c 0,41,42
 718 84 718 84 760 101 c 0,43,44
 775 107 775 107 787 107 c 0,45,46
 804 107 804 107 814.5 96.5 c 128,-1,47
 825 86 825 86 825 71 c 256,48,49
 825 56 825 56 814.5 42.5 c 128,-1,50
 804 29 804 29 784 21 c 0,51,52
 749 6 749 6 716.5 -0.5 c 128,-1,53
 684 -7 684 -7 645 -7 c 0,54,55
 570 -7 570 -7 516 20 c 1,56,57
 493 8 493 8 454.5 0 c 128,-1,58
 416 -8 416 -8 381 -8 c 0,59,0
 282 -8 282 -8 208 36.5 c 128,-1,1
572.5 169 m 128,-1,61
 594 200 594 200 607.5 243 c 128,-1,62
 621 286 621 286 621 331 c 0,63,64
 621 402 621 402 600 439 c 128,-1,65
 579 476 579 476 540 476 c 0,66,67
 499 476 499 476 474 437.5 c 128,-1,68
 449 399 449 399 449 329 c 0,69,70
 449 258 449 258 470 206 c 128,-1,71
 491 154 491 154 528 127 c 1,72,60
 551 138 551 138 572.5 169 c 128,-1,61
EndSplineSet
EndChar

